<svg id="Group_149" data-name="Group 149" xmlns="http://www.w3.org/2000/svg" xmlns:xlink="http://www.w3.org/1999/xlink" width="76.308" height="90.512" viewBox="0 0 76.308 90.512">
  <defs>
    <clipPath id="clip-path">
      <rect id="Rectangle_68" data-name="Rectangle 68" width="76.308" height="90.512" fill="rgba(0,0,0,0)" stroke="#1faaff" stroke-width="1.6"/>
    </clipPath>
  </defs>
  <g id="Group_142" data-name="Group 142">
    <g id="Group_141" data-name="Group 141" clip-path="url(#clip-path)">
      <line id="Line_55" data-name="Line 55" x2="3.056" y2="0.337" transform="translate(72.227 43.014)" fill="none" stroke="#1faaff" stroke-linecap="round" stroke-linejoin="round" stroke-width="1.6"/>
    </g>
  </g>
  <line id="Line_56" data-name="Line 56" x2="7.794" y2="0.685" transform="translate(60.439 42.046)" fill="none" stroke="#1faaff" stroke-linecap="round" stroke-linejoin="round" stroke-width="1.6"/>
  <g id="Group_144" data-name="Group 144">
    <g id="Group_143" data-name="Group 143" clip-path="url(#clip-path)">
      <line id="Line_57" data-name="Line 57" y1="0.564" x2="1.489" transform="translate(70.957 33.92)" fill="none" stroke="#1faaff" stroke-linecap="round" stroke-linejoin="round" stroke-width="1.6"/>
    </g>
  </g>
  <line id="Line_58" data-name="Line 58" y1="1.828" x2="5.534" transform="translate(60.569 36.014)" fill="none" stroke="#1faaff" stroke-linecap="round" stroke-linejoin="round" stroke-width="1.6"/>
  <line id="Line_59" data-name="Line 59" x1="5.792" y1="3.286" transform="translate(59.489 45.832)" fill="none" stroke="#1faaff" stroke-linecap="round" stroke-linejoin="round" stroke-width="1.6"/>
  <line id="Line_60" data-name="Line 60" x1="1.237" y1="0.702" transform="translate(68.982 51.217)" fill="none" stroke="#1faaff" stroke-linecap="round" stroke-linejoin="round" stroke-width="1.6"/>
  <g id="Group_146" data-name="Group 146">
    <g id="Group_151" data-name="Group 151">
      <path id="Path_527" data-name="Path 527" d="M10.11,62.126a7.869,7.869,0,0,1,1.813-3.048c.756-.9,1.539-1.772,2.334-2.636a6.37,6.37,0,0,1,2.853-2.095,4.611,4.611,0,0,1,3.665.847,24,24,0,0,1,2.875,2.6c3.683,3.485,8.724,6.586,13.726,5.755,6.378-1.059,9.661,1.531,10.792,4.252,4.106,9.88-4.889,23.817-20.811,20.651-2.9-.576-6.322-2.134-6.8-5.051-.489-2.979,1.643-6.206.308-8.914A7.715,7.715,0,0,0,18.7,72.109c-2.175-1.8-4.362-3.579-6.525-5.389C10.8,65.57,9.629,64.074,10.11,62.126Z" transform="translate(-8.861 -48.061)" fill="rgba(0,0,0,0)" stroke="#1faaff" stroke-linecap="round" stroke-linejoin="round" stroke-width="1.6"/>
      <path id="Path_528" data-name="Path 528" d="M91.041,368.766a3.4,3.4,0,0,1,2.532-1.52,9.683,9.683,0,0,1,3.045.344c5.628,1.236,11.722,2.173,16.981-.181,2.866-1.283,5.3-3.479,8.3-4.423,3.695-1.165,12.526-2.045,12.709,7.611a63.1,63.1,0,0,1-1.467,10.855,36.948,36.948,0,0,0-.544,6.992l-.106,17.667a3.444,3.444,0,0,1-4.127,4.207,62.189,62.189,0,0,1-12.761-.508,3.525,3.525,0,0,1-2.748-1.533,3.672,3.672,0,0,1-.238-1.589q0-4.139-.009-8.278a46.857,46.857,0,0,1,.176-5.04,19.286,19.286,0,0,0,.277-5.434c-.55-3.062-3.181-5.423-6.1-6.506-1.665-.618-3.433-.894-5.15-1.349a25.446,25.446,0,0,1-7.268-3.211C93.151,375.971,88.686,372.515,91.041,368.766Z" transform="translate(-80.077 -321.035)" fill="rgba(0,0,0,0)" stroke="#1faaff" stroke-linecap="round" stroke-linejoin="round" stroke-width="1.6"/>
      <path id="Path_529" data-name="Path 529" d="M396.634,192.7a2.018,2.018,0,0,1,.55-1.143,1.957,1.957,0,0,1,.906-.385c3.19-.667,6.482,1.194,8.451,3.791a10.194,10.194,0,0,1,2.159,5.473,7.131,7.131,0,0,1-1.95,5.454,2.589,2.589,0,0,1-2.078.9,2.867,2.867,0,0,1-1.38-.745,20.78,20.78,0,0,1-4.8-6.748C397.306,196.967,396.033,195.571,396.634,192.7Z" transform="translate(-351.333 -169.285)" fill="rgba(0,0,0,0)" stroke="#1faaff" stroke-linecap="round" stroke-linejoin="round" stroke-width="1.6"/>
      <path id="Path_530" data-name="Path 530" d="M302.36,245.459l2.714,1.4,3.039.292,1.527,2.643,2.4,1.888-.144,3.049,1,2.885-1.77,2.487-.721,2.966-2.833,1.136-2.21,2.105-3-.576-3,.576-2.21-2.105-2.833-1.136L293.6,260.1l-1.77-2.487,1-2.885-.144-3.049,2.4-1.888,1.527-2.643,3.039-.292Z" transform="translate(-258.597 -217.509)" fill="#fff" stroke="#1faaff" stroke-width="1.6"/>
      <path id="Path_531" data-name="Path 531" d="M302.36,245.459l2.714,1.4,3.039.292,1.527,2.643,2.4,1.888-.144,3.049,1,2.885-1.77,2.487-.721,2.966-2.833,1.136-2.21,2.105-3-.576-3,.576-2.21-2.105-2.833-1.136L293.6,260.1l-1.77-2.487,1-2.885-.144-3.049,2.4-1.888,1.527-2.643,3.039-.292Z" transform="translate(-258.597 -217.509)" fill="rgba(0,0,0,0)" stroke="#1faaff" stroke-linecap="round" stroke-linejoin="round" stroke-width="1.6"/>
      <line id="Line_61" data-name="Line 61" y1="11.596" x2="9.013" transform="translate(34.094 40.126)" fill="none" stroke="#1faaff" stroke-linecap="round" stroke-linejoin="round" stroke-width="1.6"/>
      <path id="Path_532" data-name="Path 532" d="M265,457.157a2.389,2.389,0,1,1,3.057-3.671l.043.036a2.389,2.389,0,1,1-3.057,3.671Z" transform="translate(-234.06 -401.357)" fill="#fff" stroke="#1faaff" stroke-width="1.6"/>
      <path id="Path_533" data-name="Path 533" d="M265,457.157a2.389,2.389,0,1,1,3.057-3.671l.043.036a2.389,2.389,0,1,1-3.057,3.671l-.043-.036" transform="translate(-234.06 -401.357)" fill="rgba(0,0,0,0)" stroke="#1faaff" stroke-width="1.6"/>
      <path id="Path_534" data-name="Path 534" d="M264.69,453.793a2.389,2.389,0,0,1,3.364-.307l.043.036a2.389,2.389,0,1,1-3.057,3.671l-.043-.036A2.389,2.389,0,0,1,264.69,453.793Z" transform="translate(-234.06 -401.357)" fill="rgba(0,0,0,0)" stroke="#1faaff" stroke-linecap="round" stroke-linejoin="round" stroke-width="1.6"/>
      <path id="Path_535" data-name="Path 535" d="M158.8,491.43l9.067-11.385a2.013,2.013,0,0,1,2.828-.321l2.021,1.609a2.013,2.013,0,0,1,.321,2.828l-9.088,11.411-2.741,3.442" transform="translate(-140.721 -424.709)" fill="#fff" stroke="#1faaff" stroke-width="1.6"/>
      <path id="Path_536" data-name="Path 536" d="M158.8,491.43l9.067-11.385a2.013,2.013,0,0,1,2.828-.321l2.021,1.609a2.013,2.013,0,0,1,.321,2.828l-9.088,11.411-2.741,3.442" transform="translate(-140.721 -424.709)" fill="rgba(0,0,0,0)" stroke="#1faaff" stroke-width="1.6"/>
      <path id="Path_537" data-name="Path 537" d="M158.8,491.43l9.067-11.385a2.013,2.013,0,0,1,2.828-.321l2.021,1.609a2.013,2.013,0,0,1,.321,2.828l-9.088,11.411-2.741,3.442" transform="translate(-140.721 -424.709)" fill="rgba(0,0,0,0)" stroke="#1faaff" stroke-linecap="round" stroke-linejoin="round" stroke-width="1.6"/>
    </g>
  </g>
  <g id="Group_148" data-name="Group 148">
    <g id="Group_150" data-name="Group 150">
      <path id="Path_538" data-name="Path 538" d="M146.185,11.949l23.633,28.994s-10.355-2.071-12.3-6.7c-.609-2.558.487-3.655.487-3.655L142.165,13.776s-1.584-1.684-.253-3.08c1.315-1.38,2.759-.578,4.274,1.252" transform="translate(-125.28 -8.862)" fill="#fff" stroke="#1faaff" stroke-width="1.6"/>
      <path id="Path_539" data-name="Path 539" d="M146.185,11.949l23.633,28.994s-10.355-2.071-12.3-6.7c-.609-2.558.487-3.655.487-3.655L142.165,13.776s-1.584-1.684-.253-3.08C143.227,9.317,144.67,10.119,146.185,11.949Z" transform="translate(-125.28 -8.862)" fill="rgba(0,0,0,0)" stroke="#1faaff" stroke-linecap="round" stroke-linejoin="round" stroke-width="1.6"/>
      <line id="Line_62" data-name="Line 62" y1="1.599" x2="2.025" transform="translate(32.721 20.127)" fill="#fff" stroke="#1faaff" stroke-width="1.6"/>
      <line id="Line_63" data-name="Line 63" y1="1.599" x2="2.025" transform="translate(32.721 20.127)" fill="none" stroke="#1faaff" stroke-linecap="round" stroke-linejoin="round" stroke-width="1.6"/>
      <path id="Path_540" data-name="Path 540" d="M105.461,170.2a3.332,3.332,0,0,0,.735,1.034c.862.82,1.982,1.311,2.9,2.077a8.481,8.481,0,0,1,3.016,6.349,23.084,23.084,0,0,0,.018,3.472,4.453,4.453,0,0,0,2.254,3.049l.281.144.294.124c.157.06.45.15.619.192-.109,0-.219,0-.33,0l-.331-.027-.329-.059-.326-.085a4.549,4.549,0,0,1-2.926-2.793,7.953,7.953,0,0,1-.34-2.721,8.975,8.975,0,0,0-3.168-7.653,10.14,10.14,0,0,1-1.874-1.872,2.936,2.936,0,0,1-.493-1.234" transform="translate(-93.452 -150.815)" fill="#1faaff"/>
      <path id="Path_541" data-name="Path 541" d="M334.734,554.685q.143.106.282.215l.007.014a10.077,10.077,0,0,1,.513,1.194,19.53,19.53,0,0,1,.748,7.728c-.157,2.11-.373,4.272-.649,6.361a4.289,4.289,0,0,0,.167,2.317,1.672,1.672,0,0,0,1.95.962,1.258,1.258,0,0,1-.616.233,2.093,2.093,0,0,1-1.805-.907,4.449,4.449,0,0,1-.581-2.666c.056-1.719.16-3.414.3-5.117.307-3.353.615-6.741-.115-10.071l.011.017q-.108-.138-.212-.279" transform="translate(-296.618 -491.523)" fill="#1faaff"/>
      <path id="Path_542" data-name="Path 542" d="M413.31,475.83a25.934,25.934,0,0,1-.38,5.331,25.62,25.62,0,0,1-1.306,5.183,21.281,21.281,0,0,1,1.686-10.514" transform="translate(-364.653 -421.647)" fill="#1faaff"/>
      <path id="Path_543" data-name="Path 543" d="M213.382,179.883a8.351,8.351,0,0,0,1.463,1.705c.3.263.572.427.892.7a2.15,2.15,0,0,1,.713,2.024c-.141,1-.382,1.576.2,2.484.186.319.423.633.641.975a3.148,3.148,0,0,1-1.864-1.658,7.553,7.553,0,0,1-.1-2.368c-.021-.451-.4-.738-.728-1.072a4.051,4.051,0,0,1-1.216-2.788" transform="translate(-189.084 -159.4)" fill="#1faaff"/>
      <path id="Path_544" data-name="Path 544" d="M413.76,714.224c.5,1.151.9,2.863.285,4.031-.223.436-.873.966-1.351.574.514-.165.517-.822.529-1.268a5.973,5.973,0,0,1,.537-3.337" transform="translate(-365.7 -632.895)" fill="#1faaff"/>
      <path id="Path_545" data-name="Path 545" d="M151.951,454.149a4.753,4.753,0,0,1,5.251.514,10.105,10.105,0,0,1-5.251-.514" transform="translate(-134.648 -401.936)" fill="#1faaff"/>
      <path id="Path_546" data-name="Path 546" d="M82.553,108.061c-.125-.225.195-.4.375-.416a1.838,1.838,0,0,1,1.261.527,2.311,2.311,0,0,1,.823,1.459,2.123,2.123,0,0,1-.89-.174,2.578,2.578,0,0,1-1.192-1.027,1.061,1.061,0,0,0-.2-.361.121.121,0,0,0-.174-.009" transform="translate(-73.128 -95.381)" fill="#1faaff"/>
    </g>
  </g>
</svg>
