<svg xmlns="http://www.w3.org/2000/svg" width="91.459" height="79.229" viewBox="0 0 91.459 79.229">
  <g id="Group_174" data-name="Group 174" transform="translate(1.102 0.814)">
    <g id="Group_175" data-name="Group 175" transform="translate(0 0)">
      <path id="Path_581" data-name="Path 581" d="M42.264,10s-.295,16.641-1.178,21.5S40.5,51.53,45.651,56.39c6.627,5.6,17.806,11.57,21.648,14.138,3.393,2.267,4.837,3.721,9.573,3.24,6.967-.707,12.212-2.2,11.747,3.144-.266,3.054-9.168,6.436-18.591,6.773-3.718.133-33.508-1.522-40.577-1.669s-17.82,2.5-16.789-8.1S16.2,58.893,16.05,51.235s-.736-12.518-.736-12.518a75.885,75.885,0,0,1-5.3-28.276" transform="translate(0.91 -10)" fill="none" stroke="#1faaff" stroke-linecap="round" stroke-linejoin="round" stroke-width="1.6"/>
      <path id="Path_582" data-name="Path 582" d="M403.24,10.295s-1.178,37.848-.442,40.351,2.209,4.418,2.209,6.922-.589,2.209-2.062,3.093a15.225,15.225,0,0,1-3.093,1.62c-1.767.736-5.744,1.325-5.744-2.651s1.62-4.713,1.326-13.7S394.845,10,394.845,10" transform="translate(-368.166 -10)" fill="none" stroke="#1faaff" stroke-linecap="round" stroke-linejoin="round" stroke-width="1.6"/>
      <path id="Path_583" data-name="Path 583" d="M149.668,310.476s-14.581,1.519-16.2.93-9.56-2.618-11.916-2.323-10.162-1.62-12.223-3.24-8.983-1.473-8.983-.147,3.093,2.8.589,4.271-11.487.736-10.309-3.682,2.651-9.573,2.356-15.316-.295-11.634-.295-11.634" transform="translate(-71.161 -242.37)" fill="none" stroke="#1faaff" stroke-linecap="round" stroke-linejoin="round" stroke-width="1.6"/>
      <path id="Path_584" data-name="Path 584" d="M185.267,373.96s-6.526-1.483-9.03-5.165-11.782-7.805-16.347-8.1-4.418-6.922-6.48-8.394" transform="translate(-115.392 -305.322)" fill="none" stroke="#1faaff" stroke-linecap="round" stroke-linejoin="round" stroke-width="1.6"/>
      <path id="Path_585" data-name="Path 585" d="M271.178,249.487l-3.271,1.684-3.662.351-1.841,3.185-2.891,2.276.173,3.675-1.2,3.477,2.133,3,.869,3.575,3.415,1.369,2.664,2.538,3.613-.695,3.613.695,2.664-2.538,3.415-1.369.869-3.575,2.133-3-1.2-3.477.173-3.675-2.891-2.276-1.841-3.185-3.662-.351Z" transform="translate(-228.417 -216.619)" fill="#fff" stroke="#707070" stroke-width="1.6"/>
      <path id="Path_586" data-name="Path 586" d="M271.178,249.487l-3.271,1.684-3.662.351-1.841,3.185-2.891,2.276.173,3.675-1.2,3.477,2.133,3,.869,3.575,3.415,1.369,2.664,2.538,3.613-.695,3.613.695,2.664-2.538,3.415-1.369.869-3.575,2.133-3-1.2-3.477.173-3.675-2.891-2.276-1.841-3.185-3.662-.351Z" transform="translate(-228.417 -216.619)" fill="none" stroke="#1faaff" stroke-linecap="round" stroke-linejoin="round" stroke-width="1.6"/>
      <line id="Line_88" data-name="Line 88" y1="2.524" x2="2.713" transform="translate(66.676 21.701)" fill="none" stroke="#1faaff" stroke-linecap="round" stroke-linejoin="round" stroke-width="1.6"/>
      <line id="Line_89" data-name="Line 89" y1="6.268" x2="7.045" transform="translate(55.971 27.372)" fill="none" stroke="#1faaff" stroke-linecap="round" stroke-linejoin="round" stroke-width="1.6"/>
      <line id="Line_90" data-name="Line 90" y1="0.525" x2="1.846" transform="translate(71.582 32.863)" fill="none" stroke="#1faaff" stroke-linecap="round" stroke-linejoin="round" stroke-width="1.6"/>
      <line id="Line_91" data-name="Line 91" y1="2.213" x2="6.667" transform="translate(59.12 35.399)" fill="none" stroke="#1faaff" stroke-linecap="round" stroke-linejoin="round" stroke-width="1.6"/>
      <line id="Line_92" data-name="Line 92" x1="3.239" y2="7.344" transform="translate(52.329 23.317)" fill="none" stroke="#1faaff" stroke-linecap="round" stroke-linejoin="round" stroke-width="1.6"/>
      <line id="Line_93" data-name="Line 93" x1="0.692" y2="1.568" transform="translate(57.637 17.057)" fill="none" stroke="#1faaff" stroke-linecap="round" stroke-linejoin="round" stroke-width="1.6"/>
      <line id="Line_94" data-name="Line 94" x1="14.917" y2="9.53" transform="translate(24.565 47.629)" fill="none" stroke="#1faaff" stroke-linecap="round" stroke-linejoin="round" stroke-width="1.6"/>
      <path id="Path_587" data-name="Path 587" d="M482.793,423.611l.034.059a2.879,2.879,0,1,0,4.954-2.935l-.034-.059a2.879,2.879,0,1,0-4.954,2.935" transform="translate(-463.458 -363.095)" fill="#fff" stroke="#707070" stroke-width="1.6"/>
      <path id="Path_588" data-name="Path 588" d="M482.793,423.611l.034.059a2.879,2.879,0,1,0,4.954-2.935l-.034-.059a2.879,2.879,0,1,0-4.954,2.935" transform="translate(-463.458 -363.095)" fill="none" stroke="#707070" stroke-width="1.6"/>
      <path id="Path_589" data-name="Path 589" d="M482.793,423.611l.034.059a2.879,2.879,0,1,0,4.954-2.935l-.034-.059a2.879,2.879,0,1,0-4.954,2.935Z" transform="translate(-463.458 -363.095)" fill="none" stroke="#1faaff" stroke-linecap="round" stroke-linejoin="round" stroke-width="1.6"/>
      <path id="Path_590" data-name="Path 590" d="M512.636,452.5l4.5-2.8,14.927-9.289a2.426,2.426,0,0,0,.777-3.342l-1.645-2.644a2.427,2.427,0,0,0-3.342-.777l-14.893,9.269" transform="translate(-512.636 -375.186)" fill="#fff" stroke="#707070" stroke-width="1.6"/>
      <path id="Path_591" data-name="Path 591" d="M512.636,452.5l4.5-2.8,14.927-9.289a2.426,2.426,0,0,0,.777-3.342l-1.645-2.644a2.427,2.427,0,0,0-3.342-.777l-14.893,9.269" transform="translate(-512.636 -375.186)" fill="none" stroke="#707070" stroke-width="1.6"/>
      <path id="Path_592" data-name="Path 592" d="M512.636,452.5l4.5-2.8,14.927-9.289a2.426,2.426,0,0,0,.777-3.342l-1.645-2.644a2.427,2.427,0,0,0-3.342-.777l-14.893,9.269" transform="translate(-512.636 -375.186)" fill="none" stroke="#1faaff" stroke-linecap="round" stroke-linejoin="round" stroke-width="1.6"/>
      <path id="Path_593" data-name="Path 593" d="M498.463,49.971a59.127,59.127,0,0,1-1.129,16.037,74.471,74.471,0,0,0-1.961,9.556l.8-.016c-.238-1.736-.474-3.486-.878-5.216a35.041,35.041,0,0,0-1.65-5.037q-.948-2.449-1.791-4.931c-.563-1.657-1.088-3.328-1.6-5.008.354,1.718.774,3.424,1.244,5.116s1,3.372,1.577,5.029a39.579,39.579,0,0,1,1.49,4.99c.354,1.7.575,3.433.8,5.162a.4.4,0,0,0,.8-.016,94.158,94.158,0,0,1,1.891-9.477,47.99,47.99,0,0,0,.4-16.191" transform="translate(-475.323 -44.485)" fill="#1faaff"/>
    </g>
  </g>
</svg>
