<svg xmlns="http://www.w3.org/2000/svg" width="79.603" height="79.727" viewBox="0 0 79.603 79.727">
  <g id="Group_162" data-name="Group 162" transform="translate(0.038 0.051)">
    <g id="Group_163" data-name="Group 163" transform="translate(0.962 0.962)">
      <path id="Path_561" data-name="Path 561" d="M43.627,54.113,29.875,40.06s-3.513-3.011-7.227-2.108S11.506,39.257,10,30.123c0-2.911,1.405-9.737,9.737-10.138,0,0-.7-7.227,7.227-9.737,9.134-1.807,11.644,6.826,11.443,8.733s-.8,7.026.4,9.235S67.718,57.928,67.718,57.928a9.964,9.964,0,0,0,7.93,2.108c4.517-.9,11.744,1.2,11.945,7.227S84.983,77.3,78.057,78.4c0,0,.6,11.142-12.648,9.034-3.413-.9-5.42-2.71-5.922-9.135s1.807-6.525-1.907-10.54S43.627,54.113,43.627,54.113Z" transform="translate(-10 -10.001)" fill="none" stroke="#1faaff" stroke-linecap="round" stroke-linejoin="round" stroke-width="2"/>
      <path id="Path_562" data-name="Path 562" d="M293.209,224.84l-2.981,2.981a2.359,2.359,0,0,1-3.336,0l-22.358-22.358a2.359,2.359,0,0,1,0-3.336l2.981-2.981a2.359,2.359,0,0,1,3.336,0L293.209,221.5a2.359,2.359,0,0,1,0,3.336" transform="translate(-236.16 -177.903)" fill="#fff" stroke="#707070" stroke-width="2"/>
      <path id="Path_563" data-name="Path 563" d="M293.209,224.84l-2.981,2.981a2.359,2.359,0,0,1-3.336,0l-22.358-22.358a2.359,2.359,0,0,1,0-3.336l2.981-2.981a2.359,2.359,0,0,1,3.336,0L293.209,221.5A2.359,2.359,0,0,1,293.209,224.84Z" transform="translate(-236.16 -177.903)" fill="none" stroke="#1faaff" stroke-linecap="round" stroke-linejoin="round" stroke-width="2"/>
      <line id="Line_70" data-name="Line 70" x1="3.915" y2="4.015" transform="translate(35.333 23.133)" fill="#fff" stroke="#707070" stroke-width="2"/>
      <line id="Line_71" data-name="Line 71" x1="3.915" y2="4.015" transform="translate(35.333 23.133)" fill="none" stroke="#1faaff" stroke-linecap="round" stroke-linejoin="round" stroke-width="2"/>
      <line id="Line_72" data-name="Line 72" x1="3.915" y2="4.015" transform="translate(50.992 39.294)" fill="#fff" stroke="#707070" stroke-width="2"/>
      <line id="Line_73" data-name="Line 73" x1="3.915" y2="4.015" transform="translate(50.992 39.294)" fill="none" stroke="#1faaff" stroke-linecap="round" stroke-linejoin="round" stroke-width="2"/>
      <line id="Line_74" data-name="Line 74" x1="3.915" y2="4.015" transform="translate(45.572 33.874)" fill="#fff" stroke="#707070" stroke-width="2"/>
      <line id="Line_75" data-name="Line 75" x1="3.915" y2="4.015" transform="translate(45.572 33.874)" fill="none" stroke="#1faaff" stroke-linecap="round" stroke-linejoin="round" stroke-width="2"/>
      <line id="Line_76" data-name="Line 76" x1="3.915" y2="4.015" transform="translate(40.152 28.453)" fill="#fff" stroke="#707070" stroke-width="2"/>
      <line id="Line_77" data-name="Line 77" x1="3.915" y2="4.015" transform="translate(40.152 28.453)" fill="none" stroke="#1faaff" stroke-linecap="round" stroke-linejoin="round" stroke-width="2"/>
      <path id="Path_564" data-name="Path 564" d="M324.172,361.116l.1,3.814-5.621-1-.3,3.011" transform="translate(-284.723 -322.825)" fill="#fff" stroke="#707070" stroke-width="2"/>
      <path id="Path_565" data-name="Path 565" d="M324.172,361.116l.1,3.814-5.621-1-.3,3.011" transform="translate(-284.723 -322.825)" fill="none" stroke="#1faaff" stroke-linecap="round" stroke-linejoin="round" stroke-width="2"/>
      <path id="Path_566" data-name="Path 566" d="M64.092,160.066c-.9,2.251-.383,5.049,1.953,6.141a8.833,8.833,0,0,0,2.786.492,16.8,16.8,0,0,0,2.927-.087c.51-.053,1.006-.155,1.536-.182,2.019-.088,4.29,1.237,5.695,2.6a9.163,9.163,0,0,1,1.811,2.485,13.083,13.083,0,0,0-1.024-1.113,11.239,11.239,0,0,0-4.375-2.639,4.991,4.991,0,0,0-2.036-.3,26.334,26.334,0,0,1-3.036.345,15.124,15.124,0,0,1-3.126-.235,5.593,5.593,0,0,1-1.574-.5,4.808,4.808,0,0,1-1.538-7" transform="translate(-57.398 -143.701)" fill="#1faaff"/>
      <path id="Path_567" data-name="Path 567" d="M181.788,65.147c-.1-.042-.034-.17.027-.218a.445.445,0,0,1,.235-.111c.153-.035.307-.064.463-.088a3.919,3.919,0,0,1,4.317,1.952,4.816,4.816,0,0,1,.306,2.008q.008,1.839-.1,3.679c-.039.613-.088,1.227-.154,1.84-.034.305-.07.616-.112.917-.024.268-.058.627.245.753a.351.351,0,0,1-.231-.074,1.043,1.043,0,0,1-.318-.672c-.046-.312-.084-.614-.12-.922a51.118,51.118,0,0,1-.3-5.517,4.614,4.614,0,0,0-.167-1.614A3.384,3.384,0,0,0,183.4,65.2a9.317,9.317,0,0,0-1.394-.22c-.086-.018-.307.065-.217.172" transform="translate(-163.008 -58.7)" fill="#1faaff"/>
      <path id="Path_568" data-name="Path 568" d="M497.395,521.407c.039,1.026.948,1.575,1.509,2.36a5.33,5.33,0,0,1,.874,2.9,23.193,23.193,0,0,1-.139,4.388,3.458,3.458,0,0,0,.346,2.416,5.182,5.182,0,0,0,3.257,1.971,3.667,3.667,0,0,0,1.61-.1,3.268,3.268,0,0,0,2.33-2.686,2.715,2.715,0,0,1-.21,1.456,3.786,3.786,0,0,1-3.82,2.179,5.348,5.348,0,0,1-4.45-2.979c-.437-1.254-.064-2.555.047-3.8.1-.937.157-1.881.175-2.826a5.19,5.19,0,0,0-.468-2.634c-.42-.794-1.287-1.652-1.061-2.649" transform="translate(-444.21 -465.636)" fill="#1faaff"/>
    </g>
  </g>
</svg>
