<svg xmlns="http://www.w3.org/2000/svg" xmlns:xlink="http://www.w3.org/1999/xlink" width="67.33" height="103.661" viewBox="0 0 67.33 103.661">
  <defs>
    <clipPath id="clip-path">
      <rect id="Rectangle_31" data-name="Rectangle 31" width="66.553" height="103.661" fill="none" stroke="#707070" stroke-width="2"/>
    </clipPath>
  </defs>
  <g id="Group_33" data-name="Group 33" transform="translate(0.764 0.855)">
    <g id="Group_114" data-name="Group 114" transform="translate(0.013 -0.855)">
      <g id="Group_109" data-name="Group 109">
        <g id="Group_108" data-name="Group 108" clip-path="url(#clip-path)">
          <line id="Line_37" data-name="Line 37" y1="1.188" x2="3.991" transform="translate(61.521 57.427)" fill="none" stroke="#1faaff" stroke-linecap="round" stroke-linejoin="round" stroke-width="2"/>
        </g>
      </g>
      <line id="Line_38" data-name="Line 38" y1="2.796" x2="10.218" transform="translate(46.05 59.956)" fill="none" stroke="#1faaff" stroke-linecap="round" stroke-linejoin="round" stroke-width="2"/>
      <g id="Group_111" data-name="Group 111">
        <g id="Group_110" data-name="Group 110" clip-path="url(#clip-path)">
          <line id="Line_39" data-name="Line 39" x2="2.12" y2="0.392" transform="translate(61.89 70.285)" fill="none" stroke="#1faaff" stroke-linecap="round" stroke-linejoin="round" stroke-width="2"/>
        </g>
      </g>
      <line id="Line_40" data-name="Line 40" x2="7.815" y2="1.097" transform="translate(47.238 68.322)" fill="none" stroke="#1faaff" stroke-linecap="round" stroke-linejoin="round" stroke-width="2"/>
      <line id="Line_41" data-name="Line 41" x1="6.923" y2="5.778" transform="translate(43.868 52.16)" fill="none" stroke="#1faaff" stroke-linecap="round" stroke-linejoin="round" stroke-width="2"/>
      <line id="Line_42" data-name="Line 42" x1="1.478" y2="1.234" transform="translate(55.214 47.235)" fill="none" stroke="#1faaff" stroke-linecap="round" stroke-linejoin="round" stroke-width="2"/>
      <g id="Group_113" data-name="Group 113">
        <g id="Group_115" data-name="Group 115">
          <path id="Path_497" data-name="Path 497" d="M32.039,76.719l-.9-5.907s-7.867-9.348-7.127-20.084c-.185-2.314-1.388-4.072-.278-8.145,0,0-1.481-15.457-1.388-18.973s1.666-3.517,2.314-3.7A2.385,2.385,0,0,1,27.521,21.9s-1.2-6.917,0-8.987,4.412-2.342,5.174.109c0,0-.817-3.922,2.179-4.9,3.976-.817,4.085,2.723,4.412,6.046,0,0,.327-4.194,3.649-3.213S46.911,21.3,46.911,21.3s2.505,7.789,1.906,14.6a14.14,14.14,0,0,1,.436,3.813s2.07,5.937,3.214,7.407c0,0,2.614-4.3,3.05-4.848s.163-6.754,6.59-8.933c1.634-.327,4.194.708,3.1,2.941s-1.906,1.961-2.342,4.248a16.247,16.247,0,0,1-2.288,5.447c-.871,1.47-.926,5.773-.926,6.7s-.218,2.07-2.451,4.248S53.12,62.7,52.14,64s-1.688,5.229-10.294,4.085" transform="translate(-19.753 -7.075)" fill="rgba(0,0,0,0)" stroke="#1faaff" stroke-linecap="round" stroke-linejoin="round" stroke-width="1.6"/>
          <line id="Line_43" data-name="Line 43" x1="1.615" y1="10.554" transform="translate(15.135 88.261)" fill="none" stroke="#1faaff" stroke-linecap="round" stroke-linejoin="round" stroke-width="1.6"/>
          <path id="Path_498" data-name="Path 498" d="M263.353,517.734s.8,5.015,2.488,11.975" transform="translate(-232.872 -457.81)" fill="rgba(0,0,0,0)" stroke="#1faaff" stroke-linecap="round" stroke-linejoin="round" stroke-width="1.6"/>
          <path id="Path_499" data-name="Path 499" d="M69.208,141.974s-1.522-6.146-1.3-7.33-.846-9.585-.846-9.585" transform="translate(-59.303 -110.584)" fill="rgba(0,0,0,0)" stroke="#1faaff" stroke-linecap="round" stroke-linejoin="round" stroke-width="1.6"/>
          <path id="Path_500" data-name="Path 500" d="M114.5,70.231s-1.748-5.582-1.579-9.473S111.4,47.113,111.4,47.113" transform="translate(-98.503 -41.66)" fill="rgba(0,0,0,0)" stroke="#1faaff" stroke-linecap="round" stroke-linejoin="round" stroke-width="1.6"/>
          <path id="Path_501" data-name="Path 501" d="M167.906,59.779s1.071,6.259,1.353,8.289,2.255,11.221,1.522,12.687" transform="translate(-148.472 -52.86)" fill="rgba(0,0,0,0)" stroke="#1faaff" stroke-linecap="round" stroke-linejoin="round" stroke-width="1.6"/>
          <path id="Path_502" data-name="Path 502" d="M95.32,546.937a4.181,4.181,0,0,0,3.071.864" transform="translate(-84.287 -483.633)" fill="rgba(0,0,0,0)" stroke="#1faaff" stroke-linecap="round" stroke-linejoin="round" stroke-width="1.6"/>
          <path id="Path_503" data-name="Path 503" d="M174.718,322.844s-8.514,4.172-5.357,19.791" transform="translate(-149.139 -285.477)" fill="rgba(0,0,0,0)" stroke="#1faaff" stroke-linecap="round" stroke-linejoin="round" stroke-width="1.6"/>
          <path id="Path_504" data-name="Path 504" d="M70.784,240.593c-1.368-.286-3.521-.7-4.764.037a1.372,1.372,0,0,0-.405.4.345.345,0,0,1-.324.153c-1.031-.031-2.073-.053-3.1-.045a13.25,13.25,0,0,0-2.6.189,1.251,1.251,0,0,0-.126.042c-.032.011-.049.03-.02,0-.5.347-1.041.629-1.566.931a23.408,23.408,0,0,1-3.915,1.818,4.884,4.884,0,0,1-.9.2l.212-.122c-.87.96-2.418,2.561-3.747,2.652a3.5,3.5,0,0,0,1.408-.911,13.566,13.566,0,0,0,1.146-1.245c.239-.289.471-.593.685-.891a.3.3,0,0,1,.212-.122,7.136,7.136,0,0,0,1.5-.565c1-.481,1.983-1.039,2.95-1.6.483-.285.971-.573,1.443-.866l-.083.066a1.782,1.782,0,0,1,.992-.371,27.591,27.591,0,0,1,5.563.1l-.324.153c1.253-1.592,4.22-.71,5.767-.011" transform="translate(-43.795 -211.966)" fill="#1faaff"/>
          <path id="Path_505" data-name="Path 505" d="M40.271,280.872a23.889,23.889,0,0,0,2.8-.721,6.154,6.154,0,0,0,1.848-.9,1.489,1.489,0,0,0,.381-.433.341.341,0,0,1,.231-.174c.631-.129,1.269-.279,1.9-.439a17.889,17.889,0,0,0,2.682-.867,2.832,2.832,0,0,0,.864-.533,15.571,15.571,0,0,0,.891-1.336c.681-1.091,1.363-2.195,2.1-3.265a16.4,16.4,0,0,1,2.139-2.67,1.624,1.624,0,0,1,.406-.277A3.126,3.126,0,0,0,55.9,270c-.348.54-.659,1.1-.97,1.666-1.028,1.84-1.949,3.742-3.1,5.521a1.975,1.975,0,0,1-.411.45,8.19,8.19,0,0,1-2.839,1.186,24.9,24.9,0,0,1-2.9.566l.266-.182c-.966,1.446-4.078,1.687-5.684,1.667" transform="translate(-35.61 -238.093)" fill="#1faaff"/>
          <path id="Path_506" data-name="Path 506" d="M129.622,325.767a83.907,83.907,0,0,1-7.85,3.74,21.662,21.662,0,0,0-2.435,1.171l-.147.108c1.6-2,7.845-4.428,10.431-5.018" transform="translate(-105.396 -288.062)" fill="#1faaff"/>
          <path id="Path_507" data-name="Path 507" d="M119.191,95.249a26.2,26.2,0,0,0,4.567-.395c-1,1.295-3.286,1.227-4.567.395" transform="translate(-105.396 -83.875)" fill="#1faaff"/>
          <path id="Path_508" data-name="Path 508" d="M125.036,167.461a11.986,11.986,0,0,1,2.482-.318c.407-.02.812-.029,1.215-.043a4.5,4.5,0,0,0,1.209-.146c-.829,1.146-3.719,1.03-4.905.507" transform="translate(-110.564 -147.63)" fill="#1faaff"/>
          <path id="Path_510" data-name="Path 510" d="M180.085,118.464a11.777,11.777,0,0,1,2.405-.153l1.165.024a4,4,0,0,0,1.166-.1c-.852,1.134-3.613.839-4.736.226" transform="translate(-159.242 -104.553)" fill="#1faaff"/>
          <path id="Path_511" data-name="Path 511" d="M190.8,178.545a17.347,17.347,0,0,1,2.683.138,13.319,13.319,0,0,0,2.618.144c-1.228,1.061-4.023.516-5.3-.282" transform="translate(-168.719 -157.868)" fill="#1faaff"/>
          <path id="Path_512" data-name="Path 512" d="M67.118,123.685a12.739,12.739,0,0,1,2.416-.343,16.606,16.606,0,0,0,2.371-.233c-.933,1.156-3.517,1.118-4.786.576" transform="translate(-59.35 -108.86)" fill="#1faaff"/>
          <path id="Path_513" data-name="Path 513" d="M76.321,198.378a11.674,11.674,0,0,1,2.3-.381c.376-.035.748-.063,1.117-.1a3.13,3.13,0,0,0,1.094-.251c-.594,1.263-3.4,1.249-4.511.733" transform="translate(-67.487 -174.769)" fill="#1faaff"/>
          <path id="Path_514" data-name="Path 514" d="M24.682,183.153a10.314,10.314,0,0,1,3.18.037,5.588,5.588,0,0,0,1.048.076c-.868.9-3.261.512-4.229-.113" transform="translate(-21.825 -161.856)" fill="#1faaff"/>
          <path id="Path_515" data-name="Path 515" d="M31.015,245.294a22.118,22.118,0,0,1,2.6-.294c.283-.027.562-.069.9-.1a1.794,1.794,0,0,1-.745.625,2.825,2.825,0,0,1-2.751-.231" transform="translate(-27.425 -216.554)" fill="#1faaff"/>
          <path id="Path_516" data-name="Path 516" d="M227.905,346.228c-.389.541-.777,1.083-1.116,1.65a3.678,3.678,0,0,0-.635,1.677.325.325,0,0,1-.256.326c-.467.13-.944.27-1.413.414a25,25,0,0,0-2.767.983,3.152,3.152,0,0,0-1.2.815,1.686,1.686,0,0,1,.412-.651,10.772,10.772,0,0,1,4.809-2.212l-.256.326a1.971,1.971,0,0,1,.106-.583,6.172,6.172,0,0,1,2.315-2.744" transform="translate(-194.996 -306.155)" fill="#1faaff"/>
          <path id="Path_517" data-name="Path 517" d="M165.694,719.208a67.351,67.351,0,0,1,3.43,15.191c.091.864.164,1.73.2,2.6a13.613,13.613,0,0,1-.074,2.625c-.346-1.669-.843-3.384-1.206-5.047a90.425,90.425,0,0,1-2.352-15.372" transform="translate(-146.516 -635.965)" fill="#1faaff"/>
          <path id="Path_518" data-name="Path 518" d="M309,304.087a7.833,7.833,0,0,0,3.275,2.193,5.025,5.025,0,0,0,.58.091c-1.607.59-3.3-.848-3.855-2.284" transform="translate(-273.236 -268.891)" fill="#1faaff"/>
          <path id="Path_519" data-name="Path 519" d="M279.441,348.177c-.162,1.716-.375,3.361.564,4.905-1.784-.878-1.729-3.535-.564-4.905" transform="translate(-246.362 -307.878)" fill="#1faaff"/>
          <path id="Path_520" data-name="Path 520" d="M163.347,497.5l3,1.545,3.359.322,1.689,2.922,2.652,2.087-.159,3.371,1.1,3.189-1.956,2.75-.8,3.279-3.132,1.256-2.443,2.328-3.314-.637-3.314.637-2.443-2.328-3.132-1.256-.8-3.279-1.956-2.75,1.1-3.189-.159-3.371,2.652-2.087,1.689-2.922,3.359-.322Z" transform="translate(-134.146 -439.915)" fill="#fff" stroke="#707070" stroke-width="1.6"/>
          <path id="Path_521" data-name="Path 521" d="M163.347,497.5l3,1.545,3.359.322,1.689,2.922,2.652,2.087-.159,3.371,1.1,3.189-1.956,2.75-.8,3.279-3.132,1.256-2.443,2.328-3.314-.637-3.314.637-2.443-2.328-3.132-1.256-.8-3.279-1.956-2.75,1.1-3.189-.159-3.371,2.652-2.087,1.689-2.922,3.359-.322Z" transform="translate(-134.146 -439.915)" fill="rgba(0,0,0,0)" stroke="#1faaff" stroke-linecap="round" stroke-linejoin="round" stroke-width="1.6"/>
          <line id="Line_44" data-name="Line 44" x2="8.17" y2="10.512" transform="translate(29.318 70.284)" fill="#fff" stroke="#707070" stroke-width="1.6"/>
          <line id="Line_45" data-name="Line 45" x2="8.17" y2="10.512" transform="translate(29.318 70.284)" fill="none" stroke="#1faaff" stroke-linecap="round" stroke-linejoin="round" stroke-width="2"/>
          <path id="Path_522" data-name="Path 522" d="M321.185,700.758l-.039.033a2.165,2.165,0,1,1-2.771-3.328l.039-.033a2.165,2.165,0,1,1,2.771,3.328" transform="translate(-280.836 -616.265)" fill="#fff" stroke="#707070" stroke-width="1.6"/>
          <path id="Path_523" data-name="Path 523" d="M321.185,700.758l-.039.033a2.165,2.165,0,1,1-2.771-3.328l.039-.033a2.165,2.165,0,1,1,2.771,3.328Z" transform="translate(-280.836 -616.265)" fill="rgba(0,0,0,0)" stroke="#1faaff" stroke-linecap="round" stroke-linejoin="round" stroke-width="2"/>
          <path id="Path_524" data-name="Path 524" d="M345.471,738.318l-2.485-3.12-8.238-10.344a1.825,1.825,0,0,1,.291-2.564l1.832-1.459a1.825,1.825,0,0,1,2.564.291l8.219,10.321" transform="translate(-295.652 -637.05)" fill="#fff" stroke="#707070" stroke-width="1.6"/>
          <path id="Path_525" data-name="Path 525" d="M345.471,738.318l-2.485-3.12-8.238-10.344a1.825,1.825,0,0,1,.291-2.564l1.832-1.459a1.825,1.825,0,0,1,2.564.291l8.219,10.321" transform="translate(-295.652 -637.05)" fill="rgba(0,0,0,0)" stroke="#1faaff" stroke-linecap="round" stroke-linejoin="round" stroke-width="2"/>
          <path id="Path_526" data-name="Path 526" d="M34.947,600.369l-24.1,21.982,3.127,7.91" transform="translate(-10.214 -533.421)" fill="rgba(0,0,0,0)" stroke="#1faaff" stroke-linecap="round" stroke-linejoin="round" stroke-width="2"/>
          <line id="Line_46" data-name="Line 46" x1="6.346" y1="5.703" transform="translate(0.635 88.93)" fill="none" stroke="#1faaff" stroke-linecap="round" stroke-linejoin="round" stroke-width="2"/>
          <ellipse id="Ellipse_2" data-name="Ellipse 2" cx="2.118" cy="2.118" rx="2.118" ry="2.118" transform="translate(7.168 91.97)" fill="none" stroke="#1faaff" stroke-linecap="round" stroke-linejoin="round" stroke-width="2"/>
          <ellipse id="Ellipse_3" data-name="Ellipse 3" cx="2.118" cy="2.118" rx="2.118" ry="2.118" transform="translate(0.404 97.029)" fill="none" stroke="#1faaff" stroke-linecap="round" stroke-linejoin="round" stroke-width="2"/>
        </g>
      </g>
    </g>
  </g>
</svg>
