<svg xmlns="http://www.w3.org/2000/svg" xmlns:xlink="http://www.w3.org/1999/xlink" width="75.31" height="92.348" viewBox="0 0 75.31 92.348">
  <defs>
    <clipPath id="clip-path">
      <path id="Path_577" data-name="Path 577" d="M167.928,204.671l25.255,22.862,16.627,2.708s8.5-9.258,8.565-10.266c0-.011,0-.022,0-.034v-.024c-.015-1.25-2.219-9.9-3.024-10.334s-47.864-16.942-47.864-16.942Z" transform="translate(-167.487 -192.642)" fill="none" stroke="#707070" stroke-width="1.8"/>
    </clipPath>
  </defs>
  <g id="Group_170" data-name="Group 170" transform="translate(-0.791 -0.762)">
    <line id="Line_78" data-name="Line 78" y1="2.5" x2="3.171" transform="translate(62.547 8.296)" fill="none" stroke="#1faaff" stroke-linecap="round" stroke-linejoin="round" stroke-width="1.8"/>
    <line id="Line_79" data-name="Line 79" y1="6.182" x2="8.207" transform="translate(50.087 13.889)" fill="none" stroke="#1faaff" stroke-linecap="round" stroke-linejoin="round" stroke-width="1.8"/>
    <line id="Line_80" data-name="Line 80" y1="0.407" x2="2.051" transform="translate(67.062 20.776)" fill="none" stroke="#1faaff" stroke-linecap="round" stroke-linejoin="round" stroke-width="1.8"/>
    <line id="Line_81" data-name="Line 81" y1="1.811" x2="7.436" transform="translate(53.154 22.852)" fill="none" stroke="#1faaff" stroke-linecap="round" stroke-linejoin="round" stroke-width="1.8"/>
    <line id="Line_82" data-name="Line 82" x1="4.169" y2="7.688" transform="translate(46.396 8.824)" fill="none" stroke="#1faaff" stroke-linecap="round" stroke-linejoin="round" stroke-width="1.8"/>
    <g id="Group_165" data-name="Group 165" transform="translate(1.663 1.663)">
      <g id="Group_172" data-name="Group 172">
        <line id="Line_83" data-name="Line 83" x1="0.89" y2="1.641" transform="translate(51.565 0.609)" fill="none" stroke="#1faaff" stroke-linecap="round" stroke-linejoin="round" stroke-width="1.8"/>
        <path id="Path_569" data-name="Path 569" d="M23.74,100.538s.1-9.89.51-12.744a15.142,15.142,0,0,0-2.345-9.482c-1.835-2.957-4.384-13.254-4.69-17.333,0,0-2.141-9.278-1.835-11.011,0,0-2.753-6.423-2.753-7.647s-1.937-7.239-2.141-8.462-1.427-7.341,1.02-7.953,4.588,2.855,4.792,3.976S19.662,41.4,20.58,43.035s2.141,3.263,2.141,2.039S21.5,35.8,21.7,34.572s-1.122-9.992-1.427-10.807-1.529-7.443.816-9.074,4.486,2.447,5.1,5,3.059,11.623,3.059,13.56,1.325,9.074,1.325,9.074,1.02,1.325.714-1.733-.612-22.838-.612-24.47S30.877,10.1,34.14,10,37.4,16.016,37.5,16.934,38.626,40.078,39.238,41.1s1.529.612,1.835-.306,1.122-17.435,1.122-18.658-.612-8.87,2.753-9.482,4.18,6.016,4.18,9.278.918,27.12,1.224,28.242,1.224,6.015,3.772,7.035" transform="translate(-10 -10)" fill="#fff" stroke="#707070" stroke-width="1.8"/>
        <path id="Path_570" data-name="Path 570" d="M23.74,100.538s.1-9.89.51-12.744a15.142,15.142,0,0,0-2.345-9.482c-1.835-2.957-4.384-13.254-4.69-17.333,0,0-2.141-9.278-1.835-11.011,0,0-2.753-6.423-2.753-7.647s-1.937-7.239-2.141-8.462-1.427-7.341,1.02-7.953,4.588,2.855,4.792,3.976S19.662,41.4,20.58,43.035s2.141,3.263,2.141,2.039S21.5,35.8,21.7,34.572s-1.122-9.992-1.427-10.807-1.529-7.443.816-9.074,4.486,2.447,5.1,5,3.059,11.623,3.059,13.56,1.325,9.074,1.325,9.074,1.02,1.325.714-1.733-.612-22.838-.612-24.47S30.877,10.1,34.14,10,37.4,16.016,37.5,16.934,38.626,40.078,39.238,41.1s1.529.612,1.835-.306,1.122-17.435,1.122-18.658-.612-8.87,2.753-9.482,4.18,6.016,4.18,9.278.918,27.12,1.224,28.242,1.224,6.015,3.772,7.035" transform="translate(-10 -10)" fill="none" stroke="#1faaff" stroke-linecap="round" stroke-linejoin="round" stroke-width="1.8"/>
        <path id="Path_571" data-name="Path 571" d="M264.26,220.886s1.122-1.733,4.588-1.937c1.122-.2,1.937-4.282,2.855-5.71s2.447-3.874,2.549-5.4.918-8.36,5.4-9.482,2.243,2.549,2.243,3.467-.1,5.2-.1,6.117.2,3.059-.612,4.486-2.447,9.176-2.447,10.6-3.568,6.321-4.282,7.749-3.263,7.239-5.2,9.788-4.384,5.914-5.1,6.117c0,0,.51,12.439.612,13.764" transform="translate(-226.152 -170.009)" fill="#fff" stroke="#707070" stroke-width="1.8"/>
        <path id="Path_572" data-name="Path 572" d="M264.26,220.886s1.122-1.733,4.588-1.937c1.122-.2,1.937-4.282,2.855-5.71s2.447-3.874,2.549-5.4.918-8.36,5.4-9.482,2.243,2.549,2.243,3.467-.1,5.2-.1,6.117.2,3.059-.612,4.486-2.447,9.176-2.447,10.6-3.568,6.321-4.282,7.749-3.263,7.239-5.2,9.788-4.384,5.914-5.1,6.117c0,0,.51,12.439.612,13.764" transform="translate(-226.152 -170.009)" fill="none" stroke="#1faaff" stroke-linecap="round" stroke-linejoin="round" stroke-width="1.8"/>
        <path id="Path_573" data-name="Path 573" d="M84.253,138.891l4.026,2.073,4.508.432,2.266,3.921,3.558,2.8-.214,4.523,1.479,4.28-2.625,3.69-1.07,4.4-4.2,1.685L88.7,169.819l-4.447-.855-4.447.855L76.527,166.7l-4.2-1.685-1.07-4.4-2.625-3.69,1.479-4.28-.214-4.523,3.558-2.8,2.266-3.921,4.508-.432Z" transform="translate(-59.862 -119.617)" fill="#fff" stroke="#707070" stroke-width="1.8"/>
        <path id="Path_574" data-name="Path 574" d="M84.253,138.891l4.026,2.073,4.508.432,2.266,3.921,3.558,2.8-.214,4.523,1.479,4.28-2.625,3.69-1.07,4.4-4.2,1.685L88.7,169.819l-4.447-.855-4.447.855L76.527,166.7l-4.2-1.685-1.07-4.4-2.625-3.69,1.479-4.28-.214-4.523,3.558-2.8,2.266-3.921,4.508-.432Z" transform="translate(-59.862 -119.617)" fill="none" stroke="#1faaff" stroke-linecap="round" stroke-linejoin="round" stroke-width="1.8"/>
        <line id="Line_84" data-name="Line 84" x2="0.393" y2="19.105" transform="translate(23.993 25.99)" fill="#fff" stroke="#707070" stroke-width="1.8"/>
        <line id="Line_85" data-name="Line 85" x2="0.393" y2="19.105" transform="translate(23.993 25.99)" fill="none" stroke="#1faaff" stroke-linecap="round" stroke-linejoin="round" stroke-width="1.8"/>
      </g>
    </g>
    <g id="Group_167" data-name="Group 167" transform="translate(25.213 28.974)">
      <g id="Group_166" data-name="Group 166" clip-path="url(#clip-path)">
        <path id="Path_575" data-name="Path 575" d="M180.708,218.817l-43.37-23.064s5.3,12.813,11.765,14.145c3.451.133,4.584-1.558,4.584-1.558l25.69,16.122s2.573,1.612,4.032-.458c1.442-2.046.042-3.7-2.7-5.187" transform="translate(-141.846 -195.288)" fill="#fff" stroke="#707070" stroke-width="1.8"/>
        <path id="Path_576" data-name="Path 576" d="M180.708,218.817l-43.37-23.064s5.3,12.813,11.765,14.145c3.451.133,4.584-1.558,4.584-1.558l25.69,16.122s2.573,1.612,4.032-.458C184.852,221.958,183.451,220.3,180.708,218.817Z" transform="translate(-141.846 -195.288)" fill="none" stroke="#1faaff" stroke-linecap="round" stroke-linejoin="round" stroke-width="1.8"/>
        <line id="Line_86" data-name="Line 86" y1="3.016" x2="1.545" transform="translate(11.84 10.036)" fill="#fff" stroke="#707070" stroke-width="1.8"/>
        <line id="Line_87" data-name="Line 87" y1="3.016" x2="1.545" transform="translate(11.84 10.036)" fill="none" stroke="#1faaff" stroke-linecap="round" stroke-linejoin="round" stroke-width="1.8"/>
      </g>
    </g>
    <g id="Group_169" data-name="Group 169" transform="translate(23.016 54.603)">
      <g id="Group_171" data-name="Group 171">
        <path id="Path_578" data-name="Path 578" d="M168.521,364.029c-.854.151-14.372,4.63-11.864,17.652" transform="translate(-155.816 -364.029)" fill="#fff"/>
        <path id="Path_579" data-name="Path 579" d="M165.5,364.029c-3.727,1.962-7.337,4.594-9.581,8.185a14.958,14.958,0,0,0-1.948,5.14,21.734,21.734,0,0,0-.316,3.582c-.007.246-.007.493-.02.744a12.26,12.26,0,0,1-.785-3.285,12.043,12.043,0,0,1,1.951-7.748,15.511,15.511,0,0,1,10.7-6.619" transform="translate(-152.799 -364.029)" fill="#1faaff"/>
        <path id="Path_580" data-name="Path 580" d="M156.056,526.584a14.648,14.648,0,0,1,0,12.443,33.243,33.243,0,0,1-.415-6.226,38.912,38.912,0,0,1,.415-6.217" transform="translate(-155.216 -502.276)" fill="#1faaff"/>
      </g>
    </g>
  </g>
</svg>
