<svg id="Group_158" data-name="Group 158" xmlns="http://www.w3.org/2000/svg" xmlns:xlink="http://www.w3.org/1999/xlink" width="81.274" height="86.21" viewBox="0 0 81.274 86.21">
  <defs>
    <clipPath id="clip-path">
      <rect id="Rectangle_70" data-name="Rectangle 70" width="81" height="86.045" fill="none" stroke="#707070" stroke-width="2"/>
    </clipPath>
  </defs>
  <g id="Group_153" data-name="Group 153">
    <g id="Group_152" data-name="Group 152" clip-path="url(#clip-path)">
      <line id="Line_64" data-name="Line 64" y1="1.912" x2="2.229" transform="translate(75.121 31.674)" fill="none" stroke="#1faaff" stroke-linecap="round" stroke-linejoin="round" stroke-width="2"/>
    </g>
  </g>
  <line id="Line_65" data-name="Line 65" y1="4.989" x2="5.563" transform="translate(66.754 36.187)" fill="none" stroke="#1faaff" stroke-linecap="round" stroke-linejoin="round" stroke-width="2"/>
  <line id="Line_66" data-name="Line 66" y1="1.407" x2="0.578" transform="translate(68.343 27.5)" fill="none" stroke="#1faaff" stroke-linecap="round" stroke-linejoin="round" stroke-width="2"/>
  <line id="Line_67" data-name="Line 67" y1="5.053" x2="2.337" transform="translate(63.907 33.29)" fill="none" stroke="#1faaff" stroke-linecap="round" stroke-linejoin="round" stroke-width="2"/>
  <line id="Line_68" data-name="Line 68" x1="6.071" y2="1.896" transform="translate(68.775 42.414)" fill="none" stroke="#1faaff" stroke-linecap="round" stroke-linejoin="round" stroke-width="2"/>
  <g id="Group_155" data-name="Group 155" transform="translate(78.725 40.798)">
    <g id="Group_160" data-name="Group 160">
      <line id="Line_69" data-name="Line 69" x1="1.296" y2="0.405" fill="none" stroke="#1faaff" stroke-linecap="round" stroke-linejoin="round" stroke-width="2"/>
    </g>
  </g>
  <g id="Group_157" data-name="Group 157" transform="translate(1.088 1.088)">
    <g id="Group_159" data-name="Group 159">
      <path id="Path_547" data-name="Path 547" d="M23.013,44.711s8.486-6.387,9.413-10.1c.682-2.728-1.091-4.911-3.547-5.73-2.087-.7-6.685,2.046-9.276,3.138s-9.14,1.5-9.549-5.048,1.364-14.324,12-16.37,27.693,1.5,30.831,4.5,2.183,5.047.819,6.139-1.364,3.683.136,5.457,9.14,4.5,3,12.96S42.111,53.169,41.02,56.579s-.546,8.049-.136,9.959,2.728,7.094-1.364,12.96-9,8.594-13.369,6.957a9.292,9.292,0,0,1-6-8.322c-.136-2.728-.136-8.731-2.592-12S12.85,56.9,16.055,51.8C18.374,48.121,23.013,44.711,23.013,44.711Z" transform="translate(-10 -10)" fill="none" stroke="#1faaff" stroke-linecap="round" stroke-linejoin="round" stroke-width="2"/>
      <path id="Path_548" data-name="Path 548" d="M397.79,332.606a5.386,5.386,0,1,1-7.666,7.568" transform="translate(-348.783 -297.52)" fill="none" stroke="#1faaff" stroke-linecap="round" stroke-linejoin="round" stroke-width="2"/>
      <path id="Path_549" data-name="Path 549" d="M335.033,267.476l-6.874,7.162a2.1,2.1,0,0,1-2.967,0l-4.268-6.221a2.1,2.1,0,0,1,0-2.967l5.209-5.137a2.1,2.1,0,0,1,2.967,0l5.932,4.2a2.1,2.1,0,0,1,0,2.967" transform="translate(-286.561 -232.541)" fill="#fff" stroke="#707070" stroke-width="2"/>
      <path id="Path_550" data-name="Path 550" d="M335.033,267.476l-6.874,7.162a2.1,2.1,0,0,1-2.967,0l-4.268-6.221a2.1,2.1,0,0,1,0-2.967l5.209-5.137a2.1,2.1,0,0,1,2.967,0l5.932,4.2A2.1,2.1,0,0,1,335.033,267.476Z" transform="translate(-286.561 -232.541)" fill="none" stroke="#1faaff" stroke-linecap="round" stroke-linejoin="round" stroke-width="2"/>
      <path id="Path_551" data-name="Path 551" d="M448.044,493.771s-4.848,3.835-1.953,8.538c.579.868,1.664,1.954,4.269,3.184s4.486,2.1,5.5,5.716,4.2,13.819,4.2,13.819" transform="translate(-397.841 -441.157)" fill="none" stroke="#1faaff" stroke-linecap="round" stroke-linejoin="round" stroke-width="2"/>
      <path id="Path_552" data-name="Path 552" d="M596.008,451.195s6.222.072,7.452,5.282c.724,2.026-.506,5.065-2.1,6.657a6.174,6.174,0,0,0-1.3,6.005c.579,1.881,6.439,17.365,6.439,17.726" transform="translate(-532.275 -403.212)" fill="none" stroke="#1faaff" stroke-linecap="round" stroke-linejoin="round" stroke-width="2"/>
      <path id="Path_553" data-name="Path 553" d="M464.7,404.165a8.594,8.594,0,1,1-8.594-8.594,8.594,8.594,0,0,1,8.594,8.594" transform="translate(-399.932 -353.637)" fill="#fff" stroke="#707070" stroke-width="2"/>
      <circle id="Ellipse_16" data-name="Ellipse 16" cx="8.594" cy="8.594" r="8.594" transform="translate(47.539 41.978) rotate(-0.295)" fill="none" stroke="#1faaff" stroke-linecap="round" stroke-linejoin="round" stroke-width="2"/>
      <path id="Path_554" data-name="Path 554" d="M508.872,454.472a2.456,2.456,0,1,1-2.456-2.456,2.456,2.456,0,0,1,2.456,2.456" transform="translate(-450.239 -403.943)" fill="#fff" stroke="#707070" stroke-width="2"/>
      <circle id="Ellipse_17" data-name="Ellipse 17" cx="2.456" cy="2.456" r="2.456" transform="translate(52.969 49.199) rotate(-22.5)" fill="none" stroke="#1faaff" stroke-linecap="round" stroke-linejoin="round" stroke-width="2"/>
      <path id="Path_555" data-name="Path 555" d="M70.782,120.15a2.444,2.444,0,0,0,1.128,2.527,3.917,3.917,0,0,0,2.765.416,24.5,24.5,0,0,0,3.8-1.31c4.777-1.726,10.576-.544,13.159,4.139a7.307,7.307,0,0,1-.287,7.56c-.1.14-.211.272-.316.406a7.109,7.109,0,0,0,.964-3.843c-.059-4.035-3.584-7.189-7.407-7.785a12.779,12.779,0,0,0-5.815.432c-.957.292-1.944.7-2.945.931a4.819,4.819,0,0,1-4.164-.608,2.548,2.548,0,0,1-.879-2.863" transform="translate(-64.028 -108.17)" fill="#1faaff"/>
      <path id="Path_556" data-name="Path 556" d="M106.032,427.839a5.392,5.392,0,0,0-.39,3.982c.506,2.031,1.774,3.728,2.654,5.616a17.966,17.966,0,0,1,1.666,8.367,7.262,7.262,0,0,0,.624,3.81,4.125,4.125,0,0,0,3.09,1.954,4.275,4.275,0,0,0,4.428-3.291,4.176,4.176,0,0,1-.7,2c-2.52,3.67-7.9,1.953-8.4-2.311-.213-1.428-.047-2.821-.166-4.221a18.57,18.57,0,0,0-.73-4,19.115,19.115,0,0,0-.687-1.919,42.226,42.226,0,0,1-2.076-4.844,5.724,5.724,0,0,1,.685-5.144" transform="translate(-94.711 -382.396)" fill="#1faaff"/>
      <path id="Path_557" data-name="Path 557" d="M234.094,389.988a10.318,10.318,0,0,0-3.447,4.447,22.953,22.953,0,0,0-1.28,5.624,8.987,8.987,0,0,1-.376-3.014c.075-3.028,1.969-6.4,5.1-7.057" transform="translate(-205.168 -348.661)" fill="#1faaff"/>
      <path id="Path_558" data-name="Path 558" d="M352.72,126.481c.221,2.024-.107,4.223,1.277,5.859a18.766,18.766,0,0,0,1.557,1.459,5.2,5.2,0,0,1-1.1-.275c-2.955-1.074-3.034-4.63-1.732-7.043" transform="translate(-314.729 -113.813)" fill="#1faaff"/>
      <path id="Path_559" data-name="Path 559" d="M184.149,43.785A17.463,17.463,0,0,1,196.726,45.1c-2.125-.215-4.173-.537-6.279-.745-2.1-.233-4.174-.341-6.3-.568" transform="translate(-165.209 -39.557)" fill="#1faaff"/>
      <path id="Path_560" data-name="Path 560" d="M569.97,631.558a8.642,8.642,0,0,0,.554,1.532,41.821,41.821,0,0,1,1.727,4.614,34.374,34.374,0,0,1,1.433,6.428,25.634,25.634,0,0,1-1.384-3.006,45.89,45.89,0,0,1-1.951-6.266,9.061,9.061,0,0,1-.379-3.3" transform="translate(-509.019 -563.959)" fill="#1faaff"/>
    </g>
  </g>
</svg>
