<svg xmlns="http://www.w3.org/2000/svg" width="13.576" height="13.576" viewBox="0 0 13.576 13.576">
  <g id="Group_157" data-name="Group 157" transform="translate(0 0)">
    <path id="Path_6" data-name="Path 6" d="M6.788,0a6.787,6.787,0,0,0-5.7,10.467L.053,12.738a.593.593,0,0,0,.54.838.584.584,0,0,0,.157-.021l2.841-.779A6.788,6.788,0,1,0,6.788,0m0,12.39a5.6,5.6,0,0,1-2.821-.763.593.593,0,0,0-.3-.081.6.6,0,0,0-.157.021l-1.856.509L2.3,10.653a.593.593,0,0,0-.059-.592A5.6,5.6,0,1,1,6.788,12.39" transform="translate(0 0)" fill="#26445d" fill-rule="evenodd"/>
    <path id="Path_7" data-name="Path 7" d="M13.14,11.761a1.162,1.162,0,0,0-.989-.223c-.257.105-.421.508-.587.713a.246.246,0,0,1-.319.069A4.478,4.478,0,0,1,9.009,10.4a.275.275,0,0,1,.035-.374,1.508,1.508,0,0,0,.406-.66,1.445,1.445,0,0,0-.181-.78,1.853,1.853,0,0,0-.576-.868.79.79,0,0,0-.858.127,1.74,1.74,0,0,0-.6,1.379,1.958,1.958,0,0,0,.054.438,3.633,3.633,0,0,0,.42.967,7.554,7.554,0,0,0,.439.666,6.757,6.757,0,0,0,1.9,1.765,5.755,5.755,0,0,0,1.185.564,2.631,2.631,0,0,0,1.38.218,1.669,1.669,0,0,0,1.251-.931.806.806,0,0,0,.058-.475c-.071-.327-.514-.522-.779-.68" transform="translate(-3.743 -3.956)" fill="#26445d" fill-rule="evenodd"/>
  </g>
</svg>
