<svg xmlns="http://www.w3.org/2000/svg" width="13.576" height="13.576" viewBox="0 0 13.576 13.576">
  <path id="Path_9" data-name="Path 9" d="M181.211,2.5a.8.8,0,1,0,.8.8.8.8,0,0,0-.8-.8m-3.549,1.023a3.353,3.353,0,1,0,3.353,3.353,3.357,3.357,0,0,0-3.353-3.353m0,5.5a2.147,2.147,0,1,1,2.147-2.147,2.15,2.15,0,0,1-2.147,2.147m6.765-4.934A4.089,4.089,0,0,0,180.339,0h-5.4a4.089,4.089,0,0,0-4.089,4.089v5.4a4.089,4.089,0,0,0,4.089,4.089h5.4a4.089,4.089,0,0,0,4.089-4.089Zm-1.281,5.4a2.808,2.808,0,0,1-2.808,2.808h-5.4a2.808,2.808,0,0,1-2.808-2.808v-5.4a2.808,2.808,0,0,1,2.808-2.808h5.4a2.808,2.808,0,0,1,2.808,2.808Z" transform="translate(-170.852)" fill="#26445d"/>
</svg>
