<svg id="Group_4" data-name="Group 4" xmlns="http://www.w3.org/2000/svg" xmlns:xlink="http://www.w3.org/1999/xlink" width="18" height="18.024" viewBox="0 0 18 18.024">
  <defs>
    <clipPath id="clip-path">
      <rect id="Rectangle_2" data-name="Rectangle 2" width="18" height="18.024" fill="none"/>
    </clipPath>
  </defs>
  <g id="Group_3" data-name="Group 3" clip-path="url(#clip-path)">
    <path id="Path_3" data-name="Path 3" d="M3.62.014A2.1,2.1,0,0,1,5.164.548,10.793,10.793,0,0,1,7.57,3.916c.158.986-.819,1.828-.745,2.357.215,1.537,3.428,4.881,4.989,4.934.629.021,1.138-1.085,2.519-.688a10.894,10.894,0,0,1,3.351,2.623c.728,1.216.076,2.026-.722,2.953-.7.808-1.716,1.863-2.841,1.925-2.8.155-7.2-3.877-9.062-5.822C3.318,10.377-.451,6.176.045,3.532.245,2.464,2.555.169,3.62.014m0,1.112a9.152,9.152,0,0,0-2.2,1.854,1.985,1.985,0,0,0-.3,1.517c.338,3.431,8.517,11.226,11.768,12.232,1.6.494,2.17.021,3.169-1.141.354-.412,1.064-1.162.807-1.721a13.01,13.01,0,0,0-1.115-1.113,10.023,10.023,0,0,0-1.768-1.175c-.7-.191-1.341.869-2.354.741C9.554,12.059,6.431,8.8,5.842,6.858c-.414-1.366.311-1.377.594-2.409.148-.539-.894-1.853-1.27-2.282S4.191,1,3.616,1.126" transform="translate(0 0)" fill="#26445d"/>
    <path id="Path_4" data-name="Path 4" d="M104.1,14.717a4.626,4.626,0,0,1,1.9.188,5.922,5.922,0,0,1,3.832,3.763c.137.45.578,2.082-.08,2.207-.943.178-.678-.487-.786-1.037a4.75,4.75,0,0,0-3.6-4,8.7,8.7,0,0,1-1.4-.221c-.243-.192-.215-.8.132-.9" transform="translate(-93.3 -13.185)" fill="#009eff"/>
    <path id="Path_5" data-name="Path 5" d="M104.1,45.869c.4-.4,1.609.116,2,.429.6.475,1.664,2.494.453,2.494-.694,0-.485-.63-.708-1.126-.445-.991-1.619-.683-1.826-1.113a.738.738,0,0,1,.077-.685" transform="translate(-93.445 -41.093)" fill="#009eff"/>
  </g>
</svg>
