<svg xmlns="http://www.w3.org/2000/svg" width="13.885" height="13.262" viewBox="0 0 13.885 13.262">
  <g id="Group_155" data-name="Group 155" transform="translate(-41.06 -0.313)">
    <path id="Path_10" data-name="Path 10" d="M99.2,13.193V18.1a.22.22,0,0,1-.22.22H96.446a.22.22,0,0,1-.22-.22V13.537c0-1.2-.429-2.022-1.506-2.022A1.627,1.627,0,0,0,93.2,12.6a2.04,2.04,0,0,0-.1.725V18.1a.219.219,0,0,1-.22.22H90.345a.218.218,0,0,1-.22-.22c.005-1.215.031-7.113.005-8.5a.218.218,0,0,1,.219-.222h2.528a.22.22,0,0,1,.22.22v1.047c-.006.01-.014.02-.02.029h.02v-.029a2.952,2.952,0,0,1,2.679-1.477c1.956,0,3.423,1.278,3.423,4.024M85.728,18.321H88.26a.22.22,0,0,0,.22-.22V9.6a.22.22,0,0,0-.22-.22H85.728a.22.22,0,0,0-.22.22v8.5a.22.22,0,0,0,.22.22" transform="translate(-44.254 -4.745)" fill="#26445d"/>
    <path id="Path_11" data-name="Path 11" d="M88.288,2.241A1.591,1.591,0,1,1,86.7.649a1.591,1.591,0,0,1,1.592,1.592" transform="translate(-44.045 -0.336)" fill="#26445d"/>
  </g>
</svg>
