<svg id="Group_2" data-name="Group 2" xmlns="http://www.w3.org/2000/svg" xmlns:xlink="http://www.w3.org/1999/xlink" width="15.354" height="21.97" viewBox="0 0 15.354 21.97">
  <defs>
    <clipPath id="clip-path">
      <rect id="Rectangle_1" data-name="Rectangle 1" width="15.354" height="21.97" fill="none"/>
    </clipPath>
  </defs>
  <g id="Group_1" data-name="Group 1" clip-path="url(#clip-path)">
    <path id="Path_1" data-name="Path 1" d="M13.791,3.061A7.584,7.584,0,0,0,6.21.137,7.5,7.5,0,0,0,.722,4.445a7.658,7.658,0,0,0,.271,7.022L7.327,21.695l.011.018.342.257h.212l.024-.012a.705.705,0,0,0,.3-.243l6.291-10.551,0-.007a7.6,7.6,0,0,0-.723-8.095M10,1.388a6.562,6.562,0,0,1,3.913,3.871A6.958,6.958,0,0,1,13.484,11C12.4,13.01,11.136,15.05,9.911,17.024l0,.008c-.638,1.028-1.3,2.091-1.915,3.124l0,0-.188.131-.16-.014c-.231-.306-.434-.637-.632-.957l-.149-.241-.468-.749c-1.633-2.61-3.322-5.31-4.88-8.019L1.5,10.289A6.592,6.592,0,0,1,2.837,3.053,6.588,6.588,0,0,1,10,1.388" transform="translate(0 0)" fill="#26445d"/>
    <path id="Path_2" data-name="Path 2" d="M78.739,73.576a3.735,3.735,0,0,0-3.564-1.83h0a3.7,3.7,0,0,0-3.037,2.123,3.734,3.734,0,0,0,3.377,5.372h.014a3.735,3.735,0,0,0,3.21-5.665m-1.247,3.887a2.652,2.652,0,0,1-1.9.843,2.928,2.928,0,0,1-1.929-.775,2.8,2.8,0,0,1,1.771-4.857,2.6,2.6,0,0,1,.51.051,3.076,3.076,0,0,1,2.277,2.07,2.6,2.6,0,0,1-.731,2.668" transform="translate(-67.848 -67.818)" fill="#009eff"/>
  </g>
</svg>
