<svg id="Group_64" data-name="Group 64" xmlns="http://www.w3.org/2000/svg" xmlns:xlink="http://www.w3.org/1999/xlink" width="32" height="31.724" viewBox="0 0 32 31.724">
  <defs>
    <clipPath id="clip-path">
      <rect id="Rectangle_44" data-name="Rectangle 44" width="32" height="31.724" fill="#26445d"/>
    </clipPath>
  </defs>
  <g id="Group_63" data-name="Group 63" clip-path="url(#clip-path)">
    <path id="Path_464" data-name="Path 464" d="M31.961,14.558a22.392,22.392,0,0,1,0,2.62,16.253,16.253,0,0,1-2.693,7.505,1.273,1.273,0,0,1-2.184-1.311c.315-.637.8-1.239,1.125-1.931C32.824,11.516,24.017.783,13.425,2.789A13.275,13.275,0,0,0,3.633,21.024a12.235,12.235,0,0,1,.948,2.113L3.395,28.654,9.039,27.4a23.359,23.359,0,0,1,2.2.925,13.635,13.635,0,0,0,10.349-.347,7.334,7.334,0,0,1,1.982-.886,1.3,1.3,0,0,1,1,2.056,10.827,10.827,0,0,1-3.114,1.627,16.2,16.2,0,0,1-12.66-.741c-2.143.39-4.311,1.1-6.447,1.469A1.6,1.6,0,0,1,1,31.388a1.243,1.243,0,0,1-.539-1.267L1.942,23.33C-4.2,11.931,5.065-1.248,17.826.1A16.157,16.157,0,0,1,31.961,14.558" transform="translate(0 0)" fill="#26445d"/>
    <path id="Path_465" data-name="Path 465" d="M140.866,141.844a6.662,6.662,0,0,1,1.343,0c.227.057.409.352.513.547a22.225,22.225,0,0,1,1.186,2.867c.245,1.084-1.267,1.719-1.192,2.248a5.264,5.264,0,0,0,.673,1.14,9.893,9.893,0,0,0,3.958,3.277c.352.155.8.45,1.141.16.468-.4.877-1.214,1.312-1.619.353-.329.776-.076,1.167.085.929.381,1.908.98,2.8,1.445a3.044,3.044,0,0,1-2.352,3.45c-1.641.447-4.425-.57-5.893-1.38-2.774-1.532-6.915-6.025-6.562-9.39.089-.849,1.013-2.65,1.909-2.832" transform="translate(-130.253 -132.948)" fill="#26445d"/>
  </g>
</svg>
