<svg xmlns="http://www.w3.org/2000/svg" xmlns:xlink="http://www.w3.org/1999/xlink" width="50.48" height="50.476" viewBox="0 0 50.48 50.476">
  <defs>
    <clipPath id="clip-path">
      <rect id="Rectangle_6" data-name="Rectangle 6" width="50.48" height="50.476" fill="none"/>
    </clipPath>
  </defs>
  <g id="Group_9" data-name="Group 9" transform="translate(0 0)">
    <g id="Group_8" data-name="Group 8" transform="translate(0 0)" clip-path="url(#clip-path)">
      <path id="Path_26" data-name="Path 26" d="M49.727,19.207A25.027,25.027,0,0,0,30.748.558L27.217,0H23.236C11.238.768.812,11.15.028,23.141c-.047.7-.026,1.442-.006,2.163.021.689.039,1.38.006,2.052l.545,3.31A25.313,25.313,0,0,0,41.55,44.524a25.019,25.019,0,0,0,8.177-25.317M40.784,40.753a21.751,21.751,0,0,1-15.434,6.4,22.349,22.349,0,0,1-5-.567,21.942,21.942,0,1,1,11.858-42.2A21.744,21.744,0,0,1,46.568,20.156a21.807,21.807,0,0,1-5.784,20.6" transform="translate(0 0)" fill="#26445d"/>
      <path id="Path_27" data-name="Path 27" d="M10.895,7.556c.648-.112.914.142,1.406.457,3.078,1.979,6.707,4.72,9.617,6.984,1.118.869,2.043,1.584.564,2.839-3.151,2.676-7.162,4.874-10.381,7.527-1.264.822-2.181.14-2.29-1.277-.378-4.853.288-10.19,0-15.095a1.5,1.5,0,0,1,1.08-1.436" transform="translate(11.109 8.631)" fill="#1faaff"/>
    </g>
  </g>
</svg>
