<svg id="Logo" xmlns="http://www.w3.org/2000/svg" xmlns:xlink="http://www.w3.org/1999/xlink" width="74.333" height="74.333" viewBox="0 0 74.333 74.333">
  <defs>
    <linearGradient id="linear-gradient" x1="0.79" y1="0.275" x2="0.082" y2="0.824" gradientUnits="objectBoundingBox">
      <stop offset="0.5" stop-color="#4ea3da"/>
      <stop offset="1" stop-color="#27455d"/>
    </linearGradient>
    <clipPath id="clip-path">
      <path id="Path_628" data-name="Path 628" d="M71.393,25.531H48.814V2.948A2.947,2.947,0,0,0,45.866,0H28.482a2.947,2.947,0,0,0-2.948,2.948V25.527H2.948A2.947,2.947,0,0,0,0,28.475V45.859a2.947,2.947,0,0,0,2.948,2.948H25.527V71.386a2.947,2.947,0,0,0,2.948,2.948H45.859a2.947,2.947,0,0,0,2.948-2.948V48.806H71.386a2.947,2.947,0,0,0,2.948-2.948V28.475a2.947,2.947,0,0,0-2.948-2.948Z" fill="none"/>
    </clipPath>
  </defs>
  <path id="Path_623" data-name="Path 623" d="M71.393,25.531H48.814V2.948A2.947,2.947,0,0,0,45.866,0H28.482a2.947,2.947,0,0,0-2.948,2.948V25.527H2.948A2.947,2.947,0,0,0,0,28.475V45.859a2.947,2.947,0,0,0,2.948,2.948H25.527V71.386a2.947,2.947,0,0,0,2.948,2.948H45.859a2.947,2.947,0,0,0,2.948-2.948V48.806H71.386a2.947,2.947,0,0,0,2.948-2.948V28.475a2.947,2.947,0,0,0-2.948-2.948Z" fill="url(#linear-gradient)"/>
  <g id="Group_196" data-name="Group 196" clip-path="url(#clip-path)">
    <path id="Path_624" data-name="Path 624" d="M64.751,26.088c2.579-.171,4.246-.06,6.252,1.626a8.135,8.135,0,0,0,.685.733c.99.741,3.145,1.046,3.8-.242.755-1.481-.372-4.235-.48-5.914-.216-3.323.5-5.136,1.835-8.043,1.764-3.837,16.122-22.74,18.073-26.484L84.67-15.36,64.405,13.375c-2.769,3.35-5.534,6.2-4.075,11.012.867,2.851,2.24,1.846,4.425,1.7Z" transform="translate(-37.624 9.643)" fill="#fff"/>
    <path id="Path_625" data-name="Path 625" d="M68.745,115.144c-2.11-3.6-.3-7.172-1.678-10.908a4.662,4.662,0,0,0-6.818-2.333c-.655.871-.953,1.9-1.664,2.758-1.53,1.853-3.5,1.466-4.273,4.343-.8,2.974,1.95,7.079,4.671,8.191.748.305,1.582.432,2.326.737,1.5.614,3.364,3.078,4.485,4.362,2.118,2.427,13.264,14.105,15.322,16.58l6.576-2.334c.045-.171-.045-.19-.112-.283-2.795-4.016-16.357-16.889-18.832-21.117Z" transform="translate(-34.011 -63.546)" fill="#fff"/>
    <path id="Path_626" data-name="Path 626" d="M98.6,114.883a6.947,6.947,0,0,1-.964-3.461c-.112-.83-.711-2.062-1.731-1.961-1.552.149-.886,3.528-.871,4.563.019,1.411-.491,4.641,1.083,5.382.782.365,1.682.409,2.255,1.258l17.473,19.747,3.294-1.362c-3.733-5.032-16.93-19.029-20.544-24.165Z" transform="translate(-59.571 -68.719)" fill="#fff"/>
    <path id="Path_627" data-name="Path 627" d="M50.823,91.992c1.638-.216,1.965-1.336,1.258-2.713-.9-1.757-2.08-2.613-2.1-4.939-.007-.551.547-2.851-.48-2.642-.979.2-2.1,2.918-2.319,3.815-.636,2.646.082,6.948,3.644,6.479Z" transform="translate(-29.49 -51.284)" fill="#fff"/>
  </g>
</svg>
