<svg xmlns="http://www.w3.org/2000/svg" xmlns:xlink="http://www.w3.org/1999/xlink" width="72.355" height="97.098" viewBox="0 0 72.355 97.098">
  <defs>
    <clipPath id="clip-path">
      <rect id="Rectangle_15" data-name="Rectangle 15" width="72.355" height="97.098" transform="translate(0 0)" fill="none"/>
    </clipPath>
  </defs>
  <g id="Group_25" data-name="Group 25" transform="translate(0 0.002)">
    <g id="Group_24" data-name="Group 24" transform="translate(0 -0.002)" clip-path="url(#clip-path)">
      <path id="Path_89" data-name="Path 89" d="M696.057,49.509a.978.978,0,0,1-.735-1.622l2.762-3.156a.978.978,0,0,1,1.472,1.288l-2.763,3.156a.976.976,0,0,1-.736.334" transform="translate(-633.282 -40.45)" fill="#1faaff"/>
      <path id="Path_90" data-name="Path 90" d="M572.776,134.331a.978.978,0,0,1-.721-1.638l7.205-7.872a.978.978,0,0,1,1.443,1.321l-7.2,7.872a.976.976,0,0,1-.722.318" transform="translate(-520.961 -113.433)" fill="#1faaff"/>
      <path id="Path_91" data-name="Path 91" d="M770.116,183.234a.978.978,0,0,1-.363-1.887l2.017-.805a.978.978,0,0,1,.725,1.817l-2.017.805a.974.974,0,0,1-.362.07" transform="translate(-700.756 -164.427)" fill="#1faaff"/>
      <path id="Path_92" data-name="Path 92" d="M617.82,227.757a.978.978,0,0,1-.4-1.87l7.249-3.263a.978.978,0,0,1,.8,1.784l-7.249,3.263a.975.975,0,0,1-.4.086" transform="translate(-562 -202.752)" fill="#1faaff"/>
      <path id="Path_93" data-name="Path 93" d="M522.769,93.457a.979.979,0,0,1-.931-1.279l2.8-8.643a.978.978,0,1,1,1.861.6l-2.8,8.643a.978.978,0,0,1-.93.677" transform="translate(-475.4 -75.491)" fill="#1faaff"/>
      <path id="Path_94" data-name="Path 94" d="M574.3,3.8a.979.979,0,0,1-.931-1.279l.6-1.845a.978.978,0,0,1,1.861.6l-.6,1.845a.978.978,0,0,1-.93.677" transform="translate(-522.352 0.002)" fill="#1faaff"/>
      <path id="Path_95" data-name="Path 95" d="M543.636,505.658a35.35,35.35,0,0,0-3.784-15.122,3.6,3.6,0,0,1-.509.66,30.96,30.96,0,0,1,2.717,7.477,76.059,76.059,0,0,1,1.465,12.445l.212,1.231Z" transform="translate(-491.392 -446.924)" fill="#1faaff"/>
      <path id="Path_96" data-name="Path 96" d="M590.89,827.059c.272.037.148-.354.156-.544a32.205,32.205,0,0,0-3.1-13.579c-.124-.253-.353-.753-.6-.879Z" transform="translate(-535.123 -739.86)" fill="#1faaff"/>
      <path id="Path_97" data-name="Path 97" d="M63.115,213.942a13.92,13.92,0,0,0-.091-1.9l-.014-.157a118.541,118.541,0,0,0-2.247-13.318,112.048,112.048,0,0,1-2.3-13.979,40.16,40.16,0,0,1,.234-6.729,44.227,44.227,0,0,0,.274-5.806c-.523-12.661-9.042-24.119-22.233-29.9-5.938-2.6-12.23-4.721-18.314-6.77C12.654,133.442,6.686,131.433,1,129.007a.875.875,0,0,0-.828.365.943.943,0,0,0-.032,1.034c.22.4,1.848.994,2.722,1.314a14.272,14.272,0,0,1,1.616.658l25.744,9.1-14.659-.005c-1.994.248-4.158.33-6.251.409a54.3,54.3,0,0,0-8.291.73c-.693.139-1.074.53-1.019,1.046a.934.934,0,0,0,.977.823,16.155,16.155,0,0,0,2.143-.262c.584-.1,1.186-.2,1.729-.244,4.031-.357,10.12-.832,16.433-.832,3.026,0,5.868.11,8.446.327a31.324,31.324,0,0,1,8.682,1.59,23.266,23.266,0,0,1,7.337,4.839A34.5,34.5,0,0,1,54.94,162a31.459,31.459,0,0,1,2.16,15.136c-.047.6-.151,1.243-.251,1.862a16.38,16.38,0,0,0-.257,2.136,58.2,58.2,0,0,0,1.579,12.552c.265,1.32.538,2.682.777,4.03q.172.972.347,1.945c.6,3.375,1.227,6.861,1.7,10.312.045.326.075.759.109,1.261a10.3,10.3,0,0,0,.5,3.165.774.774,0,0,0,.817.193h0a.893.893,0,0,0,.687-.651" transform="translate(0 -117.532)" fill="#1faaff"/>
      <path id="Path_98" data-name="Path 98" d="M39.741,580.281c.341-.547.18-.891-.863-1.845-.192-.175-.373-.341-.542-.518a73.616,73.616,0,0,1-5.525-6.8A54.353,54.353,0,0,0,25.36,562.5c-.423-.368-1.2-1.045-1.752-1.006a.739.739,0,0,0-.52.314.693.693,0,0,0-.225.533c.049.523.871,1.178,1.471,1.657.267.214.52.415.725.613a66.469,66.469,0,0,1,7.3,8.956l.176.244,0,.235c-.013,1.048,0,2.137,0,3.191.036,4.678.074,9.514-1.626,13.912a13.8,13.8,0,0,1-5.3,6.577,21.34,21.34,0,0,1-7.937,3.066,47.694,47.694,0,0,1-16.84-.326.887.887,0,0,0-.035,1.749,9.77,9.77,0,0,0,1.274.271l.042.007.252.043c7.861,1.394,19.345,1.041,25.842-4.538.021-.02.135-.14.2-.2.86-.9,1.194-1.185,1.613-1.185h.01a.758.758,0,0,1,.565.258l.2.232-.031.308a23.763,23.763,0,0,0,.529,7.626c.625,2.706,1.264,3.5,1.4,3.561a1.1,1.1,0,0,0,1.021-.132.856.856,0,0,0,.315-.778,8.355,8.355,0,0,0-.409-1.132c-.163-.4-.316-.776-.4-1.064-1.433-5.086-.577-10.893.251-16.508a77.053,77.053,0,0,0,.929-8.276c.015-.411.006-.842,0-1.258-.009-.438-.018-.887,0-1.336l.056-1.585,1.146,1.1c.192.183.419.435.683.727l0,0c.7.775,2.156,2.389,2.968,2.316.11-.01.28-.061.485-.389" transform="translate(-0.064 -511.573)" fill="#1faaff"/>
      <path id="Path_99" data-name="Path 99" d="M100.344,899.319a1.327,1.327,0,0,0-.714-1.373l-4.939-.029a1.32,1.32,0,0,0-.83,1.388,1.284,1.284,0,0,0,1.261,1.038,27.538,27.538,0,0,0,4.205-.014,1.141,1.141,0,0,0,1.017-1.01" transform="translate(-85.505 -818.086)" fill="#1faaff"/>
      <path id="Path_100" data-name="Path 100" d="M50.848,340.5a17.7,17.7,0,0,1,6.037-1.213,139.123,139.123,0,0,1,18.378-.191,121.063,121.063,0,0,1-12.225.939q-3.06.1-6.125.088a28.2,28.2,0,0,0-6.065.377" transform="translate(-46.327 -308.747)" fill="#1faaff"/>
      <path id="Path_101" data-name="Path 101" d="M271.646,661.389c.906,1.059,1.751,2.157,2.585,3.27a17.819,17.819,0,0,1,1.569,2.351c.964,1.722.887,3.743.822,5.647-.133,3.206-.713,6.874-3.34,9.02,2.261-2.987,2.255-6.826,2.305-10.423a8.431,8.431,0,0,0-.631-3.834,25.983,25.983,0,0,0-1.308-2.376c-.7-1.2-1.381-2.408-2-3.655" transform="translate(-247.495 -602.587)" fill="#1faaff"/>
      <path id="Path_102" data-name="Path 102" d="M392.956,991.541a18.368,18.368,0,0,0,.247,2.848,18.639,18.639,0,0,0,.749,2.759,5.515,5.515,0,0,1-1-5.607" transform="translate(-357.681 -903.386)" fill="#1faaff"/>
      <path id="Path_103" data-name="Path 103" d="M363.018,253.763l2.571,1.324,2.879.276,1.447,2.5,2.273,1.789-.136,2.889.945,2.734-1.677,2.357-.683,2.81-2.685,1.076-2.094,1.995-2.84-.546-2.84.546-2.094-1.995-2.685-1.076-.683-2.81-1.677-2.357.945-2.734-.136-2.889,2.273-1.789,1.447-2.5,2.879-.276Z" transform="translate(-321.652 -231.201)" fill="#fff"/>
      <path id="Path_104" data-name="Path 104" d="M355.837,264.473a.977.977,0,0,1-.185-.018L353,263.945l-2.656.511a.978.978,0,0,1-.859-.252l-1.958-1.865-2.51-1.006a.978.978,0,0,1-.586-.677l-.639-2.628-1.568-2.2a.978.978,0,0,1-.127-.886l.883-2.556-.127-2.7a.978.978,0,0,1,.372-.815l2.125-1.673,1.353-2.341a.978.978,0,0,1,.753-.484l2.692-.258,2.4-1.238a.978.978,0,0,1,.9,0l2.4,1.238,2.692.258a.978.978,0,0,1,.753.484l1.353,2.341,2.125,1.673a.978.978,0,0,1,.372.815l-.128,2.7.883,2.556a.978.978,0,0,1-.127.886l-1.568,2.2-.639,2.628a.978.978,0,0,1-.586.677l-2.51,1.006-1.958,1.865a.978.978,0,0,1-.675.27m-9.628-4.769,2.217.889a.978.978,0,0,1,.311.2l1.729,1.648,2.346-.451a.976.976,0,0,1,.369,0l2.346.451,1.729-1.648a.979.979,0,0,1,.311-.2l2.217-.889.564-2.321a.979.979,0,0,1,.153-.336l1.385-1.946-.78-2.258a.977.977,0,0,1-.053-.365l.113-2.386-1.877-1.477a.978.978,0,0,1-.242-.279l-1.2-2.068-2.378-.228a.978.978,0,0,1-.354-.1L353,244.841l-2.124,1.094a.979.979,0,0,1-.354.1l-2.378.228-1.2,2.068a.979.979,0,0,1-.242.279l-1.877,1.477.113,2.386a.977.977,0,0,1-.053.365l-.78,2.258,1.385,1.946a.979.979,0,0,1,.153.336Zm4.216-14.638h0Z" transform="translate(-311.63 -221.18)" fill="#1faaff"/>
      <path id="Path_105" data-name="Path 105" d="M309.74,437.628a4.3,4.3,0,0,1,.453,2.214c-.062.577-.072.7.528.873.767.208,1.694.1,2.309.731.356.365.375.9.6,1.32a9.49,9.49,0,0,0,1.46,1.583,7.068,7.068,0,0,1,1.26,1.872,10.917,10.917,0,0,0-1.5-1.62,7.2,7.2,0,0,1-1.657-1.587c-.244-.376-.251-.872-.546-1.2a1.276,1.276,0,0,0-.6-.325c-.467-.131-.977-.159-1.458-.322-.346-.109-.764-.338-.807-.755a2.24,2.24,0,0,1,.07-.6,5.268,5.268,0,0,0-.106-2.175" transform="translate(-282.202 -398.72)" fill="#1faaff"/>
      <path id="Path_106" data-name="Path 106" d="M228.732,1036.619c1.356-.663,2.7-1.325,4-2.084q.647-.374,1.28-.774a.254.254,0,0,1,.357.074,33.691,33.691,0,0,1,1.11,3.87,36.543,36.543,0,0,1-1.569-3.644l.383.129q-.632.431-1.3.8a14.973,14.973,0,0,1-4.264,1.625" transform="translate(-208.396 -941.812)" fill="#1faaff"/>
    </g>
  </g>
</svg>
