<svg id="Group_33" data-name="Group 33" xmlns="http://www.w3.org/2000/svg" xmlns:xlink="http://www.w3.org/1999/xlink" width="66.5" height="107.505" viewBox="0 0 66.5 107.505">
  <defs>
    <clipPath id="clip-path">
      <rect id="Rectangle_18" data-name="Rectangle 18" width="66.5" height="107.505" fill="none"/>
    </clipPath>
  </defs>
  <g id="Group_32" data-name="Group 32" clip-path="url(#clip-path)">
    <path id="Path_141" data-name="Path 141" d="M509.26,490.495a1.068,1.068,0,0,1-.3-2.091l4.089-1.217a1.067,1.067,0,0,1,.609,2.046l-4.089,1.217a1.066,1.066,0,0,1-.3.045" transform="translate(-447.917 -429.363)" fill="#1faaff"/>
    <path id="Path_142" data-name="Path 142" d="M375.59,514a1.068,1.068,0,0,1-.281-2.1l10.471-2.866a1.067,1.067,0,0,1,.564,2.059l-10.471,2.866a1.07,1.07,0,0,1-.282.038" transform="translate(-330.101 -448.628)" fill="#1faaff"/>
    <path id="Path_143" data-name="Path 143" d="M514.623,600.779a1.084,1.084,0,0,1-.2-.018l-2.172-.4a1.068,1.068,0,1,1,.388-2.1l2.172.4a1.068,1.068,0,0,1-.193,2.117" transform="translate(-450.728 -527.287)" fill="#1faaff"/>
    <path id="Path_144" data-name="Path 144" d="M393.871,584.536a1.048,1.048,0,0,1-.15-.011l-8.009-1.125a1.067,1.067,0,0,1,.3-2.114l8.009,1.125a1.067,1.067,0,0,1-.147,2.125" transform="translate(-339.154 -512.333)" fill="#1faaff"/>
    <path id="Path_145" data-name="Path 145" d="M356.746,449.692a1.067,1.067,0,0,1-.684-1.887l7.095-5.921a1.067,1.067,0,1,1,1.368,1.639l-7.095,5.921a1.064,1.064,0,0,1-.683.248" transform="translate(-313.492 -389.255)" fill="#1faaff"/>
    <path id="Path_146" data-name="Path 146" d="M454.776,402.488a1.067,1.067,0,0,1-.684-1.887l1.515-1.264a1.067,1.067,0,1,1,1.368,1.639l-1.515,1.264a1.064,1.064,0,0,1-.683.248" transform="translate(-399.895 -351.754)" fill="#1faaff"/>
    <path id="Path_147" data-name="Path 147" d="M15.463,102.208a.949.949,0,0,1-.937-.805L9.065,65.711a37.507,37.507,0,0,1-3.883-6.133c-1.8-3.532-3.858-8.967-3.473-14.839a13.984,13.984,0,0,0-.316-1.777A12.452,12.452,0,0,1,1.415,36.3C1.243,34.493-.086,20.376,0,16.916c.093-3.549,1.6-4.345,2.9-4.643.058-.013.112-.025.159-.039a3.19,3.19,0,0,1,1.853.08C4.686,9.96,4.6,6.948,5.439,5.505A4.3,4.3,0,0,1,9.563,3.374a3.5,3.5,0,0,1,1.052.285A4.258,4.258,0,0,1,13.5.167.955.955,0,0,1,13.6.14a4.3,4.3,0,0,1,3.535.542A4.931,4.931,0,0,1,18.83,3.773a3.342,3.342,0,0,1,.424-.347,3.466,3.466,0,0,1,3.07-.364c1.788.528,3.086,2.612,3.969,6.372a35.956,35.956,0,0,1,.775,4.961c.319,1.022,2.518,8.383,1.974,15.066a15.189,15.189,0,0,1,.451,3.86c.478,1.352,1.51,4.117,2.352,5.855.8-1.3,1.883-3.047,2.286-3.6.031-.119.076-.364.114-.566.355-1.917,1.3-7.01,7.153-9a.95.95,0,0,1,.119-.032,4.266,4.266,0,0,1,4.04,1.312,2.756,2.756,0,0,1,.18,3.049,9.556,9.556,0,0,1-1.367,2.091,3.618,3.618,0,0,0-.954,2.024,17.473,17.473,0,0,1-2.46,5.888c-.561.946-.816,3.971-.816,6.382,0,1.382-.476,2.767-2.8,5.033a29.5,29.5,0,0,0-3.9,5.313c-.465.747-.866,1.393-1.2,1.833a6.11,6.11,0,0,0-.36.593c-.859,1.525-2.357,4.182-8.03,4.182a23.171,23.171,0,0,1-3.044-.218.949.949,0,0,1,.25-1.881c6.95.924,8.286-1.446,9.17-3.015a7.369,7.369,0,0,1,.5-.8c.281-.374.662-.987,1.1-1.7A30.916,30.916,0,0,1,36.017,50.4c2.225-2.171,2.225-3.112,2.225-3.674,0-1.661.105-5.7,1.081-7.349A15.869,15.869,0,0,0,41.552,34.1a5.421,5.421,0,0,1,1.353-2.875,7.692,7.692,0,0,0,1.126-1.717c.325-.666.105-.95.023-1.057a2.44,2.44,0,0,0-2.11-.621c-4.746,1.641-5.48,5.61-5.833,7.522a2.831,2.831,0,0,1-.421,1.3c-.3.372-2.032,3.183-3.056,4.868a.949.949,0,0,1-1.56.09c-1.232-1.584-3.218-7.223-3.44-7.861a.947.947,0,0,1-.047-.421,13.192,13.192,0,0,0-.424-3.568.95.95,0,0,1-.025-.313c.589-6.7-1.887-14.507-1.912-14.585a.954.954,0,0,1-.043-.224c-.261-3.714-1.487-9.2-3.4-9.761a1.648,1.648,0,0,0-1.453.1,3.585,3.585,0,0,0-1.072,2.355.95.95,0,0,1-.939.871h-.007a.948.948,0,0,1-.944-.854q-.027-.271-.052-.544c-.182-1.923-.37-3.912-1.309-4.606a2.458,2.458,0,0,0-1.969-.22c-2.16.755-1.575,3.785-1.549,3.914a.949.949,0,0,1-1.836.473,1.474,1.474,0,0,0-1.3-1.115,2.411,2.411,0,0,0-2.27,1.2c-.768,1.326-.338,5.962.114,8.572a.949.949,0,0,1-1.853.4,1.862,1.862,0,0,0-.81-1.217,1.383,1.383,0,0,0-.948-.155c-.077.022-.163.042-.258.064-.573.131-1.359.311-1.426,2.843-.092,3.506,1.4,19.17,1.419,19.328a.95.95,0,0,1-.029.34,10.716,10.716,0,0,0-.046,5.917,15.138,15.138,0,0,1,.361,2.1.965.965,0,0,1,0,.141c-.723,10.477,7,19.812,7.083,19.906a.951.951,0,0,1,.212.467l5.5,35.947a.949.949,0,0,1-.794,1.081.968.968,0,0,1-.145.011M34.117,35.624h0" transform="translate(0 0)" fill="#1faaff"/>
    <path id="Path_148" data-name="Path 148" d="M256.115,553.271a.712.712,0,0,1-.63-.379c-8.552-16.16-12.427-40.112-12.465-40.352a.712.712,0,0,1,1.406-.223c.038.238,3.877,23.962,12.317,39.91a.712.712,0,0,1-.628,1.045" transform="translate(-214.189 -451.024)" fill="#1faaff"/>
    <path id="Path_149" data-name="Path 149" d="M49.631,137.8a.712.712,0,0,1-.69-.541c-.267-1.077-1.585-6.515-1.337-7.816a86.484,86.484,0,0,0-.874-9.6.712.712,0,1,1,1.412-.18c.186,1.456,1.1,8.785.86,10.046-.126.663.572,4.185,1.321,7.207a.713.713,0,0,1-.691.883" transform="translate(-41.182 -104.921)" fill="#1faaff"/>
    <path id="Path_150" data-name="Path 150" d="M94.945,66.21a.712.712,0,0,1-.679-.5c-.075-.239-1.826-5.886-1.65-9.951.168-3.864-1.533-13.731-1.55-13.83a.712.712,0,0,1,1.4-.243c.071.411,1.745,10.118,1.57,14.135-.166,3.814,1.568,9.408,1.586,9.464a.712.712,0,0,1-.679.924" transform="translate(-80.256 -36.222)" fill="#1faaff"/>
    <path id="Path_151" data-name="Path 151" d="M151.224,76.679a.712.712,0,0,1-.636-1.03c.047-.095.258-.731-.179-3.983-.274-2.04-.71-4.427-1.028-6.17-.2-1.084-.354-1.94-.422-2.431-.284-2.045-1.372-8.407-1.383-8.472a.712.712,0,1,1,1.4-.24c.045.262,1.1,6.448,1.39,8.516.064.462.218,1.3.413,2.371,1.144,6.275,1.655,9.893,1.079,11.045a.712.712,0,0,1-.637.394" transform="translate(-130.064 -47.385)" fill="#1faaff"/>
    <path id="Path_152" data-name="Path 152" d="M78.363,543.254a4.948,4.948,0,0,1-3.149-1.093.712.712,0,0,1,.95-1.06,3.567,3.567,0,0,0,2.6.709.712.712,0,0,1,.146,1.416,5.394,5.394,0,0,1-.548.028" transform="translate(-66.086 -476.764)" fill="#1faaff"/>
    <path id="Path_153" data-name="Path 153" d="M149.805,338.533a.712.712,0,0,1-.7-.571c-1.716-8.486-.07-13.733,1.613-16.64a11.288,11.288,0,0,1,4.261-4.421.712.712,0,0,1,.628,1.277,10.171,10.171,0,0,0-3.708,3.946c-1.529,2.689-3.012,7.571-1.4,15.556a.712.712,0,0,1-.7.853" transform="translate(-130.783 -279.25)" fill="#1faaff"/>
    <path id="Path_154" data-name="Path 154" d="M56.97,240.6c-1.4-.293-3.608-.721-4.882.038a1.406,1.406,0,0,0-.415.408.354.354,0,0,1-.332.157c-1.057-.031-2.124-.055-3.181-.046a13.577,13.577,0,0,0-2.665.194,1.287,1.287,0,0,0-.129.043c-.033.011-.051.031-.021,0-.514.355-1.067.645-1.6.954a23.987,23.987,0,0,1-4.012,1.863,5,5,0,0,1-.918.207l.217-.125c-.891.984-2.478,2.625-3.84,2.717a3.588,3.588,0,0,0,1.443-.934A13.9,13.9,0,0,0,37.8,244.8c.244-.3.483-.607.7-.913a.308.308,0,0,1,.217-.125,7.312,7.312,0,0,0,1.535-.579c1.03-.493,2.032-1.065,3.023-1.64.495-.292.995-.587,1.479-.888l-.085.067a1.826,1.826,0,0,1,1.017-.38,28.275,28.275,0,0,1,5.7.107l-.332.157c1.284-1.631,4.325-.727,5.91-.012" transform="translate(-31.014 -211.265)" fill="#1faaff"/>
    <path id="Path_155" data-name="Path 155" d="M25.931,281.143a24.48,24.48,0,0,0,2.87-.738,6.306,6.306,0,0,0,1.893-.924,1.526,1.526,0,0,0,.39-.443.35.35,0,0,1,.237-.179c.646-.133,1.3-.286,1.944-.449a18.326,18.326,0,0,0,2.748-.889,2.9,2.9,0,0,0,.886-.546,15.974,15.974,0,0,0,.913-1.369c.7-1.118,1.4-2.249,2.151-3.346a16.8,16.8,0,0,1,2.192-2.736,1.664,1.664,0,0,1,.416-.283,3.2,3.2,0,0,0-.621.76c-.357.554-.676,1.131-.994,1.708-1.054,1.886-2,3.835-3.175,5.657a2.026,2.026,0,0,1-.421.461,8.392,8.392,0,0,1-2.909,1.215,25.5,25.5,0,0,1-2.969.58l.273-.186c-.99,1.482-4.179,1.729-5.825,1.708" transform="translate(-22.855 -237.306)" fill="#1faaff"/>
    <path id="Path_156" data-name="Path 156" d="M115.54,325.751a85.974,85.974,0,0,1-8.044,3.832,22.215,22.215,0,0,0-2.5,1.2l-.15.111c1.64-2.045,8.039-4.538,10.689-5.142" transform="translate(-92.415 -287.115)" fill="#1faaff"/>
    <path id="Path_157" data-name="Path 157" d="M104.851,95.242a26.851,26.851,0,0,0,4.68-.4c-1.029,1.326-3.367,1.257-4.68.4" transform="translate(-92.415 -83.59)" fill="#1faaff"/>
    <path id="Path_158" data-name="Path 158" d="M110.7,167.458a12.282,12.282,0,0,1,2.543-.326c.417-.021.832-.03,1.245-.044a4.615,4.615,0,0,0,1.239-.149c-.85,1.175-3.811,1.055-5.027.52" transform="translate(-97.567 -147.138)" fill="#1faaff"/>
    <path id="Path_159" data-name="Path 159" d="M156.094,145.721a14.941,14.941,0,0,0,.457,4.393c.249,1.466.467,2.938.615,4.419a16.832,16.832,0,0,1,.114,2.791l-.03.184,0-.186c0-.1-.02-.265-.025-.369-.17-1.457-.57-3.841-.79-5.319-.144-.979-.294-1.957-.43-2.938a7.343,7.343,0,0,1,.087-2.976" transform="translate(-137.407 -128.437)" fill="#1faaff"/>
    <path id="Path_160" data-name="Path 160" d="M165.745,118.452a12.067,12.067,0,0,1,2.465-.157l1.194.024a4.1,4.1,0,0,0,1.195-.1c-.873,1.162-3.7.86-4.854.231" transform="translate(-146.086 -104.199)" fill="#1faaff"/>
    <path id="Path_161" data-name="Path 161" d="M176.463,178.529a17.778,17.778,0,0,1,2.749.142,13.65,13.65,0,0,0,2.682.147c-1.259,1.087-4.122.529-5.431-.289" transform="translate(-155.533 -157.342)" fill="#1faaff"/>
    <path id="Path_162" data-name="Path 162" d="M52.778,123.683a13.055,13.055,0,0,1,2.476-.352,17.019,17.019,0,0,0,2.429-.239c-.956,1.185-3.6,1.146-4.9.59" transform="translate(-46.518 -108.493)" fill="#1faaff"/>
    <path id="Path_163" data-name="Path 163" d="M61.98,198.38a11.961,11.961,0,0,1,2.357-.391c.385-.036.767-.064,1.145-.1a3.207,3.207,0,0,0,1.12-.257c-.608,1.294-3.487,1.28-4.622.751" transform="translate(-54.629 -174.189)" fill="#1faaff"/>
    <path id="Path_164" data-name="Path 164" d="M10.342,183.14a10.57,10.57,0,0,1,3.259.038,5.723,5.723,0,0,0,1.074.078c-.89.918-3.341.525-4.334-.116" transform="translate(-9.115 -161.318)" fill="#1faaff"/>
    <path id="Path_165" data-name="Path 165" d="M16.675,245.287a22.662,22.662,0,0,1,2.664-.3c.29-.028.576-.07.919-.1a1.838,1.838,0,0,1-.763.641,2.9,2.9,0,0,1-2.819-.236" transform="translate(-14.697 -215.838)" fill="#1faaff"/>
    <path id="Path_166" data-name="Path 166" d="M213.748,346.212c-.4.555-.8,1.109-1.143,1.69a3.769,3.769,0,0,0-.651,1.719.333.333,0,0,1-.262.334c-.479.134-.968.276-1.448.424a25.623,25.623,0,0,0-2.836,1.007,3.229,3.229,0,0,0-1.229.835,1.728,1.728,0,0,1,.422-.667,11.038,11.038,0,0,1,4.928-2.267l-.262.334a2.022,2.022,0,0,1,.109-.6,6.325,6.325,0,0,1,2.372-2.812" transform="translate(-181.725 -305.149)" fill="#1faaff"/>
    <path id="Path_167" data-name="Path 167" d="M270.551,725.139c1.429,3.667,2.465,7.461,3.546,11.238.246.87.49,1.747.807,2.595a11.977,11.977,0,0,1-1.072-2.019,52.192,52.192,0,0,1-3.28-11.813" transform="translate(-238.462 -639.133)" fill="#1faaff"/>
    <path id="Path_168" data-name="Path 168" d="M197.808,731.5a69.023,69.023,0,0,1,4.2,15.4c.132.88.246,1.764.325,2.655a13.967,13.967,0,0,1,.043,2.691c-.43-1.693-1.016-3.426-1.462-5.113a92.662,92.662,0,0,1-3.1-15.631" transform="translate(-174.347 -644.743)" fill="#1faaff"/>
    <path id="Path_169" data-name="Path 169" d="M294.66,304.071a8.027,8.027,0,0,0,3.357,2.247,5.15,5.15,0,0,0,.594.093c-1.647.6-3.38-.869-3.951-2.34" transform="translate(-259.711 -268.006)" fill="#1faaff"/>
    <path id="Path_170" data-name="Path 170" d="M265.122,348.16c-.167,1.759-.384,3.444.578,5.027-1.828-.9-1.772-3.622-.578-5.027" transform="translate(-232.925 -306.866)" fill="#1faaff"/>
    <path id="Path_171" data-name="Path 171" d="M149.3,497.48l3.074,1.583,3.442.33,1.73,2.994,2.717,2.139-.163,3.454,1.13,3.268-2,2.818-.817,3.36-3.21,1.287-2.5,2.385-3.4-.653-3.4.653-2.5-2.385-3.21-1.287-.817-3.36-2-2.818,1.13-3.268-.163-3.454,2.717-2.139,1.73-2.994,3.442-.33Z" transform="translate(-121.073 -438.475)" fill="#fff"/>
    <path id="Path_172" data-name="Path 172" d="M144.759,514.234a1.068,1.068,0,0,1-.2-.019l-3.194-.614-3.194.614a1.066,1.066,0,0,1-.938-.275l-2.355-2.244-3.019-1.21a1.067,1.067,0,0,1-.64-.739l-.768-3.161-1.885-2.651a1.067,1.067,0,0,1-.139-.967l1.062-3.074-.153-3.249a1.067,1.067,0,0,1,.406-.889l2.556-2.012,1.628-2.816a1.068,1.068,0,0,1,.822-.528l3.238-.311,2.892-1.489a1.068,1.068,0,0,1,.977,0l2.892,1.489,3.238.311a1.068,1.068,0,0,1,.822.528l1.628,2.816,2.556,2.012a1.067,1.067,0,0,1,.406.889l-.153,3.249,1.062,3.074a1.067,1.067,0,0,1-.139.967l-1.886,2.651-.768,3.161a1.067,1.067,0,0,1-.64.739l-3.019,1.21-2.355,2.244a1.068,1.068,0,0,1-.736.294m-3.4-2.788a1.067,1.067,0,0,1,.2.019l2.856.549,2.106-2.006a1.068,1.068,0,0,1,.339-.218l2.7-1.082.687-2.826a1.068,1.068,0,0,1,.167-.367l1.686-2.37-.95-2.749a1.067,1.067,0,0,1-.057-.4l.137-2.905-2.285-1.8a1.066,1.066,0,0,1-.264-.3l-1.455-2.518-2.895-.278a1.068,1.068,0,0,1-.387-.114l-2.586-1.332-2.586,1.332a1.067,1.067,0,0,1-.387.114l-2.895.278-1.455,2.518a1.067,1.067,0,0,1-.264.3l-2.285,1.8.137,2.905a1.065,1.065,0,0,1-.057.4l-.95,2.749,1.686,2.37a1.067,1.067,0,0,1,.168.367l.687,2.826,2.7,1.082a1.068,1.068,0,0,1,.339.218l2.106,2.006,2.856-.549a1.066,1.066,0,0,1,.2-.019m-3.074-20.315h0Z" transform="translate(-113.14 -430.543)" fill="#1faaff"/>
  </g>
</svg>
