<svg xmlns="http://www.w3.org/2000/svg" xmlns:xlink="http://www.w3.org/1999/xlink" width="88.147" height="93.508" viewBox="0 0 88.147 93.508">
  <defs>
    <clipPath id="clip-path">
      <rect id="Rectangle_20" data-name="Rectangle 20" width="88.147" height="93.508" transform="translate(0 0)" fill="none"/>
    </clipPath>
  </defs>
  <g id="Group_37" data-name="Group 37" clip-path="url(#clip-path)">
    <path id="Path_190" data-name="Path 190" d="M124.809,663.558a.942.942,0,0,1-.743-.361c-.043-.055-4.391-5.52-10.533-7.836-2.494-.94-7.661-1.243-13.132-1.564-8.328-.489-17.768-1.043-21.782-4.064a8.642,8.642,0,0,1-3.652-7.078,9.974,9.974,0,0,1,.72-3.769.944.944,0,0,1,1.724.768,7.172,7.172,0,0,0,2.343,8.57c3.559,2.679,12.7,3.215,20.758,3.688,5.862.344,10.925.641,13.687,1.683a29.329,29.329,0,0,1,11.352,8.438.944.944,0,0,1-.742,1.526" transform="translate(-68.534 -583.558)" fill="#1faaff"/>
    <path id="Path_191" data-name="Path 191" d="M632.047.787a42.783,42.783,0,0,0,0,6.476c.315,3.423,2.08,4.472,5.174,6.031,2.258,1.138,4.766,2.234,7.192,3.293a102.014,102.014,0,0,1,10.251,4.929,8.827,8.827,0,0,1,4.229,5.287,23.988,23.988,0,0,1,.649,6.537c.011,1.155.021,2.349.113,3.508.442,5.577,2.093,14.158,4.282,19.077.366.823.869,1.149,1.205,1.105s.594-.429.712-1.04a73.952,73.952,0,0,1-4.419-19.252c-.107-1.336-.142-2.625-.176-3.872-.152-5.547-.272-9.928-6.273-13.221-2.888-1.585-6.11-2.973-9.226-4.316-3.155-1.359-6.417-2.765-9.356-4.383-2.875-1.583-2.713-4.309-2.557-6.946a15.4,15.4,0,0,0-.028-3.214c-.056-.355-.229-.494-.542-.746L633.219,0h-.577l-.053.043c-.313.252-.486.39-.542.746" transform="translate(-577.702 0.002)" fill="#1faaff"/>
    <path id="Path_192" data-name="Path 192" d="M97.455,187.36a38.268,38.268,0,0,0,3.9-1.832,1.035,1.035,0,0,0,.227-1.208.737.737,0,0,0-.845-.427l-8.192,3.746a13.154,13.154,0,0,0-3.609,2.779c-2.865,3.322-2.892,6.7-2.923,10.6-.01,1.23-.02,2.5-.124,3.818a67.451,67.451,0,0,1-4.435,19.02v.635c.278.333.652.679.981.635s.668-.465.993-1.221c2.587-6.013,4.1-15.312,4.413-21.407.041-.8.029-1.585.017-2.34a15.916,15.916,0,0,1,.493-5.133c1.312-4.35,5.272-6.038,9.1-7.67" transform="translate(-74.467 -168.101)" fill="#1faaff"/>
    <path id="Path_193" data-name="Path 193" d="M358.811,14.887l.195-.076c1.732-.663,5.654-2.547,6.667-3.636a6.348,6.348,0,0,0,1.441-2.606,33.185,33.185,0,0,0,.265-7.782c-.056-.355-.229-.494-.542-.746L366.784,0h-.561c-.085.076-.172.14-.252.2-.218.161-.333.254-.367.43a13.555,13.555,0,0,0-.039,3.261c.159,2.508.338,5.351-2.209,6.878a25.037,25.037,0,0,1-2.475,1.137,16.294,16.294,0,0,0-3.418,1.7.925.925,0,0,0-.238.709.842.842,0,0,0,.354.593c.406.294.671.208,1.232-.015" transform="translate(-326.572 0.002)" fill="#1faaff"/>
    <path id="Path_194" data-name="Path 194" d="M740.242,220.975a42.278,42.278,0,0,1,6.686,2.314,41.758,41.758,0,0,1,6.275,3.258,48.6,48.6,0,0,1-12.961-5.572" transform="translate(-676.731 -202.016)" fill="#1faaff"/>
    <path id="Path_195" data-name="Path 195" d="M292.223,160.11c4.381-13.4,12.23-38.949,13.938-48.385l-3.876-1.575-34.279,55.961" transform="translate(-245.012 -100.7)" fill="#fff"/>
    <path id="Path_196" data-name="Path 196" d="M262.52,161.14a.515.515,0,0,1-.439-.784L296.361,104.4a.515.515,0,0,1,.633-.208l3.876,1.575a.515.515,0,0,1,.313.569c-1.706,9.43-9.465,34.724-13.955,48.453a.515.515,0,1,1-.979-.32c4.418-13.508,12-38.221,13.844-47.906l-3.082-1.252-34.051,55.588a.515.515,0,0,1-.439.246" transform="translate(-239.526 -95.214)" fill="#1faaff"/>
    <path id="Path_197" data-name="Path 197" d="M291.494,583.274a2.57,2.57,0,0,1-1.76-.8c-.528-.5-1.618-1.5-2.814-2.587.227.385.4.682.472.834a1.6,1.6,0,0,1-.427,2.046,1.962,1.962,0,0,1-2.506-.279c-.547-.5-2.086-2.338-4.041-4.692-.862-1.037-1.753-2.11-1.926-2.284a.944.944,0,0,1,1.335-1.335c.225.225.889,1.022,2.044,2.413.932,1.122,2.194,2.642,3.043,3.615-.82-1.366-2.085-3.423-3-4.9a.944.944,0,0,1,1.434-1.2c.251.226,6.163,5.556,7.689,7,.27.256.434.294.465.29a.435.435,0,0,0,.156-.263c-.5-.685-3.478-3.995-6.2-6.937a.944.944,0,0,1,1.245-1.407c.066.048,6.674,4.813,8.659,6.162a1.511,1.511,0,0,0,.706.311.661.661,0,0,0-.193-.545c-.8-.86-6.186-5.482-8.2-7.19a.944.944,0,0,1,1.046-1.557c.262.136,6.423,3.335,7.766,4.149.273.166.451.156.485.134a.6.6,0,0,0-.1-.436c-.595-.832-6.263-4.559-11.419-7.694a.944.944,0,0,1-.138-1.511c1.6-1.425,4.411-.31,6.465.5.483.191.939.372,1.257.468.37.111.614.017.684-.117s-.1-.282-.172-.341a42.486,42.486,0,0,0-5.938-2.629c-3.032-1.19-5.56-2.068-6.018-2.142-.2-.033-.486-.067-.813-.107a18.649,18.649,0,0,1-6.631-1.756c-2.4-1.333-29.744-14.468-30.02-14.6a.944.944,0,0,1,.817-1.7c1.129.542,27.67,13.291,30.12,14.652a17.115,17.115,0,0,0,5.944,1.532c.347.042.646.079.885.118,1.243.2,11.379,4,12.835,5.161a2.134,2.134,0,0,1,.665,2.692,2.4,2.4,0,0,1-2.9,1.048c-.4-.119-.866-.305-1.41-.521s-1.292-.512-2.026-.736c.9.563,1.946,1.226,3,1.908,5.894,3.814,6.278,4.519,6.463,4.857a2.207,2.207,0,0,1-.247,2.72,2.24,2.24,0,0,1-2.766.114c-.07-.043-.155-.092-.252-.148.95.842,1.709,1.536,2,1.849a2.36,2.36,0,0,1,.231,3.085c-.567.659-1.7,1-3.19-.008-.4-.274-.986-.681-1.66-1.157a8.069,8.069,0,0,1,.724.944,2.182,2.182,0,0,1-.7,2.59,1.915,1.915,0,0,1-1.159.391m.162-2.193h0Z" transform="translate(-222.692 -495.58)" fill="#1faaff"/>
    <path id="Path_198" data-name="Path 198" d="M920.617,506.292c.794,2.8,1.467,5.6,2.262,8.389.771,2.8,1.648,5.534,2.423,8.344a34.473,34.473,0,0,1-4.686-16.732" transform="translate(-841.629 -462.853)" fill="#1faaff"/>
    <path id="Path_199" data-name="Path 199" d="M523.513,378.494c.3-.967.63-1.924.845-2.9s.325-1.971.486-2.976a20.587,20.587,0,0,1,.7-2.986,47.592,47.592,0,0,1,2.222-5.675,55.252,55.252,0,0,0,2.62-5.429,25.881,25.881,0,0,1,1.04-2.85c-.3.968-.474,1.956-.717,2.946a21.161,21.161,0,0,1-1.725,4.236q-.644,1.36-1.216,2.752a41.49,41.49,0,0,0-2.4,7.1c-.205.989-.382,2-.687,2.967a21.586,21.586,0,0,1-1.169,2.812" transform="translate(-478.596 -325.162)" fill="#1faaff"/>
    <path id="Path_200" data-name="Path 200" d="M642.4,220.372a7.757,7.757,0,0,1-1.787,4.228,7.757,7.757,0,0,1,1.787-4.228" transform="translate(-585.651 -201.464)" fill="#1faaff"/>
    <path id="Path_201" data-name="Path 201" d="M531.445,346.292a11.755,11.755,0,0,1-1.292,2.306,11.6,11.6,0,0,1-1.7,2.021,8.087,8.087,0,0,1,3-4.327" transform="translate(-483.11 -316.581)" fill="#1faaff"/>
    <path id="Path_202" data-name="Path 202" d="M196.247,149.928s-10.937,43.24-6.448,51.657a80,80,0,0,0,27.609,3.2s-12.319-49.89-12.319-59.338c0,0-7.994,3.028-8.842,4.482" transform="translate(-172.526 -132.967)" fill="#fff"/>
    <path id="Path_203" data-name="Path 203" d="M207.466,199.941a85.483,85.483,0,0,1-15.283-1.4,61.755,61.755,0,0,1-8.027-1.955.514.514,0,0,1-.288-.245c-1.918-3.6-1.417-13.461,1.488-29.32,2.151-11.743,4.887-22.6,4.915-22.706a.514.514,0,0,1,.054-.133c.263-.452,1.066-1.253,4.974-3,2.094-.934,4.11-1.7,4.131-1.707a.515.515,0,0,1,.7.481c0,9.278,12.181,58.716,12.3,59.214a.515.515,0,0,1-.47.637c-1.537.088-3.039.128-4.494.128m-22.781-4.263a65.134,65.134,0,0,0,7.708,1.857,83.575,83.575,0,0,0,18.89,1.284C209.854,193,199.632,151.1,199.117,140.7c-3.137,1.227-7.247,3.089-7.869,3.947-.256,1.021-2.834,11.389-4.881,22.562-2.772,15.133-3.352,24.96-1.683,28.465" transform="translate(-167.048 -127.482)" fill="#1faaff"/>
    <path id="Path_204" data-name="Path 204" d="M636.178,745.962a.343.343,0,0,1-.343-.331l-.371-10.883a.343.343,0,1,1,.686-.023l.371,10.883a.343.343,0,0,1-.331.355h-.012" transform="translate(-580.943 -671.382)" fill="#1faaff"/>
    <path id="Path_205" data-name="Path 205" d="M676.166,750.755h-.015a.343.343,0,0,1-.328-.358l.371-8.471a.343.343,0,0,1,.686.03l-.371,8.471a.343.343,0,0,1-.343.328" transform="translate(-617.839 -677.969)" fill="#1faaff"/>
    <path id="Path_206" data-name="Path 206" d="M705.714,758.082l-.043,0a.343.343,0,0,1-.3-.383l.8-6.431a.343.343,0,1,1,.681.085l-.8,6.431a.343.343,0,0,1-.34.3" transform="translate(-644.851 -686.533)" fill="#1faaff"/>
    <path id="Path_207" data-name="Path 207" d="M618.51,819.012a.343.343,0,0,1-.168-.642l9.584-5.38a.343.343,0,0,1,.336.6l-9.584,5.38a.341.341,0,0,1-.168.044" transform="translate(-565.129 -743.197)" fill="#1faaff"/>
    <path id="Path_208" data-name="Path 208" d="M643.735,846.482a.343.343,0,0,1-.168-.643l11.068-6.183a.343.343,0,0,1,.335.6L643.9,846.438a.341.341,0,0,1-.167.044" transform="translate(-588.19 -767.574)" fill="#1faaff"/>
    <path id="Path_209" data-name="Path 209" d="M583.553,798.879a.343.343,0,0,1-.256-.571l4.489-5.05a.343.343,0,1,1,.513.456l-4.489,5.051a.342.342,0,0,1-.257.115" transform="translate(-533.172 -725.091)" fill="#1faaff"/>
    <path id="Path_210" data-name="Path 210" d="M553.468,744.312a.343.343,0,0,1-.271-.553l6.57-8.514a.343.343,0,0,1,.543.419l-6.57,8.514a.343.343,0,0,1-.272.134" transform="translate(-505.667 -672.04)" fill="#1faaff"/>
    <path id="Path_211" data-name="Path 211" d="M511.126,712.517a.343.343,0,0,1-.279-.543l5.009-6.987a.343.343,0,1,1,.558.4l-5.009,6.987a.342.342,0,0,1-.279.143" transform="translate(-466.958 -644.368)" fill="#1faaff"/>
    <path id="Path_212" data-name="Path 212" d="M348.667,157c.052,1.719.036,3.436.234,5.116a38.8,38.8,0,0,0,1.066,4.98,42.654,42.654,0,0,1,1.29,10.228c-.532-3.387-1.133-6.742-1.956-10.064A21.635,21.635,0,0,1,348.667,157" transform="translate(-318.452 -143.531)" fill="#1faaff"/>
    <path id="Path_213" data-name="Path 213" d="M394.483,497.826a29.671,29.671,0,0,1,1.5,4.6,29.362,29.362,0,0,1,.832,4.765,29.355,29.355,0,0,1-1.5-4.6,29.67,29.67,0,0,1-.832-4.766" transform="translate(-360.637 -455.113)" fill="#1faaff"/>
    <path id="Path_214" data-name="Path 214" d="M287.017,175.312c-.935.3-.954,1.7-1.139,2.51-.542,2.821-1.023,5.977-1.574,8.8a20.648,20.648,0,0,1,0-3.009,28.145,28.145,0,0,1,1.051-5.915c.275-.845.564-2.328,1.662-2.386" transform="translate(-259.861 -160.27)" fill="#1faaff"/>
    <path id="Path_215" data-name="Path 215" d="M275.6,440.505a6.1,6.1,0,0,1,0,4.058,6.1,6.1,0,0,1,0-4.058" transform="translate(-251.637 -402.71)" fill="#1faaff"/>
    <path id="Path_216" data-name="Path 216" d="M128.783,668.909a13.732,13.732,0,0,0,.354,2.5,1.683,1.683,0,0,0,.42.608,5.746,5.746,0,0,0,1.277,1.016,6.962,6.962,0,0,0,1.552.665,3.752,3.752,0,0,1-1.733-.3,3.614,3.614,0,0,1-1.983-1.845,5.532,5.532,0,0,1,.112-2.637" transform="translate(-117.531 -611.517)" fill="#1faaff"/>
    <path id="Path_217" data-name="Path 217" d="M626.857,392.484c-.677,0-1.109-.017-1.184-.021a.944.944,0,0,1,.082-1.886c.08,0,8.11.319,11.807-2.034,2.927-1.863,3.759-9.125,3.833-11.766a.944.944,0,0,1,1.887.052,35.673,35.673,0,0,1-.654,5.475c-.806,4-2.17,6.634-4.052,7.832-3.31,2.107-9.2,2.348-11.719,2.348" transform="translate(-571.166 -343.612)" fill="#1faaff"/>
    <path id="Path_218" data-name="Path 218" d="M651.22,491.04h-3.27a.944.944,0,0,1,0-1.888h3.27a.944.944,0,0,1,0,1.888" transform="translate(-591.494 -447.183)" fill="#1faaff"/>
    <path id="Path_219" data-name="Path 219" d="M798,582.356a.944.944,0,0,1-.872-.581c-1.412-3.388-1.87-14.918-1.889-15.407a.944.944,0,1,1,1.886-.072c.125,3.238.681,12.2,1.745,14.754a.944.944,0,0,1-.871,1.307" transform="translate(-727.011 -516.878)" fill="#1faaff"/>
    <path id="Path_220" data-name="Path 220" d="M27.653,998.6a.944.944,0,0,1-.587-1.684l2.279-1.805a.944.944,0,1,1,1.172,1.48L28.238,998.4a.939.939,0,0,1-.585.2" transform="translate(-24.417 -909.549)" fill="#1faaff"/>
    <path id="Path_221" data-name="Path 221" d="M87.7,917.766a.944.944,0,0,1-.6-1.67l5.695-4.721a.944.944,0,1,1,1.2,1.453L88.3,917.549a.939.939,0,0,1-.6.217" transform="translate(-79.311 -832.982)" fill="#1faaff"/>
    <path id="Path_222" data-name="Path 222" d="M122.957,1055.156a.944.944,0,0,1-.858-1.337l.626-1.369a.944.944,0,0,1,1.717.785l-.626,1.369a.944.944,0,0,1-.859.552" transform="translate(-111.545 -961.647)" fill="#1faaff"/>
    <path id="Path_223" data-name="Path 223" d="M156.423,951.893a.944.944,0,0,1-.84-1.373l2.506-4.908a.944.944,0,0,1,1.681.858l-2.506,4.908a.944.944,0,0,1-.841.515" transform="translate(-142.139 -864.01)" fill="#1faaff"/>
    <path id="Path_224" data-name="Path 224" d="M61.328,877.651a.944.944,0,0,1-.246-1.855l6.079-1.642a.944.944,0,0,1,.492,1.822l-6.078,1.642a.944.944,0,0,1-.247.033" transform="translate(-55.204 -799.123)" fill="#1faaff"/>
    <path id="Path_225" data-name="Path 225" d="M.943,907.722A.944.944,0,0,1,.7,905.867l1.3-.351a.944.944,0,1,1,.492,1.822l-1.3.351a.947.947,0,0,1-.247.033" transform="translate(0 -827.794)" fill="#1faaff"/>
    <path id="Path_226" data-name="Path 226" d="M211.688,704.9l2.183,1.739,2.672.806.9,2.643,1.812,2.123-.675,2.708.377,2.766-2.032,1.913-1.178,2.53-2.744.511-2.359,1.492-2.585-1.054-2.791-.02-1.6-2.284-2.337-1.526-.115-2.789-1.141-2.547,1.411-2.408.417-2.76,2.489-1.263,1.843-2.1,2.777.283Z" transform="translate(-182.903 -644.422)" fill="#fff"/>
    <path id="Path_227" data-name="Path 227" d="M200.585,715.02a.941.941,0,0,1-.356-.07l-2.417-.985-2.61-.019a.944.944,0,0,1-.765-.4l-1.5-2.135-2.185-1.427a.944.944,0,0,1-.427-.751l-.108-2.607-1.067-2.382a.944.944,0,0,1,.047-.863l1.319-2.252.39-2.58a.944.944,0,0,1,.506-.7l2.327-1.181,1.723-1.96a.944.944,0,0,1,.8-.316l2.6.265,2.509-.717a.943.943,0,0,1,.847.169l2.041,1.626,2.5.753a.944.944,0,0,1,.621.6l.838,2.471,1.695,1.984a.944.944,0,0,1,.2.841l-.631,2.532.353,2.586a.944.944,0,0,1-.288.815l-1.9,1.789-1.1,2.366a.944.944,0,0,1-.683.53l-2.566.478-2.206,1.395a.944.944,0,0,1-.5.146m-4.883-2.958,2.3.017a.945.945,0,0,1,.349.07l2.135.87,1.948-1.232a.942.942,0,0,1,.332-.13l2.266-.422.973-2.09a.943.943,0,0,1,.209-.289l1.678-1.58-.312-2.284a.944.944,0,0,1,.019-.356l.558-2.237-1.5-1.753a.944.944,0,0,1-.176-.31l-.74-2.183-2.207-.665a.945.945,0,0,1-.316-.165l-1.8-1.436-2.216.633a.944.944,0,0,1-.355.031l-2.293-.234-1.522,1.731a.944.944,0,0,1-.282.218L192.7,699.31l-.345,2.279a.946.946,0,0,1-.119.336l-1.165,1.989.942,2.1a.944.944,0,0,1,.082.347l.1,2.3,1.93,1.26a.941.941,0,0,1,.256.248Z" transform="translate(-172.846 -634.366)" fill="#1faaff"/>
  </g>
</svg>
