<svg id="Group_31" data-name="Group 31" xmlns="http://www.w3.org/2000/svg" xmlns:xlink="http://www.w3.org/1999/xlink" width="64.5" height="94.031" viewBox="0 0 64.5 94.031">
  <defs>
    <clipPath id="clip-path">
      <rect id="Rectangle_17" data-name="Rectangle 17" width="64.5" height="94.031" fill="none"/>
    </clipPath>
  </defs>
  <g id="Group_30" data-name="Group 30" clip-path="url(#clip-path)">
    <path id="Path_126" data-name="Path 126" d="M18.064,94.031a19.275,19.275,0,0,1-2.566-.136c-2.918-.417-3.509-1.024-4.343-2.527l-.022-.04a.855.855,0,0,1-.066-.152,3.3,3.3,0,0,1,.224-3.045c1.028-1.428,3.291-1.454,5.288-1.477.6-.007,1.173-.014,1.624-.061,1.416-.149,2.689-2.728,3.919-5.222.5-1.008,1.012-2.051,1.577-3.039,4.139-7.159,2.341-14.359,1.267-18.66-.167-.667-.31-1.243-.42-1.763C23.772,54.233,3.556,19.219,1.078,15.164c-2.438-3.99.007-13.1.112-13.489a.852.852,0,0,1,1.644.448c-.663,2.433-2.008,9.36-.3,12.153,1.229,2.01,6.992,11.93,12.346,21.455C22.029,48.456,25.842,55.8,26.212,57.557c.1.489.243,1.051.406,1.7,1.136,4.552,3.038,12.17-1.443,19.922-.537.94-1.04,1.959-1.526,2.944-1.5,3.042-2.919,5.915-5.269,6.162-.53.056-1.139.063-1.783.07-1.434.016-3.4.039-3.924.769a1.7,1.7,0,0,0-.009,1.45c.553.995.747,1.3,3.075,1.633a55.21,55.21,0,0,0,8.97-.242c1.378-1.431,8.532-8.622,14-9.64,3.539-.658,8.034-2.661,9.541-5.5a3.929,3.929,0,0,0,.123-3.61,37.04,37.04,0,0,0-4.531-6.792c-2.746-3.579-5.585-7.28-6.088-10.8-.2-1.411-.313-3.651-.441-6.244-.4-7.974-.994-20.025-4.874-25.166-1.51-2-3.145-3.806-4.588-5.4A34.978,34.978,0,0,1,23.3,13.1,6.332,6.332,0,0,1,22.72,7.2a14.158,14.158,0,0,1,6.3-7.116.852.852,0,0,1,.717,1.545,12.708,12.708,0,0,0-5.456,6.247c-1.307,3.022,1.269,5.866,4.834,9.8,1.467,1.619,3.129,3.454,4.685,5.516C38,28.748,38.612,41.113,39.018,49.3c.127,2.551.236,4.754.426,6.087.439,3.076,3.141,6.6,5.753,10a38.047,38.047,0,0,1,4.741,7.149,5.68,5.68,0,0,1-.18,5.089C47.977,80.981,43.084,83.245,39.025,84c-5.4,1.005-13.219,9.283-13.3,9.366a.852.852,0,0,1-.537.265c-.21.021-4.038.4-7.126.4" transform="translate(0 0)" fill="#1faaff"/>
    <path id="Path_127" data-name="Path 127" d="M580.725,326.559a1.041,1.041,0,0,1-.858-1.629l1.862-2.722a1.041,1.041,0,0,1,1.719,1.176l-1.862,2.722a1.04,1.04,0,0,1-.86.453" transform="translate(-524.818 -291.301)" fill="#1faaff"/>
    <path id="Path_128" data-name="Path 128" d="M501.993,395.838a1.041,1.041,0,0,1-.845-1.648l4.89-6.819a1.041,1.041,0,1,1,1.692,1.213l-4.89,6.819a1.04,1.04,0,0,1-.847.435" transform="translate(-453.538 -350.313)" fill="#1faaff"/>
    <path id="Path_129" data-name="Path 129" d="M644.659,418.691a1.041,1.041,0,0,1-.5-1.956l1.5-.817a1.041,1.041,0,0,1,1,1.829l-1.5.817a1.037,1.037,0,0,1-.5.127" transform="translate(-582.699 -376.437)" fill="#1faaff"/>
    <path id="Path_130" data-name="Path 130" d="M539.083,460.146a1.041,1.041,0,0,1-.538-1.933l5.355-3.225a1.041,1.041,0,1,1,1.074,1.784L539.62,460a1.037,1.037,0,0,1-.536.149" transform="translate(-487.116 -411.788)" fill="#1faaff"/>
    <path id="Path_131" data-name="Path 131" d="M462.427,374.223a1.042,1.042,0,0,1-1.023-1.242l1.376-7.009a1.041,1.041,0,1,1,2.043.4l-1.376,7.009a1.041,1.041,0,0,1-1.021.841" transform="translate(-417.715 -330.572)" fill="#1faaff"/>
    <path id="Path_132" data-name="Path 132" d="M486.246,305.591a1.042,1.042,0,0,1-1.023-1.242l.294-1.5a1.041,1.041,0,0,1,2.043.4l-.294,1.5a1.041,1.041,0,0,1-1.021.841" transform="translate(-439.28 -273.427)" fill="#1faaff"/>
    <path id="Path_133" data-name="Path 133" d="M316.783,515.549l2.212,2.142,2.848,1.169.7,3,1.764,2.523-1.03,2.9.12,3.077-2.435,1.884L319.4,534.9l-3.067.269-2.749,1.387-2.726-1.432L307.8,534.8l-1.519-2.678-2.4-1.924.17-3.074-.982-2.918,1.806-2.494.752-2.986,2.867-1.122,2.247-2.105,3.019.606Z" transform="translate(-274.379 -466.707)" fill="#fff"/>
    <path id="Path_134" data-name="Path 134" d="M303.626,527.634a1.04,1.04,0,0,1-.484-.119l-2.548-1.339-2.863-.3a1.041,1.041,0,0,1-.8-.522l-1.42-2.5-2.247-1.8a1.041,1.041,0,0,1-.389-.87l.159-2.874-.918-2.729a1.041,1.041,0,0,1,.143-.942l1.688-2.332.7-2.792a1.041,1.041,0,0,1,.63-.715l2.681-1.049,2.1-1.968a1.04,1.04,0,0,1,.917-.261l2.822.567,2.831-.52a1.041,1.041,0,0,1,.913.276l2.068,2,2.663,1.093a1.041,1.041,0,0,1,.618.726l.657,2.8,1.649,2.359a1.041,1.041,0,0,1,.128.945l-.963,2.713.112,2.877a1.041,1.041,0,0,1-.4.864l-2.277,1.762-1.461,2.48a1.041,1.041,0,0,1-.806.509l-2.868.251-2.57,1.3a1.041,1.041,0,0,1-.469.112m-5.147-3.773,2.529.264a1.041,1.041,0,0,1,.376.114l2.251,1.183,2.27-1.145a1.044,1.044,0,0,1,.378-.108l2.533-.222,1.291-2.191a1.038,1.038,0,0,1,.26-.295l2.011-1.556-.1-2.541a1.039,1.039,0,0,1,.059-.389l.85-2.4-1.457-2.084a1.04,1.04,0,0,1-.16-.359l-.58-2.476-2.352-.966a1.04,1.04,0,0,1-.329-.215l-1.827-1.769-2.5.46a1.042,1.042,0,0,1-.393,0l-2.493-.5-1.856,1.739a1.041,1.041,0,0,1-.333.21l-2.368.927-.621,2.466a1.04,1.04,0,0,1-.166.356l-1.491,2.06.811,2.41a1.04,1.04,0,0,1,.053.39l-.141,2.539,1.985,1.589a1.039,1.039,0,0,1,.255.3Z" transform="translate(-264.42 -456.748)" fill="#1faaff"/>
    <path id="Path_135" data-name="Path 135" d="M190.907,44.8c-1.1,2.409-2.518,4.907-2.057,7.618a11.4,11.4,0,0,0,1.585,3.628,10.194,10.194,0,0,0,2.5,3.172A5.58,5.58,0,0,1,191.247,58a12.8,12.8,0,0,1-1.314-1.632,9.825,9.825,0,0,1-1.828-3.815c-.5-2.867,1.128-5.58,2.8-7.751" transform="translate(-170.218 -40.562)" fill="#1faaff"/>
    <path id="Path_136" data-name="Path 136" d="M307.955,747.917a4.572,4.572,0,0,1,.843,5.7,5.044,5.044,0,0,1-2.447,2.041c-.469.213-.949.382-1.394.554a40.255,40.255,0,0,0-11.395,6.353c2.735-3.567,6.839-5.881,11-7.406.4-.139.979-.338,1.358-.493a4.972,4.972,0,0,0,1.7-1.03,4.513,4.513,0,0,0,.333-5.724" transform="translate(-265.777 -677.128)" fill="#1faaff"/>
    <path id="Path_137" data-name="Path 137" d="M43.43,60.781a27.517,27.517,0,0,1-.089,2.8,8.519,8.519,0,0,0-.021,1.743,9.538,9.538,0,0,0,.768,2.474,27.469,27.469,0,0,0,3.427,6.4,8.91,8.91,0,0,1-2.7-2.636c-1.068-1.584-2.454-4.266-2.493-6.169a6.762,6.762,0,0,1,.284-1.934,27.486,27.486,0,0,1,.822-2.675" transform="translate(-38.316 -55.028)" fill="#1faaff"/>
    <path id="Path_138" data-name="Path 138" d="M249.67,479.273a17.021,17.021,0,0,1,4.228,8.5c-.652-1.228-1.534-2.964-2.188-4.2a39.287,39.287,0,0,1-2.039-4.3" transform="translate(-226.039 -433.91)" fill="#1faaff"/>
    <path id="Path_139" data-name="Path 139" d="M308.166,740.667a30.087,30.087,0,0,1,.474-3.525,29.428,29.428,0,0,1,.783-3.469,10.744,10.744,0,0,1-1.257,6.994" transform="translate(-278.998 -664.232)" fill="#1faaff"/>
    <path id="Path_140" data-name="Path 140" d="M170.748,938.354a7.251,7.251,0,0,1,4.641-.875,4.5,4.5,0,0,0,1.22.2A2.7,2.7,0,0,0,178.2,936.6c.121-.136.24-.276.366-.414a4.686,4.686,0,0,1-.441,1.033,2.074,2.074,0,0,1-2.055,1.145c-.38-.038-.715-.137-1.08-.187a21.2,21.2,0,0,0-4.245.176" transform="translate(-154.587 -847.578)" fill="#1faaff"/>
  </g>
</svg>
