<svg xmlns="http://www.w3.org/2000/svg" xmlns:xlink="http://www.w3.org/1999/xlink" width="84" height="89.491" viewBox="0 0 84 89.491">
  <defs>
    <clipPath id="clip-path">
      <rect id="Rectangle_13" data-name="Rectangle 13" width="84" height="89.491" transform="translate(0 0)" fill="none"/>
    </clipPath>
  </defs>
  <g id="Group_18" data-name="Group 18" transform="translate(0 -0.004)">
    <g id="Group_17" data-name="Group 17" transform="translate(0 0.004)" clip-path="url(#clip-path)">
      <path id="Path_28" data-name="Path 28" d="M550.6.82a44.255,44.255,0,0,0,0,6.7c.326,3.543,2.153,4.629,5.355,6.243,2.337,1.178,4.933,2.312,7.444,3.409a105.576,105.576,0,0,1,10.61,5.1,9.136,9.136,0,0,1,4.377,5.472,24.828,24.828,0,0,1,.672,6.766c.011,1.2.022,2.432.117,3.631.458,5.772,2.166,14.654,4.432,19.745.379.852.9,1.189,1.247,1.144s.615-.444.737-1.077a76.541,76.541,0,0,1-4.574-19.926c-.111-1.383-.147-2.717-.183-4.008-.157-5.741-.282-10.275-6.493-13.684-2.99-1.641-6.324-3.078-9.549-4.467-3.265-1.407-6.642-2.862-9.684-4.536-2.976-1.638-2.808-4.46-2.647-7.189A15.939,15.939,0,0,0,552.424.82c-.058-.368-.237-.512-.561-.772L551.808,0h-.6l-.055.044c-.324.261-.5.4-.561.772" transform="translate(-501.581 -0.004)" fill="#1faaff"/>
      <path id="Path_29" data-name="Path 29" d="M16.56,187.489a39.607,39.607,0,0,0,4.036-1.9,1.071,1.071,0,0,0,.235-1.25.762.762,0,0,0-.874-.441l-8.478,3.877a13.616,13.616,0,0,0-3.735,2.876c-2.966,3.438-2.993,6.931-3.025,10.976-.01,1.273-.02,2.59-.128,3.952A69.813,69.813,0,0,1,0,225.268v.657c.288.345.675.7,1.015.658s.691-.481,1.028-1.264c2.678-6.224,4.245-15.848,4.568-22.156.043-.832.03-1.64.017-2.422a16.473,16.473,0,0,1,.511-5.313c1.357-4.5,5.456-6.25,9.42-7.939" transform="translate(0 -167.555)" fill="#1faaff"/>
      <path id="Path_30" data-name="Path 30" d="M277.411,15.415l.2-.079c1.792-.686,5.852-2.637,6.9-3.763A6.57,6.57,0,0,0,286,8.876a34.347,34.347,0,0,0,.275-8.055c-.058-.368-.237-.512-.561-.772L285.663,0h-.581c-.088.078-.178.145-.261.206-.225.167-.344.263-.38.446a14.03,14.03,0,0,0-.04,3.375c.164,2.6.35,5.538-2.286,7.119a25.937,25.937,0,0,1-2.562,1.177,16.868,16.868,0,0,0-3.538,1.755.958.958,0,0,0-.246.734.872.872,0,0,0,.366.614c.42.3.695.215,1.275-.016" transform="translate(-251.276 -0.005)" fill="#1faaff"/>
      <path id="Path_31" data-name="Path 31" d="M781,616.717a.977.977,0,0,1-.064-1.952l3.087-.205a.977.977,0,1,1,.13,1.949l-3.088.205-.066,0" transform="translate(-710.754 -559.984)" fill="#1faaff"/>
      <path id="Path_32" data-name="Path 32" d="M647.067,620.408a.977.977,0,0,1-.042-1.953l7.865-.348a.977.977,0,0,1,.086,1.952l-7.865.348h-.044" transform="translate(-588.716 -563.217)" fill="#1faaff"/>
      <path id="Path_33" data-name="Path 33" d="M763.889,715.4a.974.974,0,0,1-.385-.079l-1.472-.632a.977.977,0,1,1,.771-1.8l1.472.632a.977.977,0,0,1-.386,1.875" transform="translate(-693.822 -649.511)" fill="#1faaff"/>
      <path id="Path_34" data-name="Path 34" d="M651.948,673.712a.971.971,0,0,1-.346-.064l-5.484-2.079a.977.977,0,0,1,.693-1.827l5.484,2.079a.977.977,0,0,1-.346,1.89" transform="translate(-588.166 -610.21)" fill="#1faaff"/>
      <path id="Path_35" data-name="Path 35" d="M638.172,549.34a.977.977,0,0,1-.445-1.847l5.967-3.05a.977.977,0,0,1,.889,1.74l-5.967,3.05a.975.975,0,0,1-.444.107" transform="translate(-580.609 -495.997)" fill="#1faaff"/>
      <path id="Path_36" data-name="Path 36" d="M748.295,517.663a.977.977,0,0,1-.445-1.847l1.274-.651a.977.977,0,0,1,.889,1.74l-1.274.651a.974.974,0,0,1-.444.107" transform="translate(-680.953 -469.32)" fill="#1faaff"/>
      <path id="Path_37" data-name="Path 37" d="M122.859,616.791l-.066,0-3-.2a.977.977,0,0,1,.13-1.949l3,.2a.977.977,0,0,1-.064,1.951" transform="translate(-108.323 -560.056)" fill="#1faaff"/>
      <path id="Path_38" data-name="Path 38" d="M205.423,620.379h-.044l-7.649-.339a.977.977,0,0,1,.087-1.952l7.648.339a.977.977,0,0,1-.042,1.953" transform="translate(-179.321 -563.199)" fill="#1faaff"/>
      <path id="Path_39" data-name="Path 39" d="M155.608,712.75a.977.977,0,0,1-.386-1.875l1.432-.615a.977.977,0,1,1,.771,1.8l-1.432.615a.974.974,0,0,1-.385.08" transform="translate(-140.899 -647.115)" fill="#1faaff"/>
      <path id="Path_40" data-name="Path 40" d="M224.431,672.215a.977.977,0,0,1-.346-1.89l5.333-2.022a.977.977,0,0,1,.693,1.827l-5.333,2.022a.972.972,0,0,1-.346.064" transform="translate(-203.61 -608.897)" fill="#1faaff"/>
      <path id="Path_41" data-name="Path 41" d="M233.01,551.274a.973.973,0,0,1-.444-.107l-5.8-2.966a.977.977,0,0,1,.889-1.74l5.8,2.966a.977.977,0,0,1-.445,1.847" transform="translate(-206.141 -497.836)" fill="#1faaff"/>
      <path id="Path_42" data-name="Path 42" d="M172.75,520.471a.973.973,0,0,1-.444-.107l-1.239-.633a.977.977,0,0,1,.889-1.74l1.239.633a.977.977,0,0,1-.445,1.847" transform="translate(-155.391 -471.895)" fill="#1faaff"/>
      <path id="Path_43" data-name="Path 43" d="M378.8,544.638l.881,2.751,1.838,2.229-.747,2.791.342,2.868-2.137,1.944-1.263,2.6-2.849.48-2.467,1.5-2.656-1.136-2.888-.07-1.62-2.392-2.392-1.62-.07-2.888-1.136-2.656,1.5-2.467.48-2.849,2.6-1.263,1.944-2.137,2.869.342,2.791-.747,2.229,1.838Z" transform="translate(-329.526 -493.795)" fill="#fff"/>
      <path id="Path_44" data-name="Path 44" d="M362.38,552.755a.977.977,0,0,1-.384-.079l-2.483-1.062-2.7-.065a.977.977,0,0,1-.785-.429l-1.515-2.236-2.236-1.515a.977.977,0,0,1-.429-.785l-.066-2.7L350.72,541.4a.976.976,0,0,1,.064-.892l1.4-2.307.449-2.663a.977.977,0,0,1,.536-.716l2.429-1.181,1.818-2a.977.977,0,0,1,.838-.313l2.682.319,2.609-.7a.977.977,0,0,1,.874.19l2.084,1.719,2.572.824a.976.976,0,0,1,.632.632l.824,2.572,1.719,2.083a.977.977,0,0,1,.19.874l-.7,2.609.319,2.682a.977.977,0,0,1-.313.838l-2,1.818-1.181,2.429a.977.977,0,0,1-.716.536l-2.663.449-2.307,1.4a.977.977,0,0,1-.508.142m-5.017-3.147,2.385.058a.98.98,0,0,1,.36.078l2.194.938,2.038-1.241a.978.978,0,0,1,.346-.129l2.353-.4,1.043-2.145a.975.975,0,0,1,.221-.3l1.765-1.606-.282-2.369a.978.978,0,0,1,.026-.368l.616-2.3-1.518-1.84a.977.977,0,0,1-.177-.324l-.728-2.272-2.272-.727a.979.979,0,0,1-.324-.177l-1.84-1.518-2.3.616a.977.977,0,0,1-.368.026l-2.369-.282-1.606,1.765a.976.976,0,0,1-.3.221l-2.146,1.044-.4,2.352a.978.978,0,0,1-.129.346l-1.241,2.038.938,2.194a.975.975,0,0,1,.078.36l.058,2.385,1.975,1.338a.977.977,0,0,1,.261.261Z" transform="translate(-319.503 -483.772)" fill="#1faaff"/>
      <path id="Path_45" data-name="Path 45" d="M459.291,197.508a.8.8,0,0,1-.8-.8V171.133a.8.8,0,1,1,1.6,0v25.575a.8.8,0,0,1-.8.8" transform="translate(-417.777 -155.208)" fill="#1faaff"/>
      <path id="Path_46" data-name="Path 46" d="M707.471,334.18a.836.836,0,0,1-.094-.005.8.8,0,0,1-.7-.887c.891-7.572,5.615-10.163,5.816-10.27a.8.8,0,0,1,.753,1.41,8.4,8.4,0,0,0-2.194,1.982,13.551,13.551,0,0,0-2.787,7.064.8.8,0,0,1-.793.706" transform="translate(-643.916 -294.247)" fill="#1faaff"/>
      <path id="Path_47" data-name="Path 47" d="M157.921,334.181a.8.8,0,0,1-.793-.706,13.552,13.552,0,0,0-2.787-7.064,8.394,8.394,0,0,0-2.194-1.983.8.8,0,0,1,.753-1.41c.2.107,4.925,2.7,5.816,10.27a.8.8,0,0,1-.7.887.83.83,0,0,1-.094.005" transform="translate(-138.254 -294.249)" fill="#1faaff"/>
      <path id="Path_48" data-name="Path 48" d="M202.538,200.511c-2.926,1.7-6.059,3.05-9.1,4.5a34.23,34.23,0,0,0-4.06,2.146c.093-.126.186-.255.288-.374,2.612-2.966,9-5.552,12.876-6.27" transform="translate(-172.557 -182.705)" fill="#1faaff"/>
      <path id="Path_49" data-name="Path 49" d="M627.021,194.864a43.757,43.757,0,0,1,6.92,2.4,43.218,43.218,0,0,1,6.495,3.372,50.294,50.294,0,0,1-13.414-5.767" transform="translate(-571.34 -177.56)" fill="#1faaff"/>
      <path id="Path_50" data-name="Path 50" d="M419.649,314.313c.478,1.843.869,15.886.388,17.73-.481-1.843-1.055-15.885-.577-17.73" transform="translate(-382.408 -289.477)" fill="#1faaff"/>
      <path id="Path_51" data-name="Path 51" d="M377.472,800c.419.511.827,1.03,1.229,1.554.239.3.5.7.862.807.389.1.665-.218,1-.427a3.713,3.713,0,0,1,3.436-.122,14.534,14.534,0,0,1,2.328,1.342,2.444,2.444,0,0,0,2.2.457c1.233-.386,2.052-1.489,3.086-2.232a4.371,4.371,0,0,1,3.862-.706,4.935,4.935,0,0,0-4.5,1.971c-.886.953-2.261,2.052-3.718,1.7a8.758,8.758,0,0,1-2.4-1.309,5.807,5.807,0,0,0-2.28-.948,2.762,2.762,0,0,0-1.734.283,2.427,2.427,0,0,1-.987.435c-.683.053-1.083-.6-1.371-1.1-.343-.565-.679-1.132-1-1.708" transform="translate(-343.951 -728.955)" fill="#1faaff"/>
      <path id="Path_52" data-name="Path 52" d="M178.289,828.869a.8.8,0,0,1-.743-1.093c2.582-6.54,2.209-15.275,2.2-15.363a.8.8,0,0,1,1.6-.075c.017.371.4,9.16-2.315,16.025a.8.8,0,0,1-.744.506" transform="translate(-161.728 -739.507)" fill="#1faaff"/>
      <path id="Path_53" data-name="Path 53" d="M716.351,835.788a.8.8,0,0,1-.744-.506,47.461,47.461,0,0,1-2.721-15.314.8.8,0,0,1,.8-.8h0a.8.8,0,0,1,.8.8c0,.081.021,8.168,2.609,14.725a.8.8,0,0,1-.743,1.093" transform="translate(-649.58 -746.426)" fill="#1faaff"/>
      <path id="Path_54" data-name="Path 54" d="M240.521,888.91a25.394,25.394,0,0,1-2.488,15.729c.4-2.654.917-5.218,1.321-7.851.43-2.628.729-5.231,1.166-7.878" transform="translate(-216.895 -817.784)" fill="#1faaff"/>
      <path id="Path_55" data-name="Path 55" d="M671.467,867.5c-.066,2.828.759,5.437,1.254,8.131.418,2.037.656,4.13.945,6.2.1.688.2,1.372.34,2.054a14.379,14.379,0,0,1-.644-1.934c-.528-1.985-.869-4.044-1.32-6.059-.522-2.692-1.262-5.632-.576-8.4" transform="translate(-611.586 -795.064)" fill="#1faaff"/>
      <path id="Path_56" data-name="Path 56" d="M645.958,948.38a39,39,0,0,1,1.916,7.079,15.9,15.9,0,0,1,.254,2.662,38.731,38.731,0,0,1-1.916-7.08,16,16,0,0,1-.255-2.661" transform="translate(-588.595 -868.63)" fill="#1faaff"/>
    </g>
  </g>
</svg>
