<svg xmlns="http://www.w3.org/2000/svg" xmlns:xlink="http://www.w3.org/1999/xlink" width="75.333" height="102.289" viewBox="0 0 75.333 102.289">
  <defs>
    <clipPath id="clip-path">
      <rect id="Rectangle_16" data-name="Rectangle 16" width="75.333" height="102.289" fill="none"/>
    </clipPath>
  </defs>
  <g id="Group_29" data-name="Group 29" transform="translate(0 -0.001)">
    <g id="Group_28" data-name="Group 28" transform="translate(0 0.001)" clip-path="url(#clip-path)">
      <path id="Path_107" data-name="Path 107" d="M720.875,49.563a.988.988,0,0,1-.743-1.639l2.791-3.189a.988.988,0,0,1,1.487,1.3l-2.791,3.189a.986.986,0,0,1-.744.337" transform="translate(-655.221 -40.41)" fill="#1faaff"/>
      <path id="Path_108" data-name="Path 108" d="M597.594,134.434a.988.988,0,0,1-.729-1.655l7.28-7.954a.988.988,0,0,1,1.458,1.334l-7.28,7.954a.986.986,0,0,1-.729.321" transform="translate(-543.014 -113.32)" fill="#1faaff"/>
      <path id="Path_109" data-name="Path 109" d="M794.934,183.264a.988.988,0,0,1-.367-1.906l2.038-.813a.988.988,0,0,1,.733,1.835l-2.038.813a.984.984,0,0,1-.366.071" transform="translate(-722.627 -164.262)" fill="#1faaff"/>
      <path id="Path_110" data-name="Path 110" d="M642.639,227.812a.988.988,0,0,1-.406-1.889l7.325-3.3a.988.988,0,0,1,.811,1.8l-7.325,3.3a.985.985,0,0,1-.405.087" transform="translate(-584.011 -202.548)" fill="#1faaff"/>
      <path id="Path_111" data-name="Path 111" d="M547.586,93.568a.989.989,0,0,1-.94-1.292l2.825-8.733a.988.988,0,0,1,1.88.608l-2.825,8.732a.989.989,0,0,1-.94.684" transform="translate(-497.498 -75.416)" fill="#1faaff"/>
      <path id="Path_112" data-name="Path 112" d="M599.12,3.842a.989.989,0,0,1-.94-1.292l.6-1.865a.988.988,0,0,1,1.88.608l-.6,1.864a.989.989,0,0,1-.94.684" transform="translate(-544.402 -0.001)" fill="#1faaff"/>
      <path id="Path_113" data-name="Path 113" d="M580.195,634.328a41.889,41.889,0,0,0-1.486-9.492,2.7,2.7,0,0,1-.651.349q.307,1.037.545,2.086a76.853,76.853,0,0,1,1.48,12.574l.214,1.244Z" transform="translate(-526.132 -568.708)" fill="#1faaff"/>
      <path id="Path_114" data-name="Path 114" d="M607.264,873.8c.275.038.15-.358.158-.549a32.541,32.541,0,0,0-3.135-13.72c-.126-.256-.357-.761-.608-.888Z" transform="translate(-549.452 -781.517)" fill="#1faaff"/>
      <path id="Path_115" data-name="Path 115" d="M80.106,261.412a14.064,14.064,0,0,0-.092-1.916L80,259.337a119.764,119.764,0,0,0-2.27-13.456,113.213,113.213,0,0,1-2.323-14.124,40.577,40.577,0,0,1,.236-6.8,44.686,44.686,0,0,0,.277-5.866c-.529-12.792-9.136-24.369-22.463-30.211-6-2.63-12.356-4.77-18.5-6.84-5.831-1.963-11.86-3.993-17.6-6.445a.885.885,0,0,0-.837.369.952.952,0,0,0-.032,1.045c.222.4,1.867,1,2.75,1.328a14.419,14.419,0,0,1,1.632.665l26.011,9.2-14.811-.005c-2.014.25-4.2.333-6.315.414a54.862,54.862,0,0,0-8.377.737c-.7.14-1.085.535-1.029,1.057a.944.944,0,0,0,.987.831,16.326,16.326,0,0,0,2.165-.265c.59-.1,1.2-.2,1.747-.246,4.073-.361,10.225-.841,16.6-.841,3.058,0,5.929.111,8.533.331a31.649,31.649,0,0,1,8.772,1.607,23.507,23.507,0,0,1,7.413,4.889c4.477,4.018,7.426,7.9,9.282,12.227a31.785,31.785,0,0,1,2.183,15.293c-.047.61-.152,1.256-.254,1.881a16.549,16.549,0,0,0-.26,2.158,58.8,58.8,0,0,0,1.6,12.682c.267,1.334.543,2.71.785,4.071q.174.982.351,1.965c.61,3.41,1.24,6.932,1.72,10.419.045.329.076.767.11,1.274a10.4,10.4,0,0,0,.51,3.2.782.782,0,0,0,.826.195h0a.9.9,0,0,0,.694-.657" transform="translate(-14.87 -159.818)" fill="#1faaff"/>
      <path id="Path_116" data-name="Path 116" d="M56.489,627.065c.344-.552.181-.9-.872-1.864-.194-.177-.377-.344-.547-.523a74.394,74.394,0,0,1-5.583-6.866,54.918,54.918,0,0,0-7.528-8.711c-.427-.372-1.214-1.056-1.77-1.016a.747.747,0,0,0-.525.317.7.7,0,0,0-.228.538c.05.528.88,1.19,1.486,1.674.27.216.525.419.732.619a67.153,67.153,0,0,1,7.373,9.049l.178.246,0,.238c-.013,1.058,0,2.159,0,3.224.037,4.726.074,9.613-1.643,14.056a13.942,13.942,0,0,1-5.354,6.646,21.56,21.56,0,0,1-8.02,3.1,48.189,48.189,0,0,1-17.015-.329.9.9,0,0,0-.036,1.767,9.874,9.874,0,0,0,1.287.273l.043.007.254.044c7.942,1.408,19.546,1.052,26.109-4.585.021-.02.137-.141.2-.206.869-.913,1.207-1.2,1.63-1.2h.01a.766.766,0,0,1,.571.261l.206.235-.031.311a24.009,24.009,0,0,0,.534,7.7c.632,2.734,1.277,3.534,1.415,3.6a1.107,1.107,0,0,0,1.031-.134.865.865,0,0,0,.319-.786,8.441,8.441,0,0,0-.413-1.143c-.164-.4-.319-.784-.4-1.075-1.448-5.138-.583-11.005.254-16.679a77.854,77.854,0,0,0,.939-8.362c.015-.415.006-.85,0-1.271-.009-.443-.018-.9,0-1.35l.057-1.6,1.158,1.108c.193.185.424.44.69.735l0,0c.707.783,2.179,2.413,3,2.339.111-.01.283-.061.49-.393" transform="translate(-14.934 -553.461)" fill="#1faaff"/>
      <path id="Path_117" data-name="Path 117" d="M116.749,945.923a1.34,1.34,0,0,0-.721-1.387l-4.99-.029a1.334,1.334,0,0,0-.838,1.4,1.3,1.3,0,0,0,1.274,1.048,27.842,27.842,0,0,0,4.249-.014,1.153,1.153,0,0,0,1.027-1.021" transform="translate(-100.288 -859.664)" fill="#1faaff"/>
      <path id="Path_118" data-name="Path 118" d="M0,389.565a23.968,23.968,0,0,1,4.579-.836c2.314-.261,4.635-.429,6.959-.563a11.458,11.458,0,0,0,1.16-.093,18.726,18.726,0,0,1,2.321-.133,8.982,8.982,0,0,1,1.194.064,13.656,13.656,0,0,1,2.3.445,9.638,9.638,0,0,1-2.34.454c-.278.013-.562.048-.839.069-.48.036-.967.057-1.448.063-.581.014-1.165-.04-1.744-.051-2.446.038-5.1.076-7.535.172A30.146,30.146,0,0,0,0,389.565" transform="translate(0 -353.092)" fill="#1faaff"/>
      <path id="Path_119" data-name="Path 119" d="M287.983,707.978c.915,1.07,1.769,2.18,2.611,3.3a18,18,0,0,1,1.585,2.375c.974,1.74.9,3.782.831,5.706-.135,3.239-.72,6.945-3.375,9.114,2.284-3.018,2.279-6.9,2.329-10.531a8.52,8.52,0,0,0-.637-3.874,26.241,26.241,0,0,0-1.321-2.4c-.707-1.214-1.395-2.433-2.023-3.693" transform="translate(-262.114 -644.382)" fill="#1faaff"/>
      <path id="Path_120" data-name="Path 120" d="M409.3,1038.131a18.56,18.56,0,0,0,.249,2.878,18.837,18.837,0,0,0,.756,2.787,5.572,5.572,0,0,1-1.005-5.665" transform="translate(-372.189 -944.878)" fill="#1faaff"/>
      <path id="Path_121" data-name="Path 121" d="M273.1,240.383l4.6,2.37,5.153.494,2.591,4.482,4.068,3.2-.244,5.171L290.962,261l-3,4.219-1.223,5.031-4.805,1.926-3.748,3.571-5.084-.977-5.084.977-3.748-3.571-4.805-1.926-1.223-5.031-3-4.219,1.691-4.893-.244-5.171,4.068-3.2,2.591-4.482,5.153-.494Z" transform="translate(-232.311 -218.79)" fill="#fff"/>
      <path id="Path_122" data-name="Path 122" d="M268.173,266.719a.992.992,0,0,1-.187-.018l-4.9-.942-4.9.942a.988.988,0,0,1-.868-.255l-3.611-3.44-4.629-1.856a.988.988,0,0,1-.592-.684l-1.178-4.846-2.891-4.064a.988.988,0,0,1-.129-.9l1.629-4.714-.235-4.982a.988.988,0,0,1,.376-.823l3.919-3.085,2.5-4.318a.988.988,0,0,1,.761-.489l4.964-.476,4.434-2.283a.988.988,0,0,1,.9,0l4.434,2.283,4.964.476a.988.988,0,0,1,.761.489l2.5,4.318,3.919,3.085a.988.988,0,0,1,.376.823l-.235,4.982,1.629,4.714a.988.988,0,0,1-.129.9l-2.891,4.064-1.178,4.846a.988.988,0,0,1-.593.684l-4.629,1.856-3.611,3.44a.988.988,0,0,1-.682.273m-5.084-2.954a.986.986,0,0,1,.187.018l4.584.881,3.38-3.22a.988.988,0,0,1,.314-.2l4.333-1.737,1.1-4.536a.989.989,0,0,1,.155-.339l2.706-3.8-1.525-4.412a.988.988,0,0,1-.053-.369l.22-4.663-3.668-2.887a.988.988,0,0,1-.244-.282l-2.336-4.042-4.647-.446a.988.988,0,0,1-.358-.105l-4.15-2.137-4.15,2.137a.988.988,0,0,1-.358.105l-4.647.446-2.336,4.042a.988.988,0,0,1-.244.282l-3.668,2.887.22,4.663a.988.988,0,0,1-.053.369l-1.525,4.412,2.706,3.8a.989.989,0,0,1,.155.339l1.1,4.536,4.333,1.737a.989.989,0,0,1,.314.2l3.38,3.22,4.584-.881a.985.985,0,0,1,.186-.018m-4.6-31.024h0Z" transform="translate(-222.299 -208.778)" fill="#1faaff"/>
      <path id="Path_123" data-name="Path 123" d="M245.069,1083.239c1.37-.67,2.73-1.339,4.045-2.106q.654-.378,1.293-.782a.256.256,0,0,1,.361.075,34.053,34.053,0,0,1,1.122,3.91,36.915,36.915,0,0,1-1.585-3.681l.387.13q-.638.435-1.314.812a15.132,15.132,0,0,1-4.309,1.642" transform="translate(-223.055 -983.265)" fill="#1faaff"/>
      <path id="Path_124" data-name="Path 124" d="M355.335,334.208a2.85,2.85,0,0,0-.526-.618c-.4-.4-.608-.623-.568-.847l.007-.039.021-.034a3.362,3.362,0,0,1,.556-.651c.427-.42.661-.683.495-1.211a.475.475,0,0,0-.25-.257.925.925,0,0,0-.65-.076c-.231.074-.468.381-.7.677-.382.493-.857,1.106-1.565.919l-.329-.087.22-.259a.8.8,0,0,0,.047-1.076.692.692,0,0,0-.967-.03,4.036,4.036,0,0,0-.545.6c-.38.47-.628.761-.863.831a13.509,13.509,0,0,1-2.592-.02,4.077,4.077,0,0,1-.614-1.161,18.2,18.2,0,0,1,1.153-2.026,2.155,2.155,0,0,1,1.239-.451c.566-.1,1.152-.2,1.258-.54a.793.793,0,0,0-.149-.818.707.707,0,0,0-.743-.123l-.141.047-.093-.115c-.172-.212.188-.763.211-.785a2.126,2.126,0,0,1,1.1-.332c.544-.078,1.161-.165,1.361-.491a.806.806,0,0,0,0-.687c-.171-.5-.853-.369-1.66-.158a5.487,5.487,0,0,1-.548.125l-.178.026-.056-.171c-.045-.137-.086-.291-.13-.455-.139-.523-.312-1.173-.677-1.355a.725.725,0,0,0-.609.031c-.51.207-.362.779-.076,1.628.216.644.421,1.252.027,1.582a.333.333,0,0,1-.325.09.362.362,0,0,1-.214-.3.549.549,0,0,0-.024-.083.752.752,0,0,0-.935-.252c-.517.21-.345.831-.044,1.686a2.76,2.76,0,0,1,.24,1.027,3.01,3.01,0,0,1-.567,1.106,10.236,10.236,0,0,0-.591,1.036l-.106.122-.162-.041a2.9,2.9,0,0,0-.564,0,1.135,1.135,0,0,1-.655-.078,15.086,15.086,0,0,1-1.172-1.975,2.271,2.271,0,0,1,.226-1.274c.195-.534.4-1.087.118-1.445a.684.684,0,0,0-.725-.2.57.57,0,0,0-.442.484l-.019.184-.185.007a.478.478,0,0,1-.372-.148.852.852,0,0,1-.19-.63,3.493,3.493,0,0,1,.224-.795c.182-.513.432-1.215.234-1.548a.544.544,0,0,0-.415-.228c-.708-.112-.871.383-1.079,1.2a5.517,5.517,0,0,1-.19.638l-.067.17-.179-.04c-.113-.025-.24-.058-.375-.093-.57-.147-1.35-.349-1.68-.081a.7.7,0,0,0-.18.6c.029.583.569.692,1.391.792a2.026,2.026,0,0,1,1.1.328c.024.022.384.573.211.785l-.1.121-.146-.057a.692.692,0,0,0-.524,1.28,6.712,6.712,0,0,0,.956.216,2.9,2.9,0,0,1,1.148.318l.05.047.013.067a4.886,4.886,0,0,0,.578,1.017,3.112,3.112,0,0,1,.548,1.017,4.069,4.069,0,0,1-.615,1.161,13.475,13.475,0,0,1-2.592.02c-.232-.069-.47-.352-.84-.809a4,4,0,0,0-.607-.661.681.681,0,0,0-.95.093.763.763,0,0,0,.064,1.043l.246.267-.353.086c-.7.171-1.157-.4-1.559-.9-.291-.364-.566-.707-.87-.729a.707.707,0,0,0-.616.216.858.858,0,0,0-.129.756,2.85,2.85,0,0,0,.526.618c.4.4.608.623.568.847l-.007.039-.021.034a3.359,3.359,0,0,1-.556.651c-.427.42-.661.683-.495,1.211a.474.474,0,0,0,.25.257.926.926,0,0,0,.65.076c.231-.074.468-.381.7-.677.382-.493.856-1.106,1.565-.919l.339.089-.234.261a.776.776,0,0,0-.057,1.058A.7.7,0,0,0,338,335a4.283,4.283,0,0,0,.566-.622c.375-.461.619-.745.843-.812a13.5,13.5,0,0,1,2.592.02,4.073,4.073,0,0,1,.614,1.161,3.111,3.111,0,0,1-.548,1.017,4.885,4.885,0,0,0-.578,1.017l-.013.067-.05.047a2.9,2.9,0,0,1-1.148.318,6.715,6.715,0,0,0-.956.216.692.692,0,0,0,.524,1.28l.146-.057.1.121c.172.212-.187.763-.211.785a2.083,2.083,0,0,1-1.13.337c-.494.061-1.055.131-1.268.427a.783.783,0,0,0-.075.629.52.52,0,0,0,.221.363c.331.207,1,.033,1.5-.094.185-.048.36-.093.507-.118l.174-.029.062.165a6.148,6.148,0,0,1,.177.6c.226.871.4,1.4,1.149,1.225a.519.519,0,0,0,.363-.229c.174-.308-.025-.909-.2-1.44a2.063,2.063,0,0,1-.183-1.352c.046-.1.154-.327.366-.329s.3.186.371.338a.924.924,0,0,0,.1.176.686.686,0,0,0,.532.2.637.637,0,0,0,.479-.234c.284-.367.074-.927-.13-1.47a3.983,3.983,0,0,1-.241-.8,2.52,2.52,0,0,1,.6-1.46,3.454,3.454,0,0,0,.5-.952l.05-.247.236.089a1.581,1.581,0,0,0,1.046,0l.247-.094.041.261a3.5,3.5,0,0,0,.553,1.02,3.009,3.009,0,0,1,.567,1.106,2.759,2.759,0,0,1-.24,1.027c-.3.855-.473,1.476.044,1.686a.755.755,0,0,0,.94-.259c0-.006.012-.05.018-.076a.362.362,0,0,1,.214-.3.265.265,0,0,1,.084-.014.382.382,0,0,1,.242.1c.393.33.189.938-.027,1.582-.285.849-.434,1.421.076,1.628a.727.727,0,0,0,.609.031c.365-.182.538-.833.677-1.355.043-.163.084-.318.13-.455l.054-.165.173.019a4.617,4.617,0,0,1,.654.146c.762.207,1.316.317,1.52-.156a.806.806,0,0,0,.06-.7c-.183-.329-.849-.428-1.385-.508a2.168,2.168,0,0,1-1.088-.33c-.024-.022-.383-.573-.211-.785l.1-.122.146.058a.629.629,0,0,0,.707-.136.785.785,0,0,0,.153-.852c-.13-.321-.747-.418-1.292-.5a2.934,2.934,0,0,1-1.012-.271,17.261,17.261,0,0,1-1.264-2.028c-.11-.284.092-.579.288-.864a1.747,1.747,0,0,0,.216-.369l.055-.179.185.031a5.262,5.262,0,0,0,.946,0,3.209,3.209,0,0,1,1.661.16,3.061,3.061,0,0,1,.644.682c.278.356.565.724.878.776a.665.665,0,0,0,.734-.3.855.855,0,0,0-.138-.965l-.224-.265.337-.082c.694-.169,1.149.4,1.549.9.293.366.57.712.881.733a.707.707,0,0,0,.615-.216.858.858,0,0,0,.129-.756m-9.654-.851a1.147,1.147,0,0,1-.978.693c-.05,0-.1.007-.146.007a1.248,1.248,0,0,1-.219-2.471,1.182,1.182,0,0,1,1.176.42,1.371,1.371,0,0,1,.168,1.351" transform="translate(-303.775 -293.537)" fill="#1faaff"/>
      <path id="Path_125" data-name="Path 125" d="M346.864,341.881a1.135,1.135,0,0,1-.423-.094c-.666-.27-.406-1.046-.154-1.8.2-.6.392-1.165.069-1.436a.2.2,0,0,0-.2-.065c-.077.026-.1.1-.125.2-.008.033-.019.077-.021.084l-.008.027-.018.021a.887.887,0,0,1-1.094.3c-.676-.275-.381-1.114-.121-1.855a2.7,2.7,0,0,0,.233-.969,2.965,2.965,0,0,0-.545-1.043,3.467,3.467,0,0,1-.574-1.075l-.015-.1-.092.035a1.727,1.727,0,0,1-1.141,0l-.087-.033-.018.092a3.506,3.506,0,0,1-.522,1,2.458,2.458,0,0,0-.581,1.368,3.886,3.886,0,0,0,.234.771c.216.577.44,1.173.11,1.6a.773.773,0,0,1-.579.286.82.82,0,0,1-.637-.246.929.929,0,0,1-.125-.206c-.08-.16-.141-.264-.252-.264s-.184.128-.243.252a2.018,2.018,0,0,0,.189,1.253c.193.584.392,1.188.189,1.548a.644.644,0,0,1-.451.294c-.913.209-1.105-.535-1.31-1.322a6.015,6.015,0,0,0-.173-.586l-.023-.061-.064.011c-.142.023-.313.068-.495.115-.544.141-1.221.316-1.6.078a.654.654,0,0,1-.282-.451.906.906,0,0,1,.1-.735c.248-.344.839-.417,1.361-.481a2.056,2.056,0,0,0,1.049-.3c.1-.13.281-.514.2-.608l-.037-.045-.054.021a.827.827,0,0,1-.626-1.529,6.507,6.507,0,0,1,.984-.225,3.35,3.35,0,0,0,1.08-.284l.019-.017,0-.025a4.515,4.515,0,0,1,.6-1.065,3.235,3.235,0,0,0,.527-.955,4.956,4.956,0,0,0-.556-1.036,15.513,15.513,0,0,0-2.483,0c-.181.054-.423.338-.772.766a4.212,4.212,0,0,1-.592.647.831.831,0,0,1-1.159-.065.908.908,0,0,1,.057-1.238l.087-.1-.125-.033c-.622-.164-1.048.385-1.424.87a2.031,2.031,0,0,1-.764.724,1.055,1.055,0,0,1-.753-.085.6.6,0,0,1-.316-.336c-.2-.632.138-.964.529-1.347a3.259,3.259,0,0,0,.535-.624l.008-.013,0-.015c.028-.157-.184-.379-.531-.729s-.531-.552-.561-.683a.989.989,0,0,1,.158-.873.835.835,0,0,1,.728-.263c.364.025.656.391.966.779.4.5.806,1.007,1.422.856l.131-.032-.091-.1a.893.893,0,0,1-.068-1.221.818.818,0,0,1,1.126-.119,3.922,3.922,0,0,1,.638.688c.356.439.585.709.775.765a15.533,15.533,0,0,0,2.479,0,4.811,4.811,0,0,0,.555-1.044,3.339,3.339,0,0,0-.526-.947,4.514,4.514,0,0,1-.6-1.065l0-.025-.019-.017a3.344,3.344,0,0,0-1.08-.283,6.528,6.528,0,0,1-.985-.225.827.827,0,0,1,.626-1.529l.054.021.037-.045c.076-.094-.106-.478-.2-.608a1.994,1.994,0,0,0-1.022-.287c-.724-.088-1.473-.179-1.51-.919a.819.819,0,0,1,.23-.711c.382-.311,1.167-.109,1.8.054.133.034.26.067.37.092l.066.015.025-.063a5.436,5.436,0,0,0,.185-.622c.188-.739.366-1.436,1.23-1.3a.668.668,0,0,1,.51.293c.23.387-.021,1.094-.223,1.662a3.448,3.448,0,0,0-.217.759.728.728,0,0,0,.153.526.343.343,0,0,0,.27.107l.069,0,.007-.068a.7.7,0,0,1,.539-.6.82.82,0,0,1,.868.251c.323.417.109,1.005-.1,1.573a2.233,2.233,0,0,0-.225,1.182,16.453,16.453,0,0,0,1.118,1.908,1.059,1.059,0,0,0,.574.057l.044,0a2.722,2.722,0,0,1,.547,0l.014,0,.082.02.04-.046a10.361,10.361,0,0,1,.593-1.036,2.968,2.968,0,0,0,.545-1.044,2.7,2.7,0,0,0-.233-.97c-.26-.741-.555-1.581.121-1.855a.882.882,0,0,1,1.088.29l.015.022a.48.48,0,0,1,.037.117c.025.1.048.179.125.2.021.007.085.028.2-.065.323-.271.133-.837-.069-1.436-.252-.75-.513-1.526.154-1.8a.849.849,0,0,1,.72-.027c.419.21.6.892.747,1.441.043.161.083.313.127.448l.021.063.066-.01a5.4,5.4,0,0,0,.533-.122c.674-.176,1.6-.417,1.822.245a.926.926,0,0,1-.008.8c-.233.38-.883.472-1.457.554a2.117,2.117,0,0,0-1.018.291c-.1.129-.281.514-.2.608l.035.043.052-.017a.837.837,0,0,1,.879.154.924.924,0,0,1,.183.955c-.13.421-.757.528-1.364.633a2.124,2.124,0,0,0-1.155.4,20.068,20.068,0,0,0-1.125,1.953,4.9,4.9,0,0,0,.555,1.04,15.549,15.549,0,0,0,2.483,0c.192-.057.438-.348.792-.785a3.957,3.957,0,0,1,.572-.629.828.828,0,0,1,1.144.05.929.929,0,0,1-.044,1.255l-.082.1.122.032c.622.164,1.049-.386,1.424-.871a2.028,2.028,0,0,1,.763-.723,1.054,1.054,0,0,1,.753.085.605.605,0,0,1,.316.336c.2.632-.138.964-.529,1.347a3.257,3.257,0,0,0-.535.624l-.008.013,0,.014c-.028.157.184.379.531.729s.531.552.561.683h0a.989.989,0,0,1-.158.874.836.836,0,0,1-.727.262c-.37-.026-.665-.394-.976-.784-.394-.492-.8-1-1.412-.851l-.125.03.083.1a.99.99,0,0,1,.152,1.118.8.8,0,0,1-.874.365c-.366-.06-.669-.45-.963-.826a2.973,2.973,0,0,0-.612-.652,3.17,3.17,0,0,0-1.579-.138,5.3,5.3,0,0,1-.976,0l-.069-.012-.02.067a1.771,1.771,0,0,1-.233.4c-.183.267-.355.518-.277.734a18.672,18.672,0,0,0,1.213,1.969,2.868,2.868,0,0,0,.96.251c.608.1,1.237.195,1.4.586a.92.92,0,0,1-.182,1,.768.768,0,0,1-.852.166l-.054-.021-.037.045c-.076.094.106.478.2.608a2.171,2.171,0,0,0,1.009.289c.565.084,1.268.189,1.483.576a.925.925,0,0,1-.054.814c-.265.616-1.016.412-1.679.232a4.545,4.545,0,0,0-.634-.142l-.064-.007-.02.061c-.044.134-.084.286-.127.448-.146.549-.327,1.232-.747,1.441a.652.652,0,0,1-.3.068m-.663-3.668a.511.511,0,0,1,.328.135c.464.389.235,1.07.014,1.728-.3.907-.372,1.31,0,1.46a.606.606,0,0,0,.5.035c.311-.155.482-.8.607-1.269.044-.166.086-.322.132-.463l.088-.269.282.031a4.713,4.713,0,0,1,.674.15c.822.223,1.214.265,1.362-.079a.7.7,0,0,0,.066-.576c-.151-.271-.808-.369-1.287-.441a2.231,2.231,0,0,1-1.16-.365c-.037-.035-.471-.664-.224-.968l.161-.2.238.094a.494.494,0,0,0,.562-.105.651.651,0,0,0,.123-.706c-.1-.25-.7-.345-1.187-.421a3.006,3.006,0,0,1-1.063-.29A15.358,15.358,0,0,1,345.1,333.6c-.135-.35.1-.689.3-.988a1.76,1.76,0,0,0,.2-.332l.09-.292.3.051a5.191,5.191,0,0,0,.915,0,3.264,3.264,0,0,1,1.745.183,3.148,3.148,0,0,1,.676.711c.262.336.532.683.794.726a.532.532,0,0,0,.6-.232.72.72,0,0,0-.123-.811l-.365-.431.549-.133c.779-.189,1.282.44,1.686.945.274.342.533.665.785.683a.594.594,0,0,0,.5-.169.727.727,0,0,0,.1-.637,3.714,3.714,0,0,0-.489-.554c-.4-.4-.659-.663-.606-.966l.011-.064.034-.056a3.461,3.461,0,0,1,.576-.676c.443-.435.6-.641.461-1.075a.35.35,0,0,0-.183-.177.793.793,0,0,0-.547-.068c-.191.062-.426.364-.632.631-.385.5-.912,1.177-1.706.967l-.535-.141.359-.422a.667.667,0,0,0,.05-.9.555.555,0,0,0-.79-.011,4.147,4.147,0,0,0-.516.576c-.4.49-.653.794-.931.877a12.153,12.153,0,0,1-2.7-.035,3.573,3.573,0,0,1-.677-1.288,16.175,16.175,0,0,1,1.186-2.1,2.229,2.229,0,0,1,1.318-.5c.5-.086,1.071-.184,1.152-.447a.663.663,0,0,0-.114-.682.578.578,0,0,0-.606-.091l-.229.077-.152-.187c-.247-.3.186-.933.224-.968a2.191,2.191,0,0,1,1.17-.367c.489-.07,1.1-.156,1.265-.428a.689.689,0,0,0-.018-.574c-.122-.357-.621-.3-1.5-.071a5.581,5.581,0,0,1-.562.128l-.29.042-.092-.278c-.047-.142-.088-.3-.132-.462-.125-.47-.3-1.114-.607-1.269a.6.6,0,0,0-.5.035c-.371.15-.3.554,0,1.46.221.658.45,1.339-.013,1.728a.458.458,0,0,1-.455.115.492.492,0,0,1-.3-.4c0-.013-.007-.031-.011-.045a.616.616,0,0,0-.766-.2c-.373.151-.287.609.032,1.516a2.826,2.826,0,0,1,.247,1.085,3.063,3.063,0,0,1-.589,1.167,10.133,10.133,0,0,0-.583,1.022l-.019.028-.16.184-.236-.059a2.618,2.618,0,0,0-.485,0l-.045,0a1.243,1.243,0,0,1-.734-.1,13.261,13.261,0,0,1-1.232-2.056,2.359,2.359,0,0,1,.23-1.354c.182-.5.371-1.017.138-1.316a.549.549,0,0,0-.582-.157.434.434,0,0,0-.345.368l-.032.3-.3.011a.606.606,0,0,1-.474-.189.989.989,0,0,1-.228-.733,3.555,3.555,0,0,1,.232-.831c.164-.46.411-1.156.246-1.434a.424.424,0,0,0-.32-.164c-.565-.089-.71.249-.927,1.1a5.619,5.619,0,0,1-.195.654l-.109.278-.291-.064c-.115-.026-.244-.059-.379-.094-.511-.132-1.284-.332-1.561-.106a.618.618,0,0,0-.131.489c.022.442.393.558,1.273.664a2.1,2.1,0,0,1,1.18.363c.038.035.471.665.224.969l-.161.2-.237-.093a.512.512,0,0,0-.693.312.518.518,0,0,0,.272.719,6.936,6.936,0,0,0,.926.207c.762.142,1.064.208,1.216.352l.081.077.022.109a5.25,5.25,0,0,0,.559.969,3.042,3.042,0,0,1,.57,1.078,3.571,3.571,0,0,1-.677,1.288,12.089,12.089,0,0,1-2.7.035c-.27-.08-.508-.362-.906-.853a4.114,4.114,0,0,0-.576-.633.547.547,0,0,0-.774.067.625.625,0,0,0,.06.865l.4.435-.575.141c-.783.192-1.29-.441-1.7-.949-.272-.34-.529-.662-.775-.679a.591.591,0,0,0-.5.169.728.728,0,0,0-.1.638,3.755,3.755,0,0,0,.49.553c.4.4.659.662.606.965l-.011.064-.034.056a3.461,3.461,0,0,1-.576.676c-.443.436-.6.641-.461,1.075a.352.352,0,0,0,.183.177.793.793,0,0,0,.547.067c.191-.061.425-.364.632-.631.385-.5.911-1.176,1.707-.967l.552.146-.382.425a.645.645,0,0,0-.057.879.559.559,0,0,0,.8.023,4.388,4.388,0,0,0,.539-.6c.39-.479.643-.777.909-.856a12.135,12.135,0,0,1,2.7.035,3.57,3.57,0,0,1,.677,1.288,3.04,3.04,0,0,1-.57,1.079,5.25,5.25,0,0,0-.559.969l-.022.109-.081.077c-.153.144-.455.211-1.216.352a6.942,6.942,0,0,0-.927.207.518.518,0,0,0-.272.719.512.512,0,0,0,.693.312l.237-.093.161.2c.247.3-.186.933-.224.968a2.16,2.16,0,0,1-1.206.373c-.444.055-1,.123-1.176.372a.663.663,0,0,0-.052.524.388.388,0,0,0,.161.275c.282.177.949,0,1.39-.11.188-.049.365-.095.519-.12l.283-.047.1.269a6.2,6.2,0,0,1,.181.613c.241.928.388,1.265.989,1.128a.4.4,0,0,0,.276-.164c.144-.256-.052-.852-.211-1.331a2.125,2.125,0,0,1-.177-1.452c.052-.11.19-.4.486-.407s.412.249.493.412a1.084,1.084,0,0,0,.081.144.55.55,0,0,0,.427.161.5.5,0,0,0,.38-.182c.238-.307.041-.832-.149-1.34a4.07,4.07,0,0,1-.249-.829,2.592,2.592,0,0,1,.622-1.552,3.406,3.406,0,0,0,.484-.9l.081-.4.385.145a1.436,1.436,0,0,0,.95,0l.4-.153.066.425a3.558,3.558,0,0,0,.531.966,3.066,3.066,0,0,1,.59,1.168,2.826,2.826,0,0,1-.247,1.085c-.319.907-.4,1.365-.032,1.516a.612.612,0,0,0,.766-.2l.009-.04a.5.5,0,0,1,.3-.4.4.4,0,0,1,.126-.021m-3-5.388a1.341,1.341,0,0,1-1.341-1.208,1.365,1.365,0,0,1,2.4-1.06,1.51,1.51,0,0,1,.185,1.487,1.278,1.278,0,0,1-1.089.774c-.054.005-.107.008-.159.008m.026-2.491a1.409,1.409,0,0,0-.224.019,1.114,1.114,0,0,0,.2,2.2c.043,0,.088,0,.133-.006a1.015,1.015,0,0,0,.867-.612h0a1.233,1.233,0,0,0-.15-1.215,1.009,1.009,0,0,0-.824-.388" transform="translate(-302.421 -292.17)" fill="#1faaff"/>
    </g>
  </g>
</svg>
