<svg xmlns="http://www.w3.org/2000/svg" width="65" height="106.703" viewBox="0 0 65 106.703">
  <g id="Group_106" data-name="Group 106" transform="translate(0.188 -0.08)">
    <line id="Line_31" data-name="Line 31" x1="1.731" y1="2.974" transform="translate(35.935 68.542)" fill="none" stroke="#1faaff" stroke-linecap="round" stroke-linejoin="round" stroke-width="2"/>
    <line id="Line_32" data-name="Line 32" x1="4.57" y1="7.469" transform="translate(40.07 75.298)" fill="none" stroke="#1faaff" stroke-linecap="round" stroke-linejoin="round" stroke-width="2"/>
    <line id="Line_33" data-name="Line 33" x1="1.499" y1="0.964" transform="translate(29.338 77.372)" fill="none" stroke="#1faaff" stroke-linecap="round" stroke-linejoin="round" stroke-width="2"/>
    <line id="Line_34" data-name="Line 34" x1="5.328" y1="3.763" transform="translate(35.443 81.684)" fill="none" stroke="#1faaff" stroke-linecap="round" stroke-linejoin="round" stroke-width="2"/>
    <line id="Line_35" data-name="Line 35" x2="0.899" y2="7.399" transform="translate(47.781 73.703)" fill="none" stroke="#1faaff" stroke-linecap="round" stroke-linejoin="round" stroke-width="2"/>
    <line id="Line_36" data-name="Line 36" x2="0.192" y2="1.58" transform="translate(47.015 67.397)" fill="none" stroke="#1faaff" stroke-linecap="round" stroke-linejoin="round" stroke-width="2"/>
    <g id="Group_105" data-name="Group 105" transform="translate(1.101 1.099)">
      <g id="Group_107" data-name="Group 107">
        <path id="Path_485" data-name="Path 485" d="M9,95.739s18.646,7.046,34.3,10.815c6.825,1.643,13.082,2.663,16.981,2.206,12.843-1.506,11.338-26.484,11.338-26.484s-1.417-31.8-2.3-35.962a79.989,79.989,0,0,1-1.594-11.16,13.829,13.829,0,0,0-2.657-7.618C63.12,25.144,59.577,14.072,59.577,13.1s-1.771-3.72-4.783-3.809-7.373-.152-8.237-.266c-1.683-.221-3.322,1.063-3.676,3.587" transform="translate(-9 -8.999)" fill="none" stroke="#1faaff" stroke-linecap="round" stroke-linejoin="round" stroke-width="2"/>
        <path id="Path_486" data-name="Path 486" d="M180.847,589.367c-3.828-1.723-8.148-3.771-9.584-4.915" transform="translate(-154.035 -523.355)" fill="none" stroke="#1faaff" stroke-linecap="round" stroke-linejoin="round" stroke-width="2"/>
        <path id="Path_487" data-name="Path 487" d="M304.251,45.86a4.517,4.517,0,0,0-3.012-1.2c-1.993-.089-4.207-.266-4.916-.664a2.221,2.221,0,0,0-2.79,1.063c-.8,1.24-1.816,1.771-1.373,2.657s.886,1.772,3.277,1.594,2.436,1.107,3.277,2.524a26.079,26.079,0,0,0,6.067,8.282c4.03,3.632,5.713,5.314,5.58,9.743-.115,3.841-3.257,19.908-7.99,33.234" transform="translate(-262.001 -40.122)" fill="none" stroke="#1faaff" stroke-linecap="round" stroke-linejoin="round" stroke-width="2"/>
        <path id="Path_488" data-name="Path 488" d="M321.173,104.052a3.223,3.223,0,0,1-1.107,2.126c-1.019.8-1.949-1.019-1.993-1.683s-2.524-5.27-3.676-6.156a2.74,2.74,0,0,1-.974-2.347" transform="translate(-281.092 -86.756)" fill="none" stroke="#1faaff" stroke-linecap="round" stroke-linejoin="round" stroke-width="2"/>
        <path id="Path_489" data-name="Path 489" d="M417.825,811.137l2.53,1.3,2.833.272,1.424,2.464,2.236,1.76-.134,2.843.93,2.69-1.65,2.319-.672,2.766-2.642,1.059-2.061,1.963-2.795-.537-2.795.537-2.061-1.963-2.642-1.059-.672-2.766-1.65-2.319.93-2.69-.134-2.843,2.236-1.76,1.424-2.464,2.833-.272Z" transform="translate(-365.642 -725.972)" fill="#fff" stroke="#707070" stroke-width="2"/>
        <path id="Path_490" data-name="Path 490" d="M417.825,811.137l2.53,1.3,2.833.272,1.424,2.464,2.236,1.76-.134,2.843.93,2.69-1.65,2.319-.672,2.766-2.642,1.059-2.061,1.963-2.795-.537-2.795.537-2.061-1.963-2.642-1.059-.672-2.766-1.65-2.319.93-2.69-.134-2.843,2.236-1.76,1.424-2.464,2.833-.272Z" transform="translate(-365.642 -725.972)" fill="none" stroke="#1faaff" stroke-linecap="round" stroke-linejoin="round" stroke-width="2"/>
        <path id="Path_491" data-name="Path 491" d="M164.51,827.521c3.975,1.24,8.877,2.851,12.854,4.136,2.464.815,5.26,1.708,7.681,2.609a76.017,76.017,0,0,1-20.535-6.745" transform="translate(-147.999 -740.617)" fill="#1faaff"/>
        <path id="Path_492" data-name="Path 492" d="M449.949,401.168A63.447,63.447,0,0,1,447.131,416a20.838,20.838,0,0,1-1.679,3.9c.081-.279.177-.59.266-.868,1.616-5.9,2.595-11.965,4.231-17.869" transform="translate(-399.113 -359.531)" fill="#1faaff"/>
        <path id="Path_493" data-name="Path 493" d="M544.275,372.932a87.419,87.419,0,0,1,1.593,14.019,37.346,37.346,0,0,1-.094,4.717,149.024,149.024,0,0,1-1.5-18.736" transform="translate(-487.444 -334.292)" fill="#1faaff"/>
        <path id="Path_494" data-name="Path 494" d="M559.327,673.638c.89,2.773,1.3,7.268.3,10.025a4.071,4.071,0,0,1-.3.617,17.5,17.5,0,0,0,.1-2.651c-.042-2.666-.253-5.316-.1-7.991" transform="translate(-500.847 -603.072)" fill="#1faaff"/>
        <path id="Path_495" data-name="Path 495" d="M467.331,215.576a3.7,3.7,0,0,1,2.028,1.734,4.883,4.883,0,0,1,1,3.9c-.023.435-.051.871-.092,1.306s-.087.869-.148,1.305-.179.991-.624,1.183a1.462,1.462,0,0,0,.207-1.191c-.045-.436-.078-.873-.1-1.309-.037-.629-.049-1.328-.051-1.961a5.336,5.336,0,0,0-.082-1.193,11.089,11.089,0,0,0-.691-1.721,5.081,5.081,0,0,0-1.446-2.056" transform="translate(-418.669 -193.643)" fill="#1faaff"/>
        <path id="Path_496" data-name="Path 496" d="M169.432,636.841c1.417,1.7,3.565,2.082,5.428,3.114a4.972,4.972,0,0,1,1.685,1.426c-1.933-1.03-4.178-1.235-5.9-2.678a3.5,3.5,0,0,1-1.216-1.862" transform="translate(-152.399 -570.181)" fill="#1faaff"/>
      </g>
    </g>
  </g>
</svg>
