<svg id="Group_22" data-name="Group 22" xmlns="http://www.w3.org/2000/svg" xmlns:xlink="http://www.w3.org/1999/xlink" width="77.846" height="89.512" viewBox="0 0 77.846 89.512">
  <defs>
    <clipPath id="clip-path">
      <rect id="Rectangle_14" data-name="Rectangle 14" width="77.846" height="89.512" fill="none"/>
    </clipPath>
  </defs>
  <g id="Group_21" data-name="Group 21" clip-path="url(#clip-path)">
    <path id="Path_57" data-name="Path 57" d="M.9,520.19A.9.9,0,0,1,.8,518.4l2.681-.3a.9.9,0,1,1,.2,1.787l-2.681.3a.916.916,0,0,1-.1.005" transform="translate(0.001 -466.342)" fill="#1faaff"/>
    <path id="Path_58" data-name="Path 58" d="M62.816,511.995a.9.9,0,0,1-.078-1.795l6.837-.6a.9.9,0,0,1,.157,1.791l-6.837.6c-.027,0-.053,0-.08,0" transform="translate(-55.733 -458.69)" fill="#1faaff"/>
    <path id="Path_59" data-name="Path 59" d="M27.124,440.525a.9.9,0,0,1-.318-.059l-1.306-.495a.9.9,0,0,1,.637-1.681l1.306.495a.9.9,0,0,1-.319,1.74" transform="translate(-22.43 -394.455)" fill="#1faaff"/>
    <path id="Path_60" data-name="Path 60" d="M86.372,460.028a.9.9,0,0,1-.282-.046l-4.855-1.6a.9.9,0,1,1,.564-1.707l4.855,1.6a.9.9,0,0,1-.282,1.753" transform="translate(-72.565 -411.012)" fill="#1faaff"/>
    <path id="Path_61" data-name="Path 61" d="M88.735,547.529a.9.9,0,0,1-.444-1.681l5.081-2.883a.9.9,0,0,1,.887,1.564l-5.081,2.882a.894.894,0,0,1-.443.117" transform="translate(-79.061 -488.622)" fill="#1faaff"/>
    <path id="Path_62" data-name="Path 62" d="M45.377,592.552a.9.9,0,0,1-.444-1.681l1.085-.615a.9.9,0,1,1,.887,1.564l-1.085.615a.894.894,0,0,1-.443.117" transform="translate(-40.034 -531.187)" fill="#1faaff"/>
    <path id="Path_63" data-name="Path 63" d="M738.035,508.894a.9.9,0,0,1-.1-.006l-2.681-.3a.9.9,0,1,1,.2-1.787l2.681.3a.9.9,0,0,1-.1,1.793" transform="translate(-661.087 -456.174)" fill="#1faaff"/>
    <path id="Path_64" data-name="Path 64" d="M638.671,500.7q-.04,0-.08,0l-6.837-.6a.9.9,0,0,1,.157-1.791l6.837.6a.9.9,0,0,1-.078,1.795" transform="translate(-567.908 -448.524)" fill="#1faaff"/>
    <path id="Path_65" data-name="Path 65" d="M724.2,429.232a.9.9,0,0,1-.319-1.74l1.306-.495a.9.9,0,0,1,.637,1.681l-1.306.495a.9.9,0,0,1-.318.059" transform="translate(-651.044 -384.29)" fill="#1faaff"/>
    <path id="Path_66" data-name="Path 66" d="M632.969,448.734a.9.9,0,0,1-.282-1.753l4.855-1.6a.9.9,0,0,1,.564,1.707l-4.855,1.6a.9.9,0,0,1-.282.046" transform="translate(-568.931 -400.846)" fill="#1faaff"/>
    <path id="Path_67" data-name="Path 67" d="M628.567,536.236a.893.893,0,0,1-.443-.117l-5.082-2.882a.9.9,0,0,1,.887-1.564l5.082,2.883a.9.9,0,0,1-.444,1.681" transform="translate(-560.395 -478.456)" fill="#1faaff"/>
    <path id="Path_68" data-name="Path 68" d="M707.937,581.258a.894.894,0,0,1-.443-.117l-1.085-.615a.9.9,0,0,1,.887-1.564l1.085.615a.9.9,0,0,1-.444,1.681" transform="translate(-635.434 -521.022)" fill="#1faaff"/>
    <path id="Path_69" data-name="Path 69" d="M224.493,92.824a125.3,125.3,0,0,1,1.729-15.2,31.764,31.764,0,0,1,4.023-11.361c.58-.905,1.331-1.7,1.857-2.638,1.243-2.225,1.622-5.157,1.88-7.659a10.2,10.2,0,0,1-8.889,1.448c-1.612-.45-3.11-1.4-4.789-1.7-5-.915-8.991,4.9-13.992.806l-1.2-1.249a14.8,14.8,0,0,0,2.315,7.623c.624.882,1.424,1.649,2.061,2.534,2.286,3.181,3.4,7.177,4.083,11a143.258,143.258,0,0,1,1.53,16.3c-.357-.142-1.568.287-1.684-.065-.384-7.158-.7-14.466-2.837-21.337l-.573-1.273a25.428,25.428,0,0,0-.7,7.046c.13,4.829.914,9.659,1.1,14.481.016.415-.009.834,0,1.248l-1.056-.094c-.013-.421-.1-.841-.142-1.256-.436-4.524-.882-9.657-1-14.18a30.726,30.726,0,0,1,.4-6.048c-.639.817-.91,2.105-2.269,1.62-.336-.12-1.391-1.331-1.526-1.22a25.8,25.8,0,0,1,1.3,6.243c.535,4.524.917,9.432,1.2,13.985.019.315-.01.634,0,.949h-1.1l-1.1-13.636c-.43-2.673-.509-5.78-1.78-8.209a7.052,7.052,0,0,1-1.216-2.38c-.118-1.09.074-2.382,0-3.5a14.215,14.215,0,0,1-.264-2.245c.108-.853.928-1.116,1.458-1.647a11.781,11.781,0,0,0,1-1.3c-.176-.9-.371-1.8-.485-2.71a20.368,20.368,0,0,1-.215-4.082c.168-1.538,1.412-1.311,2.647-1.247,2.577.133,5.153.962,7.68-.014,1.132-.437,1.969-1.448,3.132-1.862,3.6-1.283,4.692,1.262,7.493,2.351a10.174,10.174,0,0,0,2.769.627c.159.01.685.075.753-.1a9.968,9.968,0,0,1-6.844-3c-.442-.481-1.033-1.6-1.7-1.7-1.311-.192-3.371,2.041-4.546,2.736-3.169,1.874-8.194,1.6-10.678-1.293l-1-1.646c-.056,1.774.136,4.215-.9,5.746-.589.872-1.63,1.134-2.283.181-.834-1.218-.621-4.179-.717-5.676-.051-.793-.26-1.607-.3-2.394-.1-1.85.39-6.645,2.131-7.667.549-.322.976-.211,1.521-.377.814-3.6,3.8-5.684,6.093-8.291,6.326-7.184,10.571-16.314,14.89-24.779l1.539.653c-4.428,8.76-8.869,18.134-15.43,25.525-1.988,2.239-4.505,3.9-5.372,6.915-.73,2.538-.529,9.144,1.42,11.119,1.7,1.719,5.254,1.823,7.4.993,1.569-.608,2.537-1.9,3.905-2.688.168-.1,1.372-.591,1.291-.656l-1.9-.2c.07-.146.547-.235.693-.254a4.615,4.615,0,0,1,2.834.373c1.505.763,2.061,2.265,3.373,3.22,2.335,1.7,6.258,1.956,8.96,1.086,1.521-.49,1.655-1.065,2.069-2.526.969-3.416.807-7.477-1.847-10.089a20.275,20.275,0,0,1,1.4,5.046,12.963,12.963,0,0,1-1.051,5.24c-.075.172-.183.52-.346.6a16.16,16.16,0,0,0,.149-7.791c-.35-1.306-.981-2.546-1.35-3.844-1.48-5.2-.5-10.257.829-15.357,1.116-4.3,2.64-8.466,4.073-12.659l1.585.5c-1.3,3.946-2.776,7.837-3.86,11.856C233.162,25.3,231.6,31.6,232.78,35.04c.432,1.263,1.508,2.263,2.224,3.37,2.052,3.177,2.1,6.612,1.169,10.2-.641,2.465-1.534,3.408-4.088,3.954l2.251.395c1.356.378,1.186,1.81,1.149,2.955a23.649,23.649,0,0,1-1.354,7.436,28.157,28.157,0,0,1-2.587,4.006c-2.246,3.547-3.221,7.855-3.923,11.96a130.226,130.226,0,0,0-1.43,13.5ZM202.516,39.082c-1.187.008-1.531,1.629-1.768,2.576-.7,2.781-.348,4.046-.13,6.764.049.614.106,4.739.552,4.843.24-.032.383-.429.467-.63.656-1.571.412-3.461.582-5.112.081-.791.475-1.836.5-2.5.029-.726-.27-1.885-.308-2.688a26.822,26.822,0,0,1,.1-3.25m31.467,14.985c-2.293-.643-4.7.171-7.041,0a9.806,9.806,0,0,1-3.949-1.246c-1.782-1-2.674-2.442-5.017-1.924-1.349.3-2.4,1.53-3.736,2.058-2.861,1.133-5.988.094-8.926.015a5.117,5.117,0,0,0,2.929,3.414c3.994,1.634,6.623-1.834,10.4-1.92,3.041-.069,4.8,1.515,7.444,2.056,2.52.515,6.525.026,7.895-2.45m-29.17,7.291c-.176-.128-.474.432-.6.552a9.84,9.84,0,0,0-1.187,1.119c.031.683.246,1.4.29,2.071.069,1.074-.155,2.487,0,3.494.119.76,2.319,3.138,3,3.6.752.507.958.013,1.373-.612a20.662,20.662,0,0,0,1.463-2.733.573.573,0,0,0,.062-.327,6.5,6.5,0,0,1-3.157-3.76c-.1-.338-.078-.754-.2-1.1-.237-.694-.962-1.476-1.049-2.3m3.6,5.594c.082-.091-.5-.815-.6-.945a10.813,10.813,0,0,0-1.194-1.353,4.421,4.421,0,0,0,1.8,2.3" transform="translate(-179.214 -4.243)" fill="#1faaff"/>
    <path id="Path_70" data-name="Path 70" d="M441.17,551.752a3.271,3.271,0,0,1,.178-.771c.029-.15.087-.265-.128-.227-4.4,3.488-7.147,8.776-8.374,14.2a71.011,71.011,0,0,0-1.368,11.618l-.2,1.149.095-6.247c.366-7.842,2.819-16.833,10.068-20.948l.426-1.773c.146-.018.179.261.189.358a3.3,3.3,0,0,1-.889,2.638" transform="translate(-388.199 -493.938)" fill="#1faaff"/>
    <path id="Path_71" data-name="Path 71" d="M278.486,548.755a2.81,2.81,0,0,0,.459,1.091c.826,1.3,1.679,1.3,2.811,2.084,3.934,2.73,5.078,9.336,5.022,13.807l-.866-4.676c-.662-2.871-2.015-6.811-4.494-8.592-.981-.705-1.992-.915-2.613-2.082a8.966,8.966,0,0,1-.515-1.583Z" transform="translate(-250.49 -493.938)" fill="#1faaff"/>
    <path id="Path_72" data-name="Path 72" d="M287.276,205.944l1.49-.956c3.4-2.824,5.535-6.772,8.2-10.231l-1.081,2.165c-1.555,2.843-4.641,7.538-7.711,8.772a3.053,3.053,0,0,1-.9.25" transform="translate(-258.579 -175.302)" fill="#1faaff"/>
    <path id="Path_73" data-name="Path 73" d="M486.84,225.536c-3.339-3.324-1.846-8.793-.7-12.786.186-.021.083.21.07.32-.4,3.551-1.392,6.745-.3,10.344Z" transform="translate(-436.368 -191.497)" fill="#1faaff"/>
    <path id="Path_74" data-name="Path 74" d="M259.576,318.767l-.84.807c-1.625,2.242.6,4.907-.756,7.335l-.7,1.446c.094-1.295.664-2.652.6-3.944s-.628-2.385-.252-3.751a2.662,2.662,0,0,1,1.952-1.893" transform="translate(-231.58 -286.924)" fill="#1faaff"/>
    <path id="Path_75" data-name="Path 75" d="M359.776,570.446l-1.326-6.214-1.169-3.475c2.117,2.7,2.652,6.327,2.5,9.689" transform="translate(-321.591 -504.741)" fill="#1faaff"/>
    <path id="Path_76" data-name="Path 76" d="M425.241,575.352c-.174.023-.094-.227-.1-.348a20.6,20.6,0,0,1,2.01-8.68c.08-.161.228-.481.387-.561Z" transform="translate(-382.66 -509.247)" fill="#1faaff"/>
    <path id="Path_77" data-name="Path 77" d="M462.163,377.4a13.4,13.4,0,0,0-6.892.1c1.841-1.325,5.105-1.659,6.892-.1" transform="translate(-409.793 -338.762)" fill="#1faaff"/>
    <path id="Path_78" data-name="Path 78" d="M365.281,356.753a6.257,6.257,0,0,1,1.5-4,15.714,15.714,0,0,1-.822,2.724,3.6,3.6,0,0,1-.675,1.272" transform="translate(-328.792 -317.519)" fill="#1faaff"/>
    <path id="Path_79" data-name="Path 79" d="M242.53,589.761a5.074,5.074,0,0,1,.3,3.995l-.491-3.854Z" transform="translate(-218.131 -530.848)" fill="#1faaff"/>
    <path id="Path_80" data-name="Path 80" d="M220.189,366.8l-.2.649c-.019-.5-.227-.969-.289-1.46a11.049,11.049,0,0,1,.115-3.357c.051-.245.152-.733.372-.877Z" transform="translate(-197.686 -325.62)" fill="#1faaff"/>
    <path id="Path_81" data-name="Path 81" d="M446.7.843A.843.843,0,1,1,445.855,0a.843.843,0,0,1,.843.843" transform="translate(-400.558)" fill="#1faaff"/>
    <path id="Path_82" data-name="Path 82" d="M573.521,47.349a.828.828,0,1,1-.828-.828.828.828,0,0,1,.828.828" transform="translate(-514.74 -41.874)" fill="#1faaff"/>
    <path id="Path_83" data-name="Path 83" d="M454.929,879.9a.851.851,0,1,1-.85-.851.851.851,0,0,1,.85.851" transform="translate(-407.954 -791.243)" fill="#1faaff"/>
    <path id="Path_84" data-name="Path 84" d="M343.978,877.769a.844.844,0,1,1-.844-.844.844.844,0,0,1,.844.844" transform="translate(-308.097 -789.326)" fill="#1faaff"/>
    <path id="Path_85" data-name="Path 85" d="M302.546,882.347a.538.538,0,1,1-.538-.538.538.538,0,0,1,.538.538" transform="translate(-271.355 -793.722)" fill="#1faaff"/>
    <path id="Path_86" data-name="Path 86" d="M271.334,882.235a.553.553,0,1,1-.553-.553.553.553,0,0,1,.553.553" transform="translate(-243.235 -793.608)" fill="#1faaff"/>
    <path id="Path_87" data-name="Path 87" d="M410.232,383.52l2.381,1.226,2.666.256,1.34,2.318,2.1,1.656-.126,2.675.875,2.531-1.552,2.182-.633,2.6-2.486,1-1.939,1.847-2.63-.506-2.63.506-1.939-1.847-2.486-1-.633-2.6-1.552-2.182.875-2.531-.126-2.675,2.1-1.656,1.34-2.318,2.666-.256Z" transform="translate(-360.937 -345.209)" fill="#fff"/>
    <path id="Path_88" data-name="Path 88" d="M404.761,394.608a.888.888,0,0,1-.17-.016l-2.46-.473-2.46.473a.9.9,0,0,1-.79-.232l-1.814-1.728-2.325-.932a.9.9,0,0,1-.539-.622l-.592-2.434L392.16,386.6a.9.9,0,0,1-.117-.815l.818-2.368-.118-2.5a.9.9,0,0,1,.342-.749l1.968-1.549,1.253-2.169a.9.9,0,0,1,.693-.445l2.493-.239,2.227-1.147a.9.9,0,0,1,.823,0l2.227,1.147,2.494.239a.9.9,0,0,1,.693.445l1.253,2.169,1.968,1.549a.9.9,0,0,1,.342.749l-.118,2.5.818,2.368a.9.9,0,0,1-.117.815l-1.452,2.041-.592,2.434a.9.9,0,0,1-.539.622l-2.325.932-1.814,1.728a.9.9,0,0,1-.62.248m-2.63-2.3a.891.891,0,0,1,.17.016l2.175.418,1.6-1.528a.9.9,0,0,1,.286-.183l2.056-.824.523-2.152a.9.9,0,0,1,.141-.309l1.284-1.8-.723-2.093a.9.9,0,0,1-.048-.336l.1-2.212-1.74-1.37a.9.9,0,0,1-.222-.257l-1.108-1.918-2.2-.211a.9.9,0,0,1-.326-.1l-1.969-1.014-1.969,1.014a.9.9,0,0,1-.326.1l-2.2.211-1.108,1.918a.9.9,0,0,1-.222.257l-1.74,1.37.1,2.212a.9.9,0,0,1-.048.336l-.723,2.093,1.284,1.8a.9.9,0,0,1,.141.309l.523,2.152,2.056.824a.9.9,0,0,1,.286.183l1.6,1.528,2.175-.418a.891.891,0,0,1,.17-.016m-2.381-15.659h0Z" transform="translate(-352.836 -337.108)" fill="#1faaff"/>
  </g>
</svg>
