<svg xmlns="http://www.w3.org/2000/svg" xmlns:xlink="http://www.w3.org/1999/xlink" width="89.697" height="94.143" viewBox="0 0 89.697 94.143">
  <defs>
    <clipPath id="clip-path">
      <rect id="Rectangle_19" data-name="Rectangle 19" width="89.697" height="94.143" fill="none"/>
    </clipPath>
  </defs>
  <g id="Group_35" data-name="Group 35" clip-path="url(#clip-path)">
    <path id="Path_173" data-name="Path 173" d="M71.566,304.719a25.5,25.5,0,0,0,6.362-.975c.378-.1.8-.206.963-.227,2.267.4,4.064.08,5.344-.945a5.762,5.762,0,0,0,1.948-4.386,2.319,2.319,0,0,0-.524-1.912c-.536-.474-1.234-.361-2.041-.229a12.072,12.072,0,0,1-2.05.2,14.915,14.915,0,0,1-7.012-1.595c-2.074-1.037-11.177-6.206-15.064-8.413l-.75-.426c-2.5-1.419-2.9-2.13-4.59-5.119-.477-.845-1.071-1.9-1.834-3.176-1.762-2.952-6.006-13.142-9.75-22.132-3.762-9.033-7.011-16.833-8.176-18.558a13.213,13.213,0,0,0-5.021-4.229,15.947,15.947,0,0,0-5.446-1.669c-2.988-.285-22.44,3.06-23.267,3.2a.793.793,0,0,0,.269,1.562c5.573-.961,20.54-3.407,22.847-3.187,2.486.237,7.014,1.819,9.3,5.207,1.076,1.593,4.609,10.076,8.026,18.28,3.949,9.481,8.032,19.285,9.852,22.335.753,1.262,1.342,2.3,1.815,3.143,1.724,3.053,2.3,4.082,5.188,5.718l.75.426c3.9,2.213,13.026,7.4,15.138,8.452a16.422,16.422,0,0,0,7.72,1.762,13.618,13.618,0,0,0,2.305-.219c.244-.04.534-.087.709-.1a3.4,3.4,0,0,1,.016.609,4.355,4.355,0,0,1-1.355,3.212c-.92.737-2.314.941-4.145.609l-.044-.007a4.747,4.747,0,0,0-1.521.272c-2.226.571-6.858,1.76-10.541-.013a16.557,16.557,0,0,0-7.459-1.733,11.308,11.308,0,0,0-5.9,1.688,5.058,5.058,0,0,1-4.944-.021,3.648,3.648,0,0,1-2.039-3.23,33.286,33.286,0,0,1,.21-3.341c.248-2.534.462-4.723-.989-6.972-1.574-2.44-7.6-11.267-9.446-13.014-.176-.166-.45-.4-.83-.725-9.561-8.171-14-15.859-13.192-22.85a.793.793,0,0,0-1.389-.607,30.837,30.837,0,0,1-4.886,4.255,44.172,44.172,0,0,1-14.39,6.777.793.793,0,0,0,.408,1.532A45.759,45.759,0,0,0,17.1,256.9a38.16,38.16,0,0,0,3.624-2.964c.08,4.241,1.833,8.681,5.227,13.231a55.489,55.489,0,0,0,8.611,8.89c.349.3.625.534.772.673,1.559,1.473,7.227,9.659,9.2,12.721,1.152,1.786.972,3.627.743,5.959-.1,1.04-.217,2.218-.217,3.5a5.192,5.192,0,0,0,2.866,4.622,6.61,6.61,0,0,0,6.562-.04c2.38-1.535,6.734-2.3,11.814.141a12.064,12.064,0,0,0,5.261,1.095" transform="translate(3.509 -210.577)" fill="#1faaff"/>
    <path id="Path_174" data-name="Path 174" d="M429.542,36.481a.967.967,0,0,0,.745-.349l1.964-2.357a.969.969,0,1,0-1.488-1.24L428.8,34.893a.969.969,0,0,0,.744,1.589" transform="translate(-380.518 -29.352)" fill="#1faaff"/>
    <path id="Path_175" data-name="Path 175" d="M479.505,102.974a.967.967,0,0,0,.758-.365l4.863-6.107a.969.969,0,1,0-1.515-1.207l-4.864,6.107a.969.969,0,0,0,.757,1.572" transform="translate(-437.781 -86.57)" fill="#1faaff"/>
    <path id="Path_176" data-name="Path 176" d="M536.4,3.488a.969.969,0,0,0,.944-.755l.351-1.55a.969.969,0,1,0-1.89-.428l-.351,1.55a.97.97,0,0,0,.946,1.183" transform="translate(-495.176 -0.001)" fill="#1faaff"/>
    <path id="Path_177" data-name="Path 177" d="M556.289,80.581a.969.969,0,0,0,.934-.714l1.528-5.612a.969.969,0,1,0-1.869-.509l-1.528,5.612a.969.969,0,0,0,.935,1.223" transform="translate(-517.99 -66.6)" fill="#1faaff"/>
    <path id="Path_178" data-name="Path 178" d="M437.615,167.721a.964.964,0,0,0,.438-.105l5.925-3.01a.969.969,0,1,0-.877-1.727l-5.925,3.01a.969.969,0,0,0,.439,1.833" transform="translate(-393.262 -148.44)" fill="#1faaff"/>
    <path id="Path_179" data-name="Path 179" d="M380.265,136.223a.965.965,0,0,0,.438-.105l1.265-.643a.969.969,0,1,0-.877-1.727l-1.265.643a.969.969,0,0,0,.439,1.833" transform="translate(-326.202 -121.874)" fill="#1faaff"/>
    <path id="Path_180" data-name="Path 180" d="M571.688,202.8l-2.479-1.436-1.769-2.253-2.862.132-2.706-.939-2.336,1.658-2.784.673-1.069,2.658-1.978,2.072.538,2.814-.544,2.812,1.973,2.076,1.063,2.66,2.783.68,2.332,1.663,2.709-.933,2.861.138,1.774-2.249,2.482-1.431.277-2.851,1.314-2.545-1.308-2.548Z" transform="translate(-532.329 -180.84)" fill="#fff"/>
    <path id="Path_181" data-name="Path 181" d="M551.819,209.007a.966.966,0,0,0,.315-.053l2.532-.872,2.675.129a.968.968,0,0,0,.807-.368l1.659-2.1,2.32-1.338a.968.968,0,0,0,.48-.746l.259-2.666,1.229-2.38a.969.969,0,0,0,0-.887l-1.224-2.383-.253-2.666a.969.969,0,0,0-.479-.747l-2.317-1.343-1.654-2.106a.969.969,0,0,0-.806-.369l-2.676.123-2.531-.878a.969.969,0,0,0-.878.125l-2.184,1.55-2.6.63a.969.969,0,0,0-.671.58l-1,2.485-1.85,1.937a.969.969,0,0,0-.251.851l.5,2.631-.509,2.63a.969.969,0,0,0,.249.851l1.845,1.941.994,2.487a.969.969,0,0,0,.67.582l2.6.636,2.181,1.555a.969.969,0,0,0,.563.18m2.709-2.87a.966.966,0,0,0-.315.053l-2.237.77-1.926-1.374a.969.969,0,0,0-.333-.152l-2.3-.561-.878-2.2a.969.969,0,0,0-.2-.308l-1.63-1.715.449-2.323a.967.967,0,0,0,0-.366l-.444-2.324,1.634-1.711a.971.971,0,0,0,.2-.307l.883-2.2,2.3-.556a.971.971,0,0,0,.333-.152L552,189.35l2.235.775a.973.973,0,0,0,.362.052l2.363-.109,1.461,1.861a.968.968,0,0,0,.276.24l2.047,1.186.223,2.355a.967.967,0,0,0,.1.351l1.081,2.1-1.086,2.1a.967.967,0,0,0-.1.351l-.229,2.355-2.05,1.182a.969.969,0,0,0-.277.239l-1.465,1.857-2.363-.114h-.047m7.4-10.517h0Z" transform="translate(-522.298 -170.809)" fill="#1faaff"/>
    <path id="Path_182" data-name="Path 182" d="M554.754,704.861s2.3,1.459,3.763-1.536" transform="translate(-517.671 -641.39)" fill="#fff"/>
    <path id="Path_183" data-name="Path 183" d="M545.573,696.152a3.186,3.186,0,0,0,.872-.121,4.037,4.037,0,0,0,2.459-2.316.969.969,0,0,0-1.742-.848,2.249,2.249,0,0,1-1.231,1.3,1.609,1.609,0,0,1-1.153-.161l.01.006-1.037,1.637a3.621,3.621,0,0,0,1.82.507" transform="translate(-507.188 -631.356)" fill="#1faaff"/>
    <path id="Path_184" data-name="Path 184" d="M598.637,523.949c1.309,4.627,4.448,10.521,8.548,13.194-.466-.476-.916-.956-1.339-1.459-2.957-3.543-5.073-7.663-7.209-11.735" transform="translate(-570.204 -477.81)" fill="#1faaff"/>
    <path id="Path_185" data-name="Path 185" d="M939.835,547.456a29.339,29.339,0,0,0-3.871,1.012,28.173,28.173,0,0,0-3.734,1.44,16.7,16.7,0,0,0,7.6-2.452" transform="translate(-932.23 -499.247)" fill="#1faaff"/>
    <path id="Path_186" data-name="Path 186" d="M789.018,457.826c-2.279,1.551-4.84,3.173-7.188,4.637-.806.515-1.625,1.009-2.409,1.562.231-.071.458-.151.685-.233a22.377,22.377,0,0,0,8.913-5.967" transform="translate(-767.957 -417.51)" fill="#1faaff"/>
    <path id="Path_187" data-name="Path 187" d="M847.582,298.818a47.151,47.151,0,0,0-9.179.9,41.845,41.845,0,0,0-6.927,1.886c.51-.071,1.014-.156,1.519-.248,4.743-.83,9.849-1.658,14.587-2.54" transform="translate(-831.104 -272.502)" fill="#1faaff"/>
    <path id="Path_188" data-name="Path 188" d="M439.661,742.719c2.644,3.874,5.521,7.544,8.362,11.274a32.3,32.3,0,0,0-3.683-6.008,40.143,40.143,0,0,0-4.68-5.266" transform="translate(-397.043 -677.315)" fill="#1faaff"/>
    <path id="Path_189" data-name="Path 189" d="M146.148,958.809c-2.071.722-5.038.015-7.053-.71-.385-.126-.961-.37-1.343-.522l-1.025-.408c-.575-.217-1.156-.424-1.748-.594l-.533-.156-.9-.217c-.334-.076-.756-.14-1.095-.206-.266-.033-.658-.086-.923-.117-.136-.013-.783-.053-.929-.064l-.746-.008a13.95,13.95,0,0,0-6.428,1.661c-2.263,1.022-2.353-2.989-2.241-4.421-.387,1.771-.4,5.927,2.45,4.879,4.281-2.03,8.507-1.7,12.876-.165.631.231,1.425.527,2.061.744a15.718,15.718,0,0,0,4.708.848,8.173,8.173,0,0,0,1.47-.112,4.593,4.593,0,0,0,1.4-.433" transform="translate(-67.106 -869.122)" fill="#1faaff"/>
  </g>
</svg>
