<svg xmlns="http://www.w3.org/2000/svg" xmlns:xlink="http://www.w3.org/1999/xlink" width="73" height="93.78" viewBox="0 0 73 93.78">
  <defs>
    <clipPath id="clip-path">
      <rect id="Rectangle_21" data-name="Rectangle 21" width="73" height="93.78" fill="none"/>
    </clipPath>
  </defs>
  <g id="Group_39" data-name="Group 39" clip-path="url(#clip-path)">
    <path id="Path_228" data-name="Path 228" d="M676.582,38.435a1.049,1.049,0,0,1-.789-1.741l2.131-2.43a1.049,1.049,0,0,1,1.578,1.384l-2.131,2.43a1.047,1.047,0,0,1-.789.358" transform="translate(-611.095 -30.672)" fill="#1faaff"/>
    <path id="Path_229" data-name="Path 229" d="M593.425,102.077a1.049,1.049,0,0,1-.8-1.723l5.283-6.3a1.049,1.049,0,1,1,1.608,1.348l-5.283,6.3a1.047,1.047,0,0,1-.8.375" transform="translate(-535.87 -84.74)" fill="#1faaff"/>
    <path id="Path_230" data-name="Path 230" d="M591.521,3.722A1.05,1.05,0,0,1,590.5,2.416l.41-1.622a1.049,1.049,0,1,1,2.034.515l-.41,1.622a1.05,1.05,0,0,1-1.016.792" transform="translate(-534.147 -0.001)" fill="#1faaff"/>
    <path id="Path_231" data-name="Path 231" d="M556.275,78.477a1.05,1.05,0,0,1-1.006-1.351l1.758-5.869a1.049,1.049,0,1,1,2.01.6l-1.758,5.869a1.05,1.05,0,0,1-1,.749" transform="translate(-502.263 -63.784)" fill="#1faaff"/>
    <path id="Path_232" data-name="Path 232" d="M621.628,165.763a1.049,1.049,0,0,1-.452-2l6.319-3.012a1.049,1.049,0,1,1,.9,1.894l-6.319,3.012a1.046,1.046,0,0,1-.451.1" transform="translate(-561.382 -145.328)" fill="#1faaff"/>
    <path id="Path_233" data-name="Path 233" d="M730.192,136.481a1.049,1.049,0,0,1-.452-2l1.349-.643a1.049,1.049,0,0,1,.9,1.894l-1.349.643a1.045,1.045,0,0,1-.451.1" transform="translate(-659.59 -120.982)" fill="#1faaff"/>
    <path id="Path_234" data-name="Path 234" d="M131.423,248.936c-5.934,0-11.494-3-15.657-8.453a33.092,33.092,0,0,1-6.355-20.048,36.321,36.321,0,0,1,1.071-8.817,1.049,1.049,0,0,1,2.036.51,34.221,34.221,0,0,0-1.008,8.307c0,14.558,8.933,26.4,19.914,26.4s19.914-11.844,19.914-26.4-8.933-26.4-19.914-26.4a17.252,17.252,0,0,0-12.647,6.022,1.049,1.049,0,1,1-1.548-1.417,19.319,19.319,0,0,1,14.195-6.7c5.934,0,11.495,3,15.657,8.453a34.8,34.8,0,0,1,0,40.1c-4.163,5.451-9.723,8.453-15.657,8.453" transform="translate(-98.974 -173.626)" fill="#1faaff"/>
    <path id="Path_235" data-name="Path 235" d="M1.05,764.482a1.049,1.049,0,0,1-.382-2.027c3.419-1.335,18.7-8.816,21.259-10.335,1.7-1.011,1.487-5.048,1.277-6.382a1.049,1.049,0,0,1,2.073-.329c.107.67.95,6.6-2.278,8.516C20.32,755.515,5.02,763.01,1.431,764.41a1.047,1.047,0,0,1-.381.072" transform="translate(0 -673.506)" fill="#1faaff"/>
    <path id="Path_236" data-name="Path 236" d="M447.981,764.478a1.046,1.046,0,0,1-.381-.072c-3.589-1.4-18.889-8.9-21.568-10.486-3.228-1.917-2.385-7.846-2.278-8.516a1.049,1.049,0,0,1,2.072.33c-.21,1.335-.426,5.37,1.277,6.381,2.559,1.52,17.84,9,21.259,10.335a1.049,1.049,0,0,1-.382,2.027" transform="translate(-383.172 -673.502)" fill="#1faaff"/>
    <path id="Path_237" data-name="Path 237" d="M307.805,618.3a4.7,4.7,0,0,1-3.249-1.553,1.049,1.049,0,0,1,1.571-1.392,2.641,2.641,0,0,0,1.678.846h.009a2.049,2.049,0,0,0,1.489-.842,1.049,1.049,0,1,1,1.575,1.387,4.052,4.052,0,0,1-3.073,1.553" transform="translate(-275.268 -556.337)" fill="#1faaff"/>
    <path id="Path_238" data-name="Path 238" d="M203.806,518.8a1.049,1.049,0,0,1-.319-2.049l2.368-.756-4.977-1.134a1.049,1.049,0,1,1,.466-2.046l8.724,1.988a1.049,1.049,0,0,1,.086,2.023l-6.03,1.924a1.053,1.053,0,0,1-.319.05" transform="translate(-180.979 -463.872)" fill="#1faaff"/>
    <path id="Path_239" data-name="Path 239" d="M373.912,518.8a1.053,1.053,0,0,1-.319-.05l-6.03-1.924a1.049,1.049,0,0,1,.086-2.023l8.724-1.988a1.049,1.049,0,1,1,.466,2.046l-4.977,1.134,2.368.756a1.049,1.049,0,0,1-.319,2.049" transform="translate(-331.841 -463.872)" fill="#1faaff"/>
    <path id="Path_240" data-name="Path 240" d="M53.908,476.19a4.467,4.467,0,0,1-3.585-1.943,7.551,7.551,0,0,1,0-8.6,4.467,4.467,0,0,1,3.585-1.943,4.151,4.151,0,0,1,2.228.665,1.049,1.049,0,0,1-1.127,1.77,2.03,2.03,0,0,0-1.1-.337c-1.535,0-2.831,1.9-2.831,4.146s1.3,4.146,2.831,4.146a2.362,2.362,0,0,0,1.762-.923,1.049,1.049,0,1,1,1.6,1.358,4.411,4.411,0,0,1-3.362,1.663" transform="translate(-44.306 -419.468)" fill="#1faaff"/>
    <path id="Path_241" data-name="Path 241" d="M544.59,476.19a4.411,4.411,0,0,1-3.362-1.663,1.049,1.049,0,1,1,1.6-1.358,2.362,2.362,0,0,0,1.762.923c1.535,0,2.831-1.9,2.831-4.146s-1.3-4.146-2.831-4.146a2.03,2.03,0,0,0-1.1.337,1.049,1.049,0,1,1-1.127-1.77,4.151,4.151,0,0,1,2.228-.665,4.467,4.467,0,0,1,3.585,1.943,7.551,7.551,0,0,1,0,8.6,4.467,4.467,0,0,1-3.585,1.943" transform="translate(-489.375 -419.468)" fill="#1faaff"/>
    <path id="Path_242" data-name="Path 242" d="M380.126,197.419l2.427,1.934,2.971.9,1,2.939,2.015,2.36-.751,3.011.419,3.075-2.259,2.127-1.309,2.813-3.051.568-2.623,1.659-2.873-1.172-3.1-.023-1.784-2.539-2.6-1.7-.128-3.1-1.268-2.832,1.568-2.677.464-3.068,2.767-1.4,2.049-2.33,3.087.314Z" transform="translate(-332.179 -178.587)" fill="#fff"/>
    <path id="Path_243" data-name="Path 243" d="M369.01,209.9a1.048,1.048,0,0,1-.4-.078l-2.687-1.1-2.9-.021a1.049,1.049,0,0,1-.851-.446l-1.668-2.374-2.429-1.586a1.049,1.049,0,0,1-.475-.835l-.12-2.9-1.186-2.648a1.049,1.049,0,0,1,.052-.959l1.467-2.5.434-2.869a1.05,1.05,0,0,1,.563-.779l2.587-1.313,1.916-2.179a1.051,1.051,0,0,1,.894-.351l2.886.294,2.79-.8a1.049,1.049,0,0,1,.942.188l2.269,1.808,2.778.838a1.049,1.049,0,0,1,.691.668l.932,2.748,1.884,2.206a1.049,1.049,0,0,1,.22.935l-.7,2.815.392,2.875a1.049,1.049,0,0,1-.32.906l-2.112,1.989-1.224,2.63a1.049,1.049,0,0,1-.759.589l-2.852.531-2.452,1.551a1.049,1.049,0,0,1-.561.162m-5.428-3.289,2.563.019a1.05,1.05,0,0,1,.389.078l2.373.968,2.166-1.37a1.05,1.05,0,0,1,.369-.145l2.519-.469,1.081-2.323a1.048,1.048,0,0,1,.232-.321l1.866-1.757-.346-2.539a1.048,1.048,0,0,1,.022-.4l.62-2.487-1.664-1.949a1.052,1.052,0,0,1-.2-.345l-.823-2.427-2.454-.74a1.047,1.047,0,0,1-.351-.184l-2-1.6-2.464.7a1.05,1.05,0,0,1-.395.035l-2.549-.26-1.692,1.924a1.048,1.048,0,0,1-.313.243l-2.285,1.16-.383,2.534a1.051,1.051,0,0,1-.132.374l-1.3,2.211,1.048,2.339a1.05,1.05,0,0,1,.091.386l.106,2.561,2.146,1.4a1.049,1.049,0,0,1,.285.275Z" transform="translate(-322.228 -168.637)" fill="#1faaff"/>
    <path id="Path_244" data-name="Path 244" d="M482.145,909.139a53.392,53.392,0,0,1,7.825,3.011,52.84,52.84,0,0,1,7.342,4.048,52.8,52.8,0,0,1-7.825-3.011,53.387,53.387,0,0,1-7.342-4.048" transform="translate(-436.154 -822.418)" fill="#1faaff"/>
    <path id="Path_245" data-name="Path 245" d="M135.078,843.139A4.461,4.461,0,0,1,133.6,845.3a26.646,26.646,0,0,1-6.669,4.112,57.47,57.47,0,0,1-7.271,2.785c-.829.25-1.664.487-2.514.674,3.042-1.645,6.182-3.041,9.3-4.5,1.959-.95,7.811-3.438,8.629-5.233" transform="translate(-105.971 -762.713)" fill="#1faaff"/>
    <path id="Path_246" data-name="Path 246" d="M156.145,400.139c6.411.872,12.883,1.063,19.34,1.3.927.032,1.856.058,2.79.135q-.689.13-1.381.235c-6.252.943-14.847.689-20.749-1.665" transform="translate(-141.251 -361.97)" fill="#1faaff"/>
    <path id="Path_247" data-name="Path 247" d="M66.137,266.573c-1.284.1-6.73.391-7.251,1.417.126.478,1.195,1.034,1.647,1.277a32.445,32.445,0,0,0,6.929,2.449,86.76,86.76,0,0,0,15.845,2.012,40.743,40.743,0,0,1-4.3.285c-5.93.056-12.031-.634-17.489-3.112-1.018-.487-3.106-1.46-3.461-2.59-.265-.99.806-1.438,1.579-1.609a12.369,12.369,0,0,1,2.187-.269,29.67,29.67,0,0,1,4.313.142" transform="translate(-52.483 -240.995)" fill="#1faaff"/>
    <path id="Path_248" data-name="Path 248" d="M287.263,681.195a1.049,1.049,0,0,1-1.049-1.049,4.015,4.015,0,0,0-8.03,0,1.049,1.049,0,0,1-2.1,0,6.114,6.114,0,1,1,12.227,0,1.049,1.049,0,0,1-1.049,1.049" transform="translate(-249.75 -609.737)" fill="#1faaff"/>
  </g>
</svg>
