<svg id="Group_228" data-name="Group 228" xmlns="http://www.w3.org/2000/svg" xmlns:xlink="http://www.w3.org/1999/xlink" width="22.046" height="23.779" viewBox="0 0 22.046 23.779">
  <defs>
    <clipPath id="clip-path">
      <rect id="Rectangle_107" data-name="Rectangle 107" width="22.046" height="23.779" fill="#26445d"/>
    </clipPath>
  </defs>
  <g id="Group_227" data-name="Group 227" clip-path="url(#clip-path)">
    <path id="Path_660" data-name="Path 660" d="M74.2,77.895c-.758.167-3.211,3.482-4.03,4.069-.8-.372-2.3-2.709-3.192-1.519-.532.706.161,1.224.631,1.685.906.486,1.9,2.323,3.022,1.862,1.58-1.57,3.121-3.2,4.569-4.884a.852.852,0,0,0-1-1.214" transform="translate(-59.773 -69.687)" fill="#26445d"/>
    <path id="Path_661" data-name="Path 661" d="M22.043,7.861h0c-.005-1.179.02-2.279-.058-3.068C21.818,3.074,20.2,3.161,18.957,2.9a22.416,22.416,0,0,1-4.674-1.419C13.24,1.018,11.74-.16,10.65.017,9.864.145,7.819,1.471,6.819,1.858a20.33,20.33,0,0,1-2.653.814c-1.3.3-3.54.186-4.018,1.655-.207,5.848-.854,11.4,3.967,15.622a29.657,29.657,0,0,0,6.1,3.667c1.061.393,1.542,0,2.459-.458,3.029-1.52,5.825-3.322,7.541-5.99a.9.9,0,0,0,.142-.2l.464-.918a.9.9,0,0,0-1.613-.815l-.464.918a.9.9,0,0,0-.05.124l-.008-.006c-1.805,2.926-4.736,4.144-7.66,5.762-3.056-1.608-6.164-2.955-7.932-6.1-1.881-3.349-1.283-7.312-1.3-11A26.311,26.311,0,0,0,9.034,2.814c.424-.2,1.532-.96,1.826-1.02.365-.074,1.647.809,2.091,1.02a26.849,26.849,0,0,0,7.241,2.109c0,.812.02,1.637.043,2.465l0,1.515a.9.9,0,0,0,.9.9h0a.9.9,0,0,0,.9-.906Z" transform="translate(0 0.001)" fill="#26445d"/>
  </g>
</svg>
