<svg xmlns="http://www.w3.org/2000/svg" width="25.977" height="26.029" viewBox="0 0 25.977 26.029">
  <g id="Group_208" data-name="Group 208" transform="translate(0.308 0.3)">
    <g id="Group_209" data-name="Group 209" transform="translate(0)">
      <path id="Path_636" data-name="Path 636" d="M91.891,13.043c.1-.345.108-.375.149-.412s.065-.038.247-.084a3.23,3.23,0,0,0,.47-.144c.683-.345.886-1.221,1.049-1.925l.025-.108c.247-1.062.443-1.9-.47-2.643a.619.619,0,0,0-.166-.065.2.2,0,0,1-.118-.063c-.052-.067-.057-.1.083-.9.041-.233.083-.475.088-.554a3.839,3.839,0,0,0-1.592-3.64c-.319-.245-1.013-.68-1.356-.569a.265.265,0,0,0-.176.2c-.113.378.074.494.442.683a2.681,2.681,0,0,1,.328.188A3.124,3.124,0,0,1,92.452,5.7a7.241,7.241,0,0,1-.138,1.018,7.389,7.389,0,0,0-.13.914c-.031.607.161.65.426.71a.6.6,0,0,1,.536.406,5.856,5.856,0,0,1-.63,2.806.777.777,0,0,1-.655.186c-.222-.009-.363-.007-.472.133a3.008,3.008,0,0,0-.253.73,4.937,4.937,0,0,1-.22.689,5.834,5.834,0,0,1-3.228,2.726,3.2,3.2,0,0,1-.9.127A5.228,5.228,0,0,1,82.363,13.1a4.816,4.816,0,0,1-.157-.5,2.709,2.709,0,0,0-.259-.706c-.131-.172-.279-.174-.509-.162a.729.729,0,0,1-.651-.2,6.556,6.556,0,0,1-.6-2.743c.063-.335.364-.412.584-.468a.653.653,0,0,0,.293-.12h0a.784.784,0,0,0,.124-.328,5.463,5.463,0,0,0-.136-1.058,7.581,7.581,0,0,1-.138-.925,4.412,4.412,0,0,1,1.036-3.227C83.569.753,86.194.807,88.51.854c.731.015,1.422.029,2.075-.011a.365.365,0,0,0,.263-.28A.44.44,0,0,0,90.76.126,3.355,3.355,0,0,0,89.522.049c-.181.007-.337.013-.445.01l-.548-.02C88,.02,87.477,0,86.964,0a8.261,8.261,0,0,0-4.028.829,5.327,5.327,0,0,0-2.883,4.985c.005.1.036.291.069.493.113.692.177,1.159.032,1.333a.838.838,0,0,1-.213.159,1.13,1.13,0,0,0-.281.214c-.567.667-.314,1.707-.111,2.543.212.871.43,1.564,1.137,1.9a2.155,2.155,0,0,0,.26.084c.239.068.333.1.382.164a2.426,2.426,0,0,1,.2.521c.06.183.127.391.17.48a6.624,6.624,0,0,0,3.746,3.1c2.55.781,5.388-1.16,6.339-3.391.024-.055.073-.233.113-.376" transform="translate(-74.026)" fill="#26445d" stroke="#26445d" stroke-width="0.6"/>
      <path id="Path_637" data-name="Path 637" d="M11.221,253.1a.416.416,0,0,0,.277-.423,2.54,2.54,0,0,0-.235-.7c-.032-.074-.061-.141-.084-.2-.505-1.269-1.067-2.544-1.611-3.777s-1.108-2.513-1.615-3.788a.416.416,0,0,0-.26-.209.478.478,0,0,0-.36.037L5.4,246.079l-.018.01c-.386.215-.8.42-1.2.618-1.707.844-3.473,1.716-3.934,3.692a7.885,7.885,0,0,0-.215,2.39.389.389,0,0,0,.349.323.4.4,0,0,0,.426-.187,5.44,5.44,0,0,0,.065-.817c.009-.23.018-.447.034-.569a4.119,4.119,0,0,1,.652-2.042,8.738,8.738,0,0,1,3.288-2.153l.327-.15.189-.088v5.774c0,.085.156.2.358.224a.362.362,0,0,0,.428-.254l.016-6.272.02-.032a3.7,3.7,0,0,1,.554-.637,4,4,0,0,0,.482-.536l.025-.037.043-.014c.209-.068.316.2.379.36.01.026.019.049.027.065.547,1.156,1.038,2.378,1.513,3.559.484,1.205.985,2.452,1.546,3.629a.417.417,0,0,0,.47.169" transform="translate(-0.001 -227.73)" fill="#26445d" stroke="#26445d" stroke-width="0.6"/>
      <path id="Path_638" data-name="Path 638" d="M206.968,289.648l0-.041c-.011-.128-.02-.2-.084-.261a2.888,2.888,0,0,0-.361-.14h-2.247l.028-.157a.793.793,0,0,0-.219-.829.345.345,0,0,0-.386,0,.8.8,0,0,0-.2.83l.025.134-.134.022a4.767,4.767,0,0,1-.811,0c-.617-.027-1.542-.067-1.709.231l-.005,4.677a.38.38,0,0,0,.333.225c.326-.022.661-.031,1-.031.524,0,1.057.02,1.579.04a22.221,22.221,0,0,0,2.75-.007c.284-.026.389-.1.437-.317-.042-.671-.014-1.387.013-2.08a18.191,18.191,0,0,0,0-2.3m-.8,3.823h-4.532v-3.426l.157.029c.09.016.476,0,.786-.006.756-.024.815-.018.877.036a.26.26,0,0,1,.07.162c.035.181.085.332.35.343.322.014.378-.171.408-.361.008-.053.029-.177.151-.177h1.733Z" transform="translate(-187.474 -268.953)" fill="#26445d" stroke="#26445d" stroke-width="0.6"/>
      <path id="Path_639" data-name="Path 639" d="M260.855,251.7a4.63,4.63,0,0,0-2.347-4.153,12.27,12.27,0,0,0-1.469-.751,9.523,9.523,0,0,1-1.73-.931,6.2,6.2,0,0,1-.907-.988,7.494,7.494,0,0,0-.743-.842.572.572,0,0,0-.42-.168.4.4,0,0,0-.279.175,13.355,13.355,0,0,0-.644,1.536.478.478,0,0,0,.126.39.42.42,0,0,0,.355.1c.27-.035.383-.359.483-.644.017-.047.033-.093.049-.136l.014-.036.03-.023a.139.139,0,0,1,.086-.032c.094,0,.2.107.376.287.152.158.341.368.523.57.223.247.475.528.538.572a9.771,9.771,0,0,0,1.591.832,11.717,11.717,0,0,1,1.525.776,3.732,3.732,0,0,1,1.972,3.249c.014.116.017.266.02.425.007.369.017.927.218,1.03s.329.114.422.053c.275-.179.229-.984.211-1.287" transform="translate(-235.497 -227.613)" fill="#26445d" stroke="#26445d" stroke-width="0.6"/>
    </g>
  </g>
</svg>
