<svg id="Group_211" data-name="Group 211" xmlns="http://www.w3.org/2000/svg" xmlns:xlink="http://www.w3.org/1999/xlink" width="28.758" height="28.684" viewBox="0 0 28.758 28.684">
  <defs>
    <clipPath id="clip-path">
      <rect id="Rectangle_104" data-name="Rectangle 104" width="28.758" height="28.684" fill="#26445d"/>
    </clipPath>
  </defs>
  <g id="Group_210" data-name="Group 210" clip-path="url(#clip-path)">
    <path id="Path_640" data-name="Path 640" d="M12.361,6.69c.936.966.332.339,1.092.18.81-.169,2.085,1.853,2.342,1.854.068,0,.675-.805,1.209-.271.453.454-.254,1.2-.227,1.258a6.069,6.069,0,0,0,.694.687c.069,0,.684-.8,1.191-.2.485.573-.252,1.07-.252,1.142a6.135,6.135,0,0,0,.687.7c.083.037,1.006-.81,1.328-.054.292.686-.341.956-.341,1.033,0,.122,1.544,1.4,1.7,1.75.287.659-.272.8-.312,1.024a6.253,6.253,0,0,0,.83.922c1.848,1.507,3.943.529,5.463,2.347a3.928,3.928,0,0,1-1.352,6.2c-.213.109-.724.208-.81.274a8.081,8.081,0,0,0-.353,1.027,4.047,4.047,0,0,1-6.412.96c-1.533-1.561-.647-3.646-2.1-5.239l-9.5-9.518c-.413-.72.289-1.232.965-.866L12.366,16l2.592-.38L10.073,10.7C9.6,10.08,12.125,8.308,12,8.136A5.865,5.865,0,0,1,9.758,4.809a7.8,7.8,0,0,0-.272-1.9,2.643,2.643,0,0,0-4.948.173c-.107.341-.1,1.028-.365,1.212a6.731,6.731,0,0,1-1.064.217,2.648,2.648,0,0,0-.442,4.822c.646.326,1.806.164,1.647,1.108-.137.818-1.679.345-2.174.109-3.026-1.447-2.77-5.768.3-7.2.2-.092.592-.118.692-.195.05-.038.333-.914.447-1.129,1.579-2.961,6.246-2.614,7.184.59.564,1.924-.013,2.41,1.6,4.07m2.525,3.783c-.217-.266-.005-.692-.073-.859-.1-.246-.994-.883-1.186-1.183L11.609,10.45,18.26,17.1l2.019-2.019c-.277-.178-.857-1-1.084-1.088-.146-.058-.32.063-.514.036-.815-.113-.387-.769-.514-1.064a8.044,8.044,0,0,0-.647-.648c-.177-.071-.546.149-.855-.077-.39-.285-.1-.759-.175-.952a7.561,7.561,0,0,0-.592-.6c-.235-.151-.743.114-1.011-.215m6.145,6.766c-.112-.092-.5-.44-.59-.425-.538.354-1.575,1.871-2.182,1.871-.7,0-1.683-1.709-2.19-1.86a19.183,19.183,0,0,0-2.59.326c1.552,1.885,5.02,4.164,5.474,6.649.191,1.043-.044,1.859.794,2.754a2.63,2.63,0,0,0,4.394-.809c.168-.451.092-1.289.546-1.426.673-.2,1.01-.023,1.705-.561a2.643,2.643,0,0,0-.962-4.661c-2.494-.5-2.361-.192-4.4-1.858" transform="translate(0 0.001)" fill="#26445d"/>
    <path id="Path_641" data-name="Path 641" d="M54.182,103.659a.653.653,0,0,1,.347,1.242.653.653,0,1,1-.347-1.242" transform="translate(-48.314 -93.436)" fill="#26445d"/>
  </g>
</svg>
