<svg id="Group_202" data-name="Group 202" xmlns="http://www.w3.org/2000/svg" width="23.128" height="23.217" viewBox="0 0 23.128 23.217">
  <g id="Group_206" data-name="Group 206" transform="translate(0 0)">
    <path id="Path_629" data-name="Path 629" d="M11.224.043a1.094,1.094,0,0,1,.81.076L23.01,11.1a.867.867,0,0,1-1.2,1.2L11.6,2.09l-.2.089L1.314,12.292a.867.867,0,0,1-1.2-1.2Z" transform="translate(0 0)" fill="#26445d"/>
    <path id="Path_630" data-name="Path 630" d="M24.211,127.977a.916.916,0,0,1,1.143.463c.183,1.754-.184,3.8.048,5.518A2.555,2.555,0,0,0,27.9,136.2c3.157-.187,6.571.236,9.7,0,4.07-.306,2.138-5.121,2.626-7.681a.857.857,0,0,1,1.652.1c-.224,3.472,1.2,8.175-3.364,9.221-3.611-.232-7.672.339-11.23.013a4.272,4.272,0,0,1-2.953-1.891c-1.181-1.971-.344-5.1-.6-7.343a.865.865,0,0,1,.49-.643" transform="translate(-21.233 -114.74)" fill="#26445d"/>
  </g>
</svg>
