<svg id="Group_222" data-name="Group 222" xmlns="http://www.w3.org/2000/svg" xmlns:xlink="http://www.w3.org/1999/xlink" width="30.432" height="17.565" viewBox="0 0 30.432 17.565">
  <defs>
    <clipPath id="clip-path">
      <rect id="Rectangle_106" data-name="Rectangle 106" width="30.432" height="17.565" fill="#26445d"/>
    </clipPath>
  </defs>
  <g id="Group_221" data-name="Group 221" clip-path="url(#clip-path)">
    <path id="Path_654" data-name="Path 654" d="M31.767,15.07l7.326-6.24L31.961,2.5c-.3-.055-.182.129-.2.324-.037.538.195,1.529-.6,1.644-1.055.152-.911-1.569-.784-2.237A2.8,2.8,0,0,1,33.006,0L54.1,0a2.885,2.885,0,0,1,2.559,2.943c.3,3.79-.229,7.962-.007,11.793a2.854,2.854,0,0,1-2.678,2.824l-21.1,0a2.857,2.857,0,0,1-2.543-2.436c-.378-2.832,1.847-2.657,1.431-.055M54.038,1.446H32.945l10.414,8.79.716-.215Zm1.179,13.428V2.69c0-.015-.19-.262-.262-.132L47.749,8.846l7.205,6.16c.069.124.254-.1.262-.132M32.945,16.119H54.038l-7.4-6.4c-1,.6-1.883,2.083-3.146,2.083-1.223,0-2.234-1.428-3.144-2.1Z" transform="translate(-26.324)" fill="#26445d"/>
    <path id="Path_655" data-name="Path 655" d="M.4,75.083c-.621-.179-.509-1.234.29-1.413,1.842.077,3.93-.2,5.743-.034,1.479.134.961,1.447.649,1.447Z" transform="translate(0 -63.942)" fill="#26445d"/>
    <path id="Path_656" data-name="Path 656" d="M15.8,49.036h4.716c.313,0,.831,1.313-.649,1.447a22.774,22.774,0,0,1-3.877-.066c-.679-.208-.659-.944-.19-1.382" transform="translate(-13.435 -42.612)" fill="#26445d"/>
  </g>
</svg>
