<svg xmlns="http://www.w3.org/2000/svg" width="23.128" height="20.762" viewBox="0 0 23.128 20.762">
  <g id="Group_204" data-name="Group 204" transform="translate(0 0)">
    <g id="Group_205" data-name="Group 205" transform="translate(0 0)">
      <path id="Path_631" data-name="Path 631" d="M2.288.047A14.46,14.46,0,0,1,7.094.77a16.769,16.769,0,0,1,4.439,2.044c.8-.381,1.523-.882,2.337-1.245C15.481.853,19.074-.2,20.78.032a2.935,2.935,0,0,1,2.248,2.532c.314,3.1-.236,6.705.006,9.863a.846.846,0,1,1-1.689.086c-.245-3.129.294-6.677,0-9.756-.166-1.719-2.34-.968-3.51-.711A13.33,13.33,0,0,0,12.39,4.372l-.068,15.966c-.979,1.128-2.531-.389-3.6-.88a16.691,16.691,0,0,0-3.3-1.079c-2.167-.477-5-.3-5.3-3.269-.389-3.923.292-8.463,0-12.452A2.944,2.944,0,0,1,2.288.047m8.491,18.6V4.356A14.989,14.989,0,0,0,4.324,1.847c-1.056-.174-2.369-.575-2.513.91-.372,3.834.292,8.262,0,12.159a1.44,1.44,0,0,0,.412.982c.533.519,2.812.685,3.694.888a18.943,18.943,0,0,1,4.861,1.861" transform="translate(0 0)" fill="#26445d"/>
      <path id="Path_632" data-name="Path 632" d="M172.052,149.185a.787.787,0,0,1,1.025.725c.166,1.412-.125,3.134,0,4.581a.826.826,0,0,1-1.6-.092,31.539,31.539,0,0,1,.011-4.581.768.768,0,0,1,.564-.634" transform="translate(-154.329 -134.303)" fill="#26445d"/>
      <path id="Path_633" data-name="Path 633" d="M170.279,114.341a1.107,1.107,0,0,1,.451,2.151,1.107,1.107,0,1,1-.451-2.151" transform="translate(-152.451 -102.946)" fill="#26445d"/>
      <path id="Path_634" data-name="Path 634" d="M33.723,56.213a7.616,7.616,0,0,1,2.321.326c.547.128,2.731.695,2.935,1.148a.9.9,0,0,1-.417,1.173c-.588.175-1.674-.39-2.3-.548a22.2,22.2,0,0,1-2.612-.575.806.806,0,0,1,.072-1.523" transform="translate(-29.844 -50.59)" fill="#26445d"/>
      <path id="Path_635" data-name="Path 635" d="M33.985,98.437a11.061,11.061,0,0,1,2.653.589c.721.451.391,1.508-.584,1.488a21.444,21.444,0,0,1-2.48-.516.868.868,0,0,1,.41-1.561" transform="translate(-29.906 -88.632)" fill="#26445d"/>
    </g>
  </g>
</svg>
