<svg xmlns="http://www.w3.org/2000/svg" width="18.137" height="25.569" viewBox="0 0 18.137 25.569">
  <g id="Group_232" data-name="Group 232" transform="translate(0.314 0.279)">
    <g id="Group_233" data-name="Group 233">
      <path id="Path_665" data-name="Path 665" d="M15.718,3.489A8.644,8.644,0,0,0,7.078.156,8.551,8.551,0,0,0,.823,5.067a8.729,8.729,0,0,0,.309,8L8.351,24.727l.012.02.39.293H9l.027-.014a.8.8,0,0,0,.345-.277l2.681-4.5a.557.557,0,0,0,.13-.145l1.108-1.8a.56.56,0,0,0-.953-.587l-.85,1.38-.187.3-.006.009c-.727,1.172-1.479,2.383-2.182,3.56l0,.005-.214.149-.183-.016c-.263-.349-.5-.725-.721-1.091l-.17-.274-.534-.854c-1.862-2.975-3.787-6.051-5.562-9.14l-.013-.026A7.513,7.513,0,0,1,3.233,3.48a7.509,7.509,0,0,1,8.167-1.9,7.479,7.479,0,0,1,4.46,4.412,7.93,7.93,0,0,1-.493,6.545l-.112.207h0l-.623,1.169a.56.56,0,1,0,.988.526l1-1.88a.561.561,0,0,0,.048-.123,8.642,8.642,0,0,0-.956-8.949" transform="translate(0 0)" fill="#26445d" stroke="#26445d" stroke-width="0.5"/>
      <path id="Path_666" data-name="Path 666" d="M75.651,71.748h0a4.219,4.219,0,0,0-3.461,2.419,4.256,4.256,0,0,0,3.849,6.123h.016a4.28,4.28,0,1,0-.4-8.542m2.641,6.516a3.022,3.022,0,0,1-2.165.961,3.338,3.338,0,0,1-2.2-.883,3.19,3.19,0,0,1,2.019-5.536,2.965,2.965,0,0,1,.581.058,3.506,3.506,0,0,1,2.6,2.359,2.96,2.96,0,0,1-.833,3.041" transform="translate(-67.301 -67.271)" fill="#26445d" stroke="#26445d" stroke-width="0.5"/>
    </g>
  </g>
</svg>
