<svg id="Group_220" data-name="Group 220" xmlns="http://www.w3.org/2000/svg" xmlns:xlink="http://www.w3.org/1999/xlink" width="16.049" height="29.413" viewBox="0 0 16.049 29.413">
  <defs>
    <clipPath id="clip-path">
      <rect id="Rectangle_105" data-name="Rectangle 105" width="16.049" height="29.413" fill="#26445d"/>
    </clipPath>
  </defs>
  <g id="Group_219" data-name="Group 219" clip-path="url(#clip-path)">
    <path id="Path_651" data-name="Path 651" d="M50.926,22.373a29.679,29.679,0,0,0-4.228,0,.7.7,0,0,0-.119,1.365c.728-.1,4.382.2,4.724-.139a.787.787,0,0,0-.377-1.23" transform="translate(-40.788 -19.746)" fill="#26445d"/>
    <path id="Path_652" data-name="Path 652" d="M58.171,209.142a1.391,1.391,0,0,0,1.674,2.189c1.775-1.035-.228-3.571-1.674-2.189" transform="translate(-51.142 -184.833)" fill="#26445d"/>
    <path id="Path_653" data-name="Path 653" d="M15.361,13.492a.687.687,0,0,0,.687-.687V10a.679.679,0,0,0-.008-.1l0-7A3.177,3.177,0,0,0,13.452,0L2.379.017A3.249,3.249,0,0,0,0,2.567L0,26.624A3.185,3.185,0,0,0,2.476,29.3c3.463-.218,7.349.324,10.761.015a3.148,3.148,0,0,0,2.8-2.812V22.946a.686.686,0,0,0,.011-.117v-2.8a.687.687,0,1,0-1.374,0v.356h-.006v5.554c-.1,1.133-.579,1.9-1.775,2-3.175.28-6.753-.221-9.972,0a2.355,2.355,0,0,1-1.047-.5,5.377,5.377,0,0,1-.409-.679c-.146-8.048-.146-16.172,0-24.22A1.859,1.859,0,0,1,2.922,1.362c3.219.218,6.8-.281,9.972,0,1.2.105,1.677.871,1.775,2v8.229h.006V12.8a.687.687,0,0,0,.687.687" transform="translate(0.001)" fill="#26445d"/>
  </g>
</svg>
