<svg xmlns="http://www.w3.org/2000/svg" width="30.749" height="31.848" viewBox="0 0 30.749 31.848">
  <g id="Group_224" data-name="Group 224" transform="translate(0.182 0.21)">
    <g id="Group_225" data-name="Group 225">
      <path id="Path_657" data-name="Path 657" d="M182.916.034c7.494.712,9.635,11.076,3.47,15.244a12.659,12.659,0,0,1-4.917,1.817.561.561,0,0,1-.35-1.029,15.249,15.249,0,0,1,1.736-.405c3.505-.979,5.862-3.337,6.055-7.1A6.973,6.973,0,1,0,177.011,13c.227.236.826.576.879.9.083.509-.79,1.714-.771,1.932.033.379.828.233.78.858-.075.981-1.5.426-1.785-.407-.306-.886.333-1.31.552-2.085A8.11,8.11,0,0,1,175.64,3.064a8.318,8.318,0,0,1,5.38-3.03,13.266,13.266,0,0,1,1.9,0" transform="translate(-159.678 0)" fill="#26445d" stroke="#26445d" stroke-width="0.4"/>
      <path id="Path_658" data-name="Path 658" d="M23.544,109.163a14.532,14.532,0,0,0-3.025-3.549c-.327-.725.266-1.164.913-.669a14.942,14.942,0,0,1,1.5,1.5,12.53,12.53,0,0,1,1.41,1.925,1.436,1.436,0,0,0,.614-1.685c-.326-1.045-2.915-3.69-4.008-3.821a1.763,1.763,0,0,0-.678.06c-.571.163-.882.843-1.345,1.224-3.707,3.059-10.047-2.525-8.684-6.788.126-.393.373-.685.5-1.039a15.777,15.777,0,0,0-2.605-3.151c-.345-.327-1.344-.85-.825-1.435.277-.312.644-.135.914.061a15.252,15.252,0,0,1,1.837,1.772A10.914,10.914,0,0,1,11.5,95.524a1.307,1.307,0,0,0,.641-1.65A9.2,9.2,0,0,0,8.327,90.1c-.976-.3-1.6.434-2.153,1.116-5.041,6.27,1.611,15.4,7.615,18.194.488.455-.309,1.326-.642,1.685a6.367,6.367,0,0,1-6.991,1.483,5.142,5.142,0,0,0-.747-.346,6.155,6.155,0,0,0-.766.269A3.723,3.723,0,0,1,.36,110.97c-.219-.331-.553-.767-.217-1.138.593-.653,1.04.436,1.318.771a2.692,2.692,0,0,0,3,.824,3.813,3.813,0,0,1-.917-1.927c-.3-3.088,3.694-3.366,3.856-.492a3.064,3.064,0,0,1-.98,2.449,5.174,5.174,0,0,0,6.176-1.407,26.9,26.9,0,0,1-3.025-2.112c-4.527-3.778-8.51-11-4.828-16.631.835-1.277,2.055-2.721,3.759-2.3,1.637.4,4.791,3.528,4.832,5.266s-1.208,1.851-1.847,2.983c-1.682,2.983,3.129,7.835,6.158,6.4,1.308-.618,1.368-2.09,3.363-1.9,1.666.162,4.905,3.391,5.1,5.052.323,2.739-4.131,4.755-6.386,4.917a11.263,11.263,0,0,1-3.152-.211c-.761-.215-.6-1.105.072-1.1.41,0,.931.183,1.365.212a8.473,8.473,0,0,0,5.538-1.472m-18.635-.835a1.616,1.616,0,0,0-.112,1.63c.078.19.513.9.721.85a2.706,2.706,0,0,0,.641-.833c.314-.744.186-2.088-.921-1.839a1.158,1.158,0,0,0-.329.191" transform="translate(0 -81.667)" fill="#26445d" stroke="#26445d" stroke-width="0.4"/>
      <path id="Path_659" data-name="Path 659" d="M226.131,55.707c1.067-.1,2.238.221,2.379,1.444.2,1.709-.711,2.474-2.379,2.287.118,1.316-.332,2.424-1.8,2.451-1.57.029-2.1-1.008-1.929-2.451-1.311.157-2.41-.275-2.45-1.741-.044-1.577,1-2.115,2.45-1.989-.2-1.706.656-2.637,2.388-2.358,1.17.188,1.418,1.34,1.342,2.358m-2.28-1.272c-.791.176.1,2.209-.749,2.371-.474.09-1.438-.148-1.826.131-.353.253-.3,1.263.128,1.387.592.172,1.965-.366,2.092.538.121.862-.44,2.145,1.011,1.917.934-.146.294-1.667.581-2.171.374-.656,2.143.145,2.315-.621a2.9,2.9,0,0,0,.01-.717c-.135-.854-1.728-.218-2.2-.555-.5-.36.219-2.1-.6-2.279a2.8,2.8,0,0,0-.769,0" transform="translate(-201.976 -48.944)" fill="#26445d" stroke="#26445d" stroke-width="0.4"/>
    </g>
  </g>
</svg>
