<svg id="Group_230" data-name="Group 230" xmlns="http://www.w3.org/2000/svg" xmlns:xlink="http://www.w3.org/1999/xlink" width="21.753" height="25.577" viewBox="0 0 21.753 25.577">
  <defs>
    <clipPath id="clip-path">
      <rect id="Rectangle_108" data-name="Rectangle 108" width="21.753" height="25.577" fill="#26445d"/>
    </clipPath>
  </defs>
  <g id="Group_229" data-name="Group 229" clip-path="url(#clip-path)">
    <path id="Path_662" data-name="Path 662" d="M4.335,35.971a.877.877,0,0,0,.609.237c4.072-.291,8.633.364,12.646,0,.591-.054.792-.254.846-.846.331-3.63-.255-7.765-.007-11.448a.85.85,0,0,1,1.7-.1c-.262,3.782.341,8.018,0,11.746a2.605,2.605,0,0,1-1.472,2.109c-.227.1-.877.18-.971.322-.072.109-.131.659-.259.935a2.559,2.559,0,0,1-1.738,1.347H2.073a2.559,2.559,0,0,1-1.9-1.585C-.177,32.871.129,26.97.021,21.124A2.517,2.517,0,0,1,1.648,18.97c.206-.092.648-.125.767-.228a7.619,7.619,0,0,0,.278-.916,2.5,2.5,0,0,1,1.6-1.38c2.66.1,5.7-.29,8.318-.049a.809.809,0,0,1,.273,1.575l-7.838.021A.935.935,0,0,0,4.1,19.035V35.261a1.231,1.231,0,0,0,.236.71M2.412,20.481a.765.765,0,0,0-.7.744l0,16.623c-.019.546.562.847,1.047.843,3.94-.278,8.362.357,12.245,0,.592-.054.876-.2,1.041-.8H4.552c-.991,0-2.139-1.482-2.139-2.438Z" transform="translate(0 -14.695)" fill="#26445d"/>
    <path id="Path_663" data-name="Path 663" d="M118.574.043a2.047,2.047,0,0,1,1.157.094,19.6,19.6,0,0,1,2.505,2.37,1.54,1.54,0,0,1-.05,2.243c-1.584,1.954-4,3.731-5.681,5.661a1.462,1.462,0,0,1-.734.161,12.027,12.027,0,0,1-3.23-.161.872.872,0,0,1-.408-.686,21.058,21.058,0,0,1,.078-3.509l5.643-5.7a2.383,2.383,0,0,1,.72-.474m-4.747,8.834h1.841c1.721-1.781,3.589-3.467,5.216-5.309L119.05,1.715l-5.223,5.222Z" transform="translate(-100.945 0)" fill="#26445d"/>
    <path id="Path_664" data-name="Path 664" d="M62.3,141.241l8.43-.014a.806.806,0,0,1-.091,1.587l-8.257,0a.844.844,0,0,1-.081-1.569" transform="translate(-55.657 -127.176)" fill="#26445d"/>
  </g>
</svg>
